{"glyphs":{"0":{"ha":704,"x_min":28,"x_max":676,"o":"m 257 56 q 126 78 176 56 q 51 157 75 101 q 28 313 28 213 l 28 660 q 52 817 28 761 q 127 894 76 872 q 257 917 178 917 l 447 917 q 578 894 528 917 q 653 816 629 872 q 676 660 676 760 l 676 313 q 652 156 676 211 q 577 78 628 100 q 447 56 526 56 l 257 56 m 324 338 q 353 307 324 307 q 381 338 381 307 l 381 633 q 353 664 381 664 q 324 633 324 664 l 324 338 z "},"1":{"ha":524,"x_min":28,"x_max":496,"o":"m 294 56 q 226 63 249 56 q 197 93 204 71 q 190 160 190 115 l 190 536 q 178 585 190 572 q 142 597 167 597 l 104 597 q 43 615 58 597 q 28 701 28 633 l 28 813 q 43 901 28 882 q 104 921 58 921 l 383 921 q 471 894 446 921 q 496 789 496 868 l 496 160 q 489 93 496 115 q 460 63 482 71 q 392 56 438 56 l 294 56 z "},"2":{"ha":681,"x_min":28,"x_max":653,"o":"m 368 917 q 530 894 467 917 q 623 813 593 872 q 653 646 653 754 l 653 629 q 596 442 653 499 q 424 386 539 386 l 371 386 q 340 358 340 386 q 371 331 340 331 l 563 331 q 636 310 619 331 q 653 226 653 290 l 653 160 q 646 93 653 115 q 617 63 639 71 q 549 56 594 56 l 132 56 q 64 63 86 56 q 35 93 42 71 q 28 160 28 115 l 28 407 q 33 477 28 456 q 57 505 38 499 q 118 511 76 511 l 211 511 q 331 542 297 511 q 364 657 364 574 l 364 676 q 336 707 364 707 q 308 676 308 707 l 308 657 q 303 597 308 617 q 276 572 297 578 q 206 567 254 567 l 118 567 q 57 572 76 567 q 33 597 38 578 q 28 657 28 617 l 28 701 q 51 834 28 788 q 129 899 74 881 q 285 917 185 917 l 368 917 z "},"3":{"ha":631,"x_min":28,"x_max":603,"o":"m 132 56 q 64 63 86 56 q 35 93 42 71 q 28 160 28 115 l 28 235 q 33 305 28 283 q 57 333 38 326 q 118 339 76 339 l 240 339 q 271 367 271 339 q 240 394 271 394 l 118 394 q 57 401 76 394 q 33 429 38 407 q 28 499 28 451 q 33 569 28 547 q 57 598 38 592 q 118 604 76 604 l 240 604 q 271 632 271 604 q 240 660 271 660 l 118 660 q 57 666 76 660 q 33 694 38 672 q 28 764 28 717 l 28 813 q 35 879 28 857 q 64 909 42 901 q 132 917 86 917 l 346 917 q 497 891 440 917 q 578 804 553 865 q 603 636 603 743 q 598 565 603 588 q 574 537 593 543 q 513 531 556 531 l 460 531 q 429 503 429 531 q 460 475 429 475 l 513 475 q 574 469 556 475 q 598 441 593 463 q 603 371 603 419 l 603 307 q 544 112 603 168 q 360 56 486 56 l 132 56 z "},"4":{"ha":760,"x_min":28,"x_max":732,"o":"m 438 56 q 369 63 392 56 q 340 93 347 71 q 333 160 333 115 l 333 215 q 286 260 333 260 l 132 260 q 64 267 86 260 q 35 297 42 275 q 28 364 28 319 l 28 646 q 285 917 28 917 l 493 917 q 561 909 539 917 q 590 879 583 901 q 597 813 597 857 l 597 617 q 610 569 597 583 q 654 556 624 556 l 683 556 q 720 538 708 556 q 732 451 732 521 l 732 381 q 720 294 732 313 q 683 276 708 276 l 646 276 q 609 263 621 276 q 597 215 597 249 l 597 160 q 590 93 597 115 q 561 63 583 71 q 493 56 539 56 l 438 56 m 301 478 q 329 446 301 446 q 358 478 358 446 l 358 590 q 329 622 358 622 q 301 590 301 622 l 301 478 z "},"5":{"ha":681,"x_min":28,"x_max":653,"o":"m 285 56 q 129 74 185 56 q 51 139 74 92 q 28 271 28 186 l 28 315 q 33 376 28 357 q 57 400 38 394 q 118 406 76 406 l 206 406 q 276 400 254 406 q 303 375 297 394 q 308 315 308 356 l 308 296 q 336 265 308 265 q 364 296 364 265 l 364 315 q 331 430 364 399 q 211 461 297 461 l 118 461 q 57 467 76 461 q 33 496 38 474 q 28 565 28 518 l 28 813 q 35 879 28 857 q 64 909 42 901 q 132 917 86 917 l 549 917 q 617 909 594 917 q 646 879 639 901 q 653 813 653 857 l 653 746 q 636 662 653 682 q 563 642 619 642 l 371 642 q 340 614 340 642 q 371 586 340 586 l 424 586 q 596 531 539 586 q 653 343 653 475 l 653 326 q 623 160 653 218 q 530 78 593 101 q 368 56 467 56 l 285 56 z "},"6":{"ha":681,"x_min":28,"x_max":653,"o":"m 549 917 q 617 909 594 917 q 646 879 639 901 q 653 813 653 857 l 653 731 q 648 662 653 683 q 624 634 643 640 q 563 628 606 628 l 351 628 q 321 600 321 628 q 351 572 321 572 l 563 572 q 624 566 606 572 q 648 538 643 560 q 653 468 653 517 l 653 326 q 626 166 653 225 q 544 81 600 107 q 396 56 488 56 l 285 56 q 87 116 146 56 q 28 326 28 176 l 28 646 q 88 857 28 797 q 285 917 147 917 l 549 917 m 311 368 q 339 336 311 336 q 368 368 368 336 l 368 439 q 339 471 368 471 q 311 439 311 471 l 311 368 z "},"7":{"ha":611,"x_min":28,"x_max":583,"o":"m 132 56 q 64 63 86 56 q 35 93 42 71 q 28 160 28 115 l 28 296 q 61 453 28 394 q 150 540 94 513 q 271 567 206 567 l 296 567 q 326 594 326 567 q 296 622 326 622 l 118 622 q 57 628 76 622 q 33 657 38 635 q 28 726 28 679 l 28 813 q 35 879 28 857 q 64 909 42 901 q 132 917 86 917 l 479 917 q 547 909 525 917 q 576 879 569 901 q 583 813 583 857 l 583 465 q 553 349 583 378 q 471 319 524 319 l 399 319 q 347 268 347 319 l 347 160 q 340 93 347 115 q 311 63 333 71 q 243 56 289 56 l 132 56 z "},"8":{"ha":726,"x_min":28,"x_max":699,"o":"m 271 56 q 133 78 188 56 q 53 160 79 101 q 28 326 28 218 l 28 385 q 33 455 28 433 q 57 483 38 476 q 118 489 76 489 l 171 489 q 201 517 201 489 q 171 544 201 544 l 118 544 q 57 551 76 544 q 33 578 38 557 q 28 647 28 600 q 53 813 28 754 q 133 894 79 871 q 271 917 188 917 l 456 917 q 594 894 540 917 q 673 813 647 871 q 699 647 699 754 q 694 578 699 600 q 670 551 689 557 q 608 544 651 544 l 556 544 q 525 517 525 544 q 556 489 525 489 l 608 489 q 670 483 651 489 q 694 455 689 476 q 699 385 699 433 l 699 326 q 672 160 699 218 q 592 78 646 101 q 456 56 539 56 l 271 56 m 335 297 q 364 265 335 265 q 392 297 392 265 l 392 382 q 364 414 392 414 q 335 382 335 414 l 335 297 m 335 589 q 364 557 335 557 q 392 589 392 557 l 392 674 q 364 706 392 706 q 335 674 335 706 l 335 589 z "},"9":{"ha":681,"x_min":28,"x_max":653,"o":"m 132 56 q 64 63 86 56 q 35 93 42 71 q 28 160 28 115 l 28 242 q 33 310 28 289 q 57 338 38 332 q 118 344 76 344 l 329 344 q 360 372 360 344 q 329 400 360 400 l 118 400 q 57 406 76 400 q 33 435 38 413 q 28 504 28 457 l 28 646 q 54 806 28 747 q 137 891 81 865 q 285 917 193 917 l 396 917 q 594 856 536 917 q 653 646 653 796 l 653 326 q 593 115 653 175 q 396 56 533 56 l 132 56 m 313 533 q 342 501 313 501 q 369 533 369 501 l 369 604 q 342 636 369 636 q 313 604 313 636 l 313 533 z "}," ":{"ha":326,"x_min":0,"x_max":0,"o":""},"A":{"ha":778,"x_min":28,"x_max":750,"o":"m 132 56 q 64 63 86 56 q 35 93 42 71 q 28 160 28 115 l 28 618 q 55 791 28 725 q 144 887 82 857 q 313 917 207 917 l 649 917 q 716 909 694 917 q 744 879 738 901 q 750 813 750 857 l 750 160 q 743 93 750 115 q 714 63 736 71 q 646 56 692 56 l 521 56 q 453 63 475 56 q 424 92 431 69 q 417 160 417 115 l 417 294 q 389 329 417 329 q 361 294 361 329 l 361 160 q 354 92 361 115 q 325 63 347 69 q 257 56 303 56 l 132 56 m 364 519 q 393 488 364 488 q 421 519 421 488 l 421 633 q 393 664 421 664 q 364 633 364 664 l 364 519 z "},"Á":{"ha":778,"x_min":28,"x_max":750,"o":"m 132 56 q 64 63 86 56 q 35 93 42 71 q 28 160 28 115 l 28 618 q 55 791 28 725 q 144 887 82 857 q 313 917 207 917 l 649 917 q 716 909 694 917 q 744 879 738 901 q 750 813 750 857 l 750 160 q 743 93 750 115 q 714 63 736 71 q 646 56 692 56 l 521 56 q 453 63 475 56 q 424 92 431 69 q 417 160 417 115 l 417 294 q 389 329 417 329 q 361 294 361 329 l 361 160 q 354 92 361 115 q 325 63 347 69 q 257 56 303 56 l 132 56 m 260 1031 q 278 1078 260 1061 q 347 1118 296 1096 l 443 1158 q 526 1169 503 1183 q 550 1113 550 1156 l 550 1039 q 533 986 550 1000 q 463 972 515 972 l 344 972 q 277 986 294 972 q 260 1031 260 1000 m 364 519 q 393 488 364 488 q 421 519 421 488 l 421 633 q 393 664 421 664 q 364 633 364 664 l 364 519 z "},"Ă":{"ha":778,"x_min":28,"x_max":750,"o":"m 132 56 q 64 63 86 56 q 35 93 42 71 q 28 160 28 115 l 28 618 q 55 791 28 725 q 144 887 82 857 q 313 917 207 917 l 649 917 q 716 909 694 917 q 744 879 738 901 q 750 813 750 857 l 750 160 q 743 93 750 115 q 714 63 736 71 q 646 56 692 56 l 521 56 q 453 63 475 56 q 424 92 431 69 q 417 160 417 115 l 417 294 q 389 329 417 329 q 361 294 361 329 l 361 160 q 354 92 361 115 q 325 63 347 69 q 257 56 303 56 l 132 56 m 165 1163 q 177 1208 165 1199 q 236 1217 189 1217 l 282 1217 q 366 1203 349 1217 q 383 1140 383 1189 l 383 1111 q 411 1081 383 1081 q 439 1111 439 1081 l 439 1140 q 446 1189 439 1172 q 475 1211 453 1206 q 543 1217 497 1217 l 586 1217 q 646 1208 635 1217 q 657 1163 657 1199 q 592 1012 657 1051 q 411 972 526 972 q 231 1012 296 972 q 165 1163 165 1051 m 364 519 q 393 488 364 488 q 421 519 421 488 l 421 633 q 393 664 421 664 q 364 633 364 664 l 364 519 z "},"Â":{"ha":778,"x_min":28,"x_max":750,"o":"m 132 56 q 64 63 86 56 q 35 93 42 71 q 28 160 28 115 l 28 618 q 55 791 28 725 q 144 887 82 857 q 313 917 207 917 l 649 917 q 716 909 694 917 q 744 879 738 901 q 750 813 750 857 l 750 160 q 743 93 750 115 q 714 63 736 71 q 646 56 692 56 l 521 56 q 453 63 475 56 q 424 92 431 69 q 417 160 417 115 l 417 294 q 389 329 417 329 q 361 294 361 329 l 361 160 q 354 92 361 115 q 325 63 347 69 q 257 56 303 56 l 132 56 m 164 1010 q 175 1050 164 1038 l 311 1190 q 365 1214 335 1214 l 457 1214 q 510 1189 486 1214 l 644 1051 q 658 1010 658 1036 q 653 980 658 988 q 632 972 647 972 l 522 972 q 458 989 476 972 q 439 1056 439 1006 q 411 1094 439 1094 q 383 1056 383 1094 q 365 989 383 1006 q 300 972 346 972 l 190 972 q 169 980 175 972 q 164 1010 164 988 m 364 519 q 393 488 364 488 q 421 519 421 488 l 421 633 q 393 664 421 664 q 364 633 364 664 l 364 519 z "},"Ä":{"ha":778,"x_min":28,"x_max":750,"o":"m 132 56 q 64 63 86 56 q 35 93 42 71 q 28 160 28 115 l 28 618 q 55 791 28 725 q 144 887 82 857 q 313 917 207 917 l 649 917 q 716 909 694 917 q 744 879 738 901 q 750 813 750 857 l 750 160 q 743 93 750 115 q 714 63 736 71 q 646 56 692 56 l 521 56 q 453 63 475 56 q 424 92 431 69 q 417 160 417 115 l 417 294 q 389 329 417 329 q 361 294 361 329 l 361 160 q 354 92 361 115 q 325 63 347 69 q 257 56 303 56 l 132 56 m 131 1056 q 135 1110 131 1093 q 160 1133 140 1128 q 221 1138 179 1138 l 293 1138 q 355 1133 336 1138 q 378 1110 374 1128 q 383 1056 383 1093 q 378 1001 383 1018 q 355 978 374 983 q 293 972 336 972 l 221 972 q 160 978 179 972 q 135 1001 140 983 q 131 1056 131 1018 m 364 519 q 393 488 364 488 q 421 519 421 488 l 421 633 q 393 664 421 664 q 364 633 364 664 l 364 519 m 439 1056 q 444 1110 439 1093 q 468 1133 449 1128 q 529 1138 488 1138 l 601 1138 q 663 1133 644 1138 q 687 1110 682 1128 q 692 1056 692 1093 q 687 1001 692 1018 q 663 978 682 983 q 601 972 644 972 l 529 972 q 468 978 488 972 q 444 1001 449 983 q 439 1056 439 1018 z "},"À":{"ha":778,"x_min":28,"x_max":750,"o":"m 132 56 q 64 63 86 56 q 35 93 42 71 q 28 160 28 115 l 28 618 q 55 791 28 725 q 144 887 82 857 q 313 917 207 917 l 649 917 q 716 909 694 917 q 744 879 738 901 q 750 813 750 857 l 750 160 q 743 93 750 115 q 714 63 736 71 q 646 56 692 56 l 521 56 q 453 63 475 56 q 424 92 431 69 q 417 160 417 115 l 417 294 q 389 329 417 329 q 361 294 361 329 l 361 160 q 354 92 361 115 q 325 63 347 69 q 257 56 303 56 l 132 56 m 264 1039 l 264 1113 q 288 1169 264 1156 q 371 1158 311 1183 l 467 1118 q 536 1078 518 1096 q 554 1031 554 1061 q 537 986 554 1000 q 469 972 519 972 l 351 972 q 282 986 300 972 q 264 1039 264 1000 m 364 519 q 393 488 364 488 q 421 519 421 488 l 421 633 q 393 664 421 664 q 364 633 364 664 l 364 519 z "},"Ā":{"ha":778,"x_min":28,"x_max":750,"o":"m 132 56 q 64 63 86 56 q 35 93 42 71 q 28 160 28 115 l 28 618 q 55 791 28 725 q 144 887 82 857 q 313 917 207 917 l 649 917 q 716 909 694 917 q 744 879 738 901 q 750 813 750 857 l 750 160 q 743 93 750 115 q 714 63 736 71 q 646 56 692 56 l 521 56 q 453 63 475 56 q 424 92 431 69 q 417 160 417 115 l 417 294 q 389 329 417 329 q 361 294 361 329 l 361 160 q 354 92 361 115 q 325 63 347 69 q 257 56 303 56 l 132 56 m 215 1056 q 220 1110 215 1093 q 244 1133 225 1128 q 306 1138 264 1138 l 517 1138 q 578 1133 560 1138 q 602 1110 597 1128 q 607 1056 607 1093 q 602 1001 607 1018 q 578 978 597 983 q 517 972 560 972 l 306 972 q 244 978 264 972 q 220 1001 225 983 q 215 1056 215 1018 m 364 519 q 393 488 364 488 q 421 519 421 488 l 421 633 q 393 664 421 664 q 364 633 364 664 l 364 519 z "},"Ą":{"ha":778,"x_min":28,"x_max":750,"o":"m 635 -174 q 538 -169 571 -189 q 504 -81 504 -150 l 504 13 q 468 56 504 56 q 431 75 444 56 q 417 160 417 94 l 417 294 q 389 329 417 329 q 361 294 361 329 l 361 160 q 354 92 361 115 q 325 63 347 69 q 257 56 303 56 l 132 56 q 64 63 86 56 q 35 93 42 71 q 28 160 28 115 l 28 618 q 55 791 28 725 q 144 887 82 857 q 313 917 207 917 l 649 917 q 716 909 694 917 q 744 879 738 901 q 750 813 750 857 l 750 160 q 735 74 750 92 q 678 56 721 56 l 656 56 q 625 49 633 56 q 617 28 617 43 q 657 -1 617 -1 l 717 0 q 743 -13 736 0 q 750 -71 750 -26 q 740 -133 750 -117 q 703 -157 729 -150 l 635 -174 m 364 519 q 393 488 364 488 q 421 519 421 488 l 421 633 q 393 664 421 664 q 364 633 364 664 l 364 519 z "},"Å":{"ha":778,"x_min":28,"x_max":750,"o":"m 132 56 q 64 63 86 56 q 35 93 42 71 q 28 160 28 115 l 28 618 q 55 791 28 725 q 144 887 82 857 q 313 917 207 917 l 649 917 q 716 909 694 917 q 744 879 738 901 q 750 813 750 857 l 750 160 q 743 93 750 115 q 714 63 736 71 q 646 56 692 56 l 521 56 q 453 63 475 56 q 424 92 431 69 q 417 160 417 115 l 417 294 q 389 329 417 329 q 361 294 361 329 l 361 160 q 354 92 361 115 q 325 63 347 69 q 257 56 303 56 l 132 56 m 178 1111 q 192 1192 178 1163 q 244 1235 206 1222 q 351 1249 282 1249 l 465 1249 q 574 1235 536 1249 q 625 1192 611 1222 q 639 1111 639 1163 q 625 1029 639 1060 q 574 985 611 999 q 465 972 536 972 l 351 972 q 244 985 282 972 q 192 1029 206 999 q 178 1111 178 1060 m 349 1110 q 381 1082 349 1082 l 436 1082 q 468 1110 468 1082 q 436 1139 468 1139 l 381 1139 q 349 1110 349 1139 m 364 519 q 393 488 364 488 q 421 519 421 488 l 421 633 q 393 664 421 664 q 364 633 364 664 l 364 519 z "},"Ã":{"ha":778,"x_min":28,"x_max":750,"o":"m 132 56 q 64 63 86 56 q 35 93 42 71 q 28 160 28 115 l 28 618 q 55 791 28 725 q 144 887 82 857 q 313 917 207 917 l 649 917 q 716 909 694 917 q 744 879 738 901 q 750 813 750 857 l 750 160 q 743 93 750 115 q 714 63 736 71 q 646 56 692 56 l 521 56 q 453 63 475 56 q 424 92 431 69 q 417 160 417 115 l 417 294 q 389 329 417 329 q 361 294 361 329 l 361 160 q 354 92 361 115 q 325 63 347 69 q 257 56 303 56 l 132 56 m 131 1143 q 135 1200 131 1182 q 157 1223 140 1218 q 213 1228 174 1228 q 259 1222 243 1228 q 281 1197 275 1217 q 286 1135 286 1178 q 293 1100 286 1108 q 314 1092 300 1092 q 335 1100 329 1092 q 342 1135 342 1108 q 353 1196 342 1176 q 401 1222 365 1215 q 508 1229 438 1229 q 620 1215 581 1229 q 676 1165 660 1201 q 692 1058 692 1128 q 687 1001 692 1019 q 665 978 682 983 q 610 974 649 974 q 563 979 579 974 q 542 1005 547 985 q 536 1067 536 1025 q 530 1101 536 1093 q 508 1110 524 1110 q 488 1101 494 1110 q 481 1067 481 1093 q 469 1006 481 1026 q 422 980 457 986 q 314 972 386 974 q 203 986 243 972 q 147 1038 163 1000 q 131 1143 131 1075 m 364 519 q 393 488 364 488 q 421 519 421 488 l 421 633 q 393 664 421 664 q 364 633 364 664 l 364 519 z "},"Æ":{"ha":1061,"x_min":28,"x_max":1033,"o":"m 132 56 q 64 63 86 56 q 35 93 42 71 q 28 160 28 115 l 28 618 q 55 797 28 732 q 144 890 82 863 q 313 917 207 917 l 929 917 q 997 909 975 917 q 1026 879 1019 901 q 1033 813 1033 857 l 1033 764 q 1028 694 1033 717 q 1005 666 1024 672 q 943 660 986 660 l 804 660 q 776 632 776 660 q 804 604 776 604 l 943 604 q 1005 598 986 604 q 1028 569 1024 592 q 1033 499 1033 547 q 1028 429 1033 451 q 1005 401 1024 407 q 943 394 986 394 l 804 394 q 776 367 776 394 q 804 339 776 339 l 943 339 q 1005 333 986 339 q 1028 305 1024 326 q 1033 235 1033 283 l 1033 160 q 1026 93 1033 115 q 997 63 1019 71 q 929 56 975 56 l 536 56 q 468 63 490 56 q 438 92 446 69 q 431 160 431 115 l 431 294 q 403 329 431 329 q 375 294 375 329 l 375 160 q 368 92 375 115 q 339 63 361 69 q 271 56 317 56 l 132 56 m 378 519 q 407 488 378 488 q 435 519 435 488 l 435 633 q 407 664 435 664 q 378 633 378 664 l 378 519 z "},"B":{"ha":783,"x_min":28,"x_max":756,"o":"m 132 56 q 64 63 86 56 q 35 93 42 71 q 28 160 28 115 l 28 813 q 35 879 28 857 q 64 909 42 901 q 132 917 86 917 l 485 917 q 642 891 583 917 q 728 807 701 865 q 756 647 756 749 q 751 578 756 600 q 727 551 746 557 q 665 544 708 544 l 613 544 q 582 517 582 544 q 613 489 582 489 l 665 489 q 727 483 708 489 q 751 455 746 476 q 756 385 756 433 l 756 326 q 728 164 756 224 q 640 80 700 104 q 485 56 581 56 l 132 56 m 364 297 q 393 265 364 265 q 421 297 421 265 l 421 410 q 393 442 421 442 q 364 410 364 442 l 364 297 m 364 561 q 393 529 364 529 q 421 561 421 529 l 421 674 q 393 706 421 706 q 364 674 364 706 l 364 561 z "},"C":{"ha":783,"x_min":28,"x_max":756,"o":"m 299 56 q 92 119 156 56 q 28 326 28 182 l 28 646 q 91 853 28 789 q 299 917 154 917 l 651 917 q 719 909 697 917 q 749 879 742 901 q 756 813 756 857 l 756 615 q 751 546 756 568 q 727 517 746 524 q 665 511 708 511 l 511 511 q 450 517 469 511 q 426 546 431 524 q 421 615 421 568 l 421 676 q 393 706 421 706 q 365 676 365 706 l 365 294 q 393 265 365 265 q 421 294 421 265 l 421 351 q 426 422 421 400 q 450 449 431 443 q 511 456 469 456 l 665 456 q 727 449 708 456 q 751 422 746 443 q 756 351 756 400 l 756 160 q 749 93 756 115 q 719 63 742 71 q 651 56 697 56 l 299 56 z "},"Ć":{"ha":783,"x_min":28,"x_max":756,"o":"m 299 56 q 92 119 156 56 q 28 326 28 182 l 28 646 q 91 853 28 789 q 299 917 154 917 l 651 917 q 719 909 697 917 q 749 879 742 901 q 756 813 756 857 l 756 615 q 751 546 756 568 q 727 517 746 524 q 665 511 708 511 l 511 511 q 450 517 469 511 q 426 546 431 524 q 421 615 421 568 l 421 676 q 393 706 421 706 q 365 676 365 706 l 365 294 q 393 265 365 265 q 421 294 421 265 l 421 351 q 426 422 421 400 q 450 449 431 443 q 511 456 469 456 l 665 456 q 727 449 708 456 q 751 422 746 443 q 756 351 756 400 l 756 160 q 749 93 756 115 q 719 63 742 71 q 651 56 697 56 l 299 56 m 247 1031 q 265 1078 247 1061 q 335 1118 283 1096 l 431 1158 q 514 1169 490 1183 q 538 1113 538 1156 l 538 1039 q 520 986 538 1000 q 450 972 503 972 l 332 972 q 265 986 282 972 q 247 1031 247 1000 z "},"Č":{"ha":783,"x_min":28,"x_max":756,"o":"m 299 56 q 92 119 156 56 q 28 326 28 182 l 28 646 q 91 853 28 789 q 299 917 154 917 l 651 917 q 719 909 697 917 q 749 879 742 901 q 756 813 756 857 l 756 615 q 751 546 756 568 q 727 517 746 524 q 665 511 708 511 l 511 511 q 450 517 469 511 q 426 546 431 524 q 421 615 421 568 l 421 676 q 393 706 421 706 q 365 676 365 706 l 365 294 q 393 265 365 265 q 421 294 421 265 l 421 351 q 426 422 421 400 q 450 449 431 443 q 511 456 469 456 l 665 456 q 727 449 708 456 q 751 422 746 443 q 756 351 756 400 l 756 160 q 749 93 756 115 q 719 63 742 71 q 651 56 697 56 l 299 56 m 149 1176 q 154 1207 149 1200 q 175 1214 160 1214 l 285 1214 q 349 1197 331 1214 q 368 1131 368 1181 q 396 1092 368 1092 q 424 1131 424 1092 q 442 1197 424 1181 q 507 1214 461 1214 l 617 1214 q 638 1207 632 1214 q 643 1176 643 1200 q 632 1136 643 1149 l 496 996 q 442 972 472 972 l 350 972 q 297 997 321 972 l 163 1135 q 149 1176 149 1150 z "},"Ç":{"ha":783,"x_min":28,"x_max":756,"o":"m 268 -276 q 205 -263 219 -276 q 190 -217 190 -250 q 206 -160 190 -176 q 260 -144 221 -144 l 415 -144 q 449 -117 449 -144 q 415 -89 449 -89 l 296 -89 q 256 -75 265 -89 q 247 -17 247 -61 l 247 22 q 213 63 247 57 q 74 141 119 79 q 28 326 28 203 l 28 646 q 91 853 28 790 q 299 917 154 917 l 651 917 q 719 909 697 917 q 749 879 742 901 q 756 813 756 857 l 756 615 q 751 546 756 568 q 727 517 746 524 q 665 511 708 511 l 511 511 q 450 517 469 511 q 426 546 431 524 q 421 615 421 568 l 421 676 q 393 706 421 706 q 365 676 365 706 l 365 294 q 393 265 365 265 q 421 294 421 265 l 421 351 q 426 422 421 400 q 450 449 431 443 q 511 456 469 456 l 665 456 q 727 449 708 456 q 751 422 746 443 q 756 351 756 400 l 756 160 q 749 93 756 115 q 719 63 742 71 q 651 56 697 56 l 449 56 q 417 28 417 56 q 449 0 417 0 l 500 0 q 620 -29 585 0 q 656 -136 656 -58 q 610 -244 656 -212 q 446 -276 565 -276 l 268 -276 z "},"Ċ":{"ha":783,"x_min":28,"x_max":756,"o":"m 299 56 q 92 119 156 56 q 28 326 28 182 l 28 646 q 91 853 28 789 q 299 917 154 917 l 651 917 q 719 909 697 917 q 749 879 742 901 q 756 813 756 857 l 756 615 q 751 546 756 568 q 727 517 746 524 q 665 511 708 511 l 511 511 q 450 517 469 511 q 426 546 431 524 q 421 615 421 568 l 421 676 q 393 706 421 706 q 365 676 365 706 l 365 294 q 393 265 365 265 q 421 294 421 265 l 421 351 q 426 422 421 400 q 450 449 431 443 q 511 456 469 456 l 665 456 q 727 449 708 456 q 751 422 746 443 q 756 351 756 400 l 756 160 q 749 93 756 115 q 719 63 742 71 q 651 56 697 56 l 299 56 m 265 1056 q 270 1110 265 1093 q 294 1133 275 1128 q 356 1138 314 1138 l 442 1138 q 503 1133 485 1138 q 527 1110 522 1128 q 532 1056 532 1093 q 527 1001 532 1018 q 503 978 522 983 q 442 972 485 972 l 356 972 q 294 978 314 972 q 270 1001 275 983 q 265 1056 265 1018 z "},"D":{"ha":785,"x_min":28,"x_max":757,"o":"m 132 56 q 64 63 86 56 q 35 93 42 71 q 28 160 28 115 l 28 813 q 35 879 28 857 q 64 909 42 901 q 132 917 86 917 l 486 917 q 694 853 632 917 q 757 646 757 789 l 757 326 q 729 164 757 224 q 642 80 701 104 q 486 56 582 56 l 132 56 m 364 325 q 393 293 364 293 q 421 325 421 293 l 421 646 q 393 678 421 678 q 364 646 364 678 l 364 325 z "},"Ð":{"ha":915,"x_min":28,"x_max":888,"o":"m 263 56 q 194 63 217 56 q 165 93 172 71 q 158 160 158 115 l 158 340 q 147 388 158 374 q 110 401 135 401 l 76 401 q 40 416 51 401 q 28 478 28 431 l 28 493 q 40 556 28 542 q 76 569 51 569 l 101 569 q 146 583 133 569 q 158 631 158 597 l 158 813 q 165 879 158 857 q 194 909 172 901 q 263 917 217 917 l 617 917 q 824 853 761 917 q 888 646 888 789 l 888 326 q 824 119 888 182 q 617 56 760 56 l 263 56 m 464 299 q 493 267 464 267 q 519 299 519 267 l 519 321 q 524 341 519 336 q 542 346 528 346 l 550 346 q 621 377 593 346 q 649 478 649 408 l 649 493 q 621 594 649 563 q 550 625 593 625 l 542 625 q 524 630 528 625 q 519 649 519 635 l 519 674 q 493 706 519 706 q 464 674 464 706 l 464 631 q 477 583 464 597 q 521 569 490 569 l 544 569 q 581 556 569 569 q 593 493 593 542 l 593 478 q 581 416 593 431 q 544 401 569 401 l 513 401 q 476 388 488 401 q 464 340 464 374 l 464 299 z "},"Ď":{"ha":785,"x_min":28,"x_max":757,"o":"m 132 56 q 64 63 86 56 q 35 93 42 71 q 28 160 28 115 l 28 813 q 35 879 28 857 q 64 909 42 901 q 132 917 86 917 l 486 917 q 694 853 632 917 q 757 646 757 789 l 757 326 q 729 164 757 224 q 642 80 701 104 q 486 56 582 56 l 132 56 m 143 1176 q 149 1207 143 1200 q 169 1214 154 1214 l 279 1214 q 344 1197 325 1214 q 363 1131 363 1181 q 390 1092 363 1092 q 418 1131 418 1092 q 437 1197 418 1181 q 501 1214 456 1214 l 611 1214 q 632 1207 626 1214 q 638 1176 638 1200 q 626 1136 638 1149 l 490 996 q 436 972 467 972 l 344 972 q 292 997 315 972 l 157 1135 q 143 1176 143 1150 m 364 325 q 393 293 364 293 q 421 325 421 293 l 421 646 q 393 678 421 678 q 364 646 364 678 l 364 325 z "},"Đ":{"ha":915,"x_min":28,"x_max":888,"o":"m 263 56 q 194 63 217 56 q 165 93 172 71 q 158 160 158 115 l 158 340 q 147 388 158 374 q 110 401 135 401 l 76 401 q 40 416 51 401 q 28 478 28 431 l 28 493 q 40 556 28 542 q 76 569 51 569 l 101 569 q 146 583 133 569 q 158 631 158 597 l 158 813 q 165 879 158 857 q 194 909 172 901 q 263 917 217 917 l 617 917 q 824 853 761 917 q 888 646 888 789 l 888 326 q 824 119 888 182 q 617 56 760 56 l 263 56 m 464 299 q 493 267 464 267 q 519 299 519 267 l 519 321 q 524 341 519 336 q 542 346 528 346 l 550 346 q 621 377 593 346 q 649 478 649 408 l 649 493 q 621 594 649 563 q 550 625 593 625 l 542 625 q 524 630 528 625 q 519 649 519 635 l 519 674 q 493 706 519 706 q 464 674 464 706 l 464 631 q 477 583 464 597 q 521 569 490 569 l 544 569 q 581 556 569 569 q 593 493 593 542 l 593 478 q 581 416 593 431 q 544 401 569 401 l 513 401 q 476 388 488 401 q 464 340 464 374 l 464 299 z "},"E":{"ha":672,"x_min":28,"x_max":644,"o":"m 132 56 q 64 63 86 56 q 35 93 42 71 q 28 160 28 115 l 28 813 q 35 879 28 857 q 64 909 42 901 q 132 917 86 917 l 540 917 q 608 909 586 917 q 638 879 631 901 q 644 813 644 857 l 644 764 q 640 694 644 717 q 616 666 635 672 q 554 660 597 660 l 360 660 q 332 632 332 660 q 360 604 332 604 l 554 604 q 616 598 597 604 q 640 569 635 592 q 644 499 644 547 q 640 429 644 451 q 616 401 635 407 q 554 394 597 394 l 360 394 q 332 367 332 394 q 360 339 332 339 l 554 339 q 616 333 597 339 q 640 305 635 326 q 644 235 644 283 l 644 160 q 638 93 644 115 q 608 63 631 71 q 540 56 586 56 l 132 56 z "},"É":{"ha":672,"x_min":28,"x_max":644,"o":"m 132 56 q 64 63 86 56 q 35 93 42 71 q 28 160 28 115 l 28 813 q 35 879 28 857 q 64 909 42 901 q 132 917 86 917 l 540 917 q 608 909 586 917 q 638 879 631 901 q 644 813 644 857 l 644 764 q 640 694 644 717 q 616 666 635 672 q 554 660 597 660 l 360 660 q 332 632 332 660 q 360 604 332 604 l 554 604 q 616 598 597 604 q 640 569 635 592 q 644 499 644 547 q 640 429 644 451 q 616 401 635 407 q 554 394 597 394 l 360 394 q 332 367 332 394 q 360 339 332 339 l 554 339 q 616 333 597 339 q 640 305 635 326 q 644 235 644 283 l 644 160 q 638 93 644 115 q 608 63 631 71 q 540 56 586 56 l 132 56 m 185 1031 q 203 1078 185 1061 q 272 1118 221 1096 l 368 1158 q 451 1169 428 1183 q 475 1113 475 1156 l 475 1039 q 458 986 475 1000 q 388 972 440 972 l 269 972 q 202 986 219 972 q 185 1031 185 1000 z "},"Ě":{"ha":672,"x_min":28,"x_max":644,"o":"m 132 56 q 64 63 86 56 q 35 93 42 71 q 28 160 28 115 l 28 813 q 35 879 28 857 q 64 909 42 901 q 132 917 86 917 l 540 917 q 608 909 586 917 q 638 879 631 901 q 644 813 644 857 l 644 764 q 640 694 644 717 q 616 666 635 672 q 554 660 597 660 l 360 660 q 332 632 332 660 q 360 604 332 604 l 554 604 q 616 598 597 604 q 640 569 635 592 q 644 499 644 547 q 640 429 644 451 q 616 401 635 407 q 554 394 597 394 l 360 394 q 332 367 332 394 q 360 339 332 339 l 554 339 q 616 333 597 339 q 640 305 635 326 q 644 235 644 283 l 644 160 q 638 93 644 115 q 608 63 631 71 q 540 56 586 56 l 132 56 m 86 1176 q 92 1207 86 1200 q 113 1214 97 1214 l 222 1214 q 287 1197 268 1214 q 306 1131 306 1181 q 333 1092 306 1092 q 361 1131 361 1092 q 380 1197 361 1181 q 444 1214 399 1214 l 554 1214 q 575 1207 569 1214 q 581 1176 581 1200 q 569 1136 581 1149 l 433 996 q 379 972 410 972 l 288 972 q 235 997 258 972 l 100 1135 q 86 1176 86 1150 z "},"Ê":{"ha":672,"x_min":28,"x_max":644,"o":"m 132 56 q 64 63 86 56 q 35 93 42 71 q 28 160 28 115 l 28 813 q 35 879 28 857 q 64 909 42 901 q 132 917 86 917 l 540 917 q 608 909 586 917 q 638 879 631 901 q 644 813 644 857 l 644 764 q 640 694 644 717 q 616 666 635 672 q 554 660 597 660 l 360 660 q 332 632 332 660 q 360 604 332 604 l 554 604 q 616 598 597 604 q 640 569 635 592 q 644 499 644 547 q 640 429 644 451 q 616 401 635 407 q 554 394 597 394 l 360 394 q 332 367 332 394 q 360 339 332 339 l 554 339 q 616 333 597 339 q 640 305 635 326 q 644 235 644 283 l 644 160 q 638 93 644 115 q 608 63 631 71 q 540 56 586 56 l 132 56 m 89 1010 q 100 1050 89 1038 l 236 1190 q 290 1214 260 1214 l 382 1214 q 435 1189 411 1214 l 569 1051 q 583 1010 583 1036 q 578 980 583 988 q 557 972 572 972 l 447 972 q 383 989 401 972 q 364 1056 364 1006 q 336 1094 364 1094 q 308 1056 308 1094 q 290 989 308 1006 q 225 972 271 972 l 115 972 q 94 980 100 972 q 89 1010 89 988 z "},"Ë":{"ha":672,"x_min":28,"x_max":644,"o":"m 132 56 q 64 63 86 56 q 35 93 42 71 q 28 160 28 115 l 28 813 q 35 879 28 857 q 64 909 42 901 q 132 917 86 917 l 540 917 q 608 909 586 917 q 638 879 631 901 q 644 813 644 857 l 644 764 q 640 694 644 717 q 616 666 635 672 q 554 660 597 660 l 360 660 q 332 632 332 660 q 360 604 332 604 l 554 604 q 616 598 597 604 q 640 569 635 592 q 644 499 644 547 q 640 429 644 451 q 616 401 635 407 q 554 394 597 394 l 360 394 q 332 367 332 394 q 360 339 332 339 l 554 339 q 616 333 597 339 q 640 305 635 326 q 644 235 644 283 l 644 160 q 638 93 644 115 q 608 63 631 71 q 540 56 586 56 l 132 56 m 56 1056 q 60 1110 56 1093 q 85 1133 65 1128 q 146 1138 104 1138 l 218 1138 q 280 1133 261 1138 q 303 1110 299 1128 q 308 1056 308 1093 q 303 1001 308 1018 q 280 978 299 983 q 218 972 261 972 l 146 972 q 85 978 104 972 q 60 1001 65 983 q 56 1056 56 1018 m 364 1056 q 369 1110 364 1093 q 393 1133 374 1128 q 454 1138 413 1138 l 526 1138 q 588 1133 569 1138 q 612 1110 607 1128 q 617 1056 617 1093 q 612 1001 617 1018 q 588 978 607 983 q 526 972 569 972 l 454 972 q 393 978 413 972 q 369 1001 374 983 q 364 1056 364 1018 z "},"Ė":{"ha":672,"x_min":28,"x_max":644,"o":"m 132 56 q 64 63 86 56 q 35 93 42 71 q 28 160 28 115 l 28 813 q 35 879 28 857 q 64 909 42 901 q 132 917 86 917 l 540 917 q 608 909 586 917 q 638 879 631 901 q 644 813 644 857 l 644 764 q 640 694 644 717 q 616 666 635 672 q 554 660 597 660 l 360 660 q 332 632 332 660 q 360 604 332 604 l 554 604 q 616 598 597 604 q 640 569 635 592 q 644 499 644 547 q 640 429 644 451 q 616 401 635 407 q 554 394 597 394 l 360 394 q 332 367 332 394 q 360 339 332 339 l 554 339 q 616 333 597 339 q 640 305 635 326 q 644 235 644 283 l 644 160 q 638 93 644 115 q 608 63 631 71 q 540 56 586 56 l 132 56 m 203 1056 q 208 1110 203 1093 q 232 1133 213 1128 q 293 1138 251 1138 l 379 1138 q 441 1133 422 1138 q 465 1110 460 1128 q 469 1056 469 1093 q 465 1001 469 1018 q 441 978 460 983 q 379 972 422 972 l 293 972 q 232 978 251 972 q 208 1001 213 983 q 203 1056 203 1018 z "},"È":{"ha":672,"x_min":28,"x_max":644,"o":"m 132 56 q 64 63 86 56 q 35 93 42 71 q 28 160 28 115 l 28 813 q 35 879 28 857 q 64 909 42 901 q 132 917 86 917 l 540 917 q 608 909 586 917 q 638 879 631 901 q 644 813 644 857 l 644 764 q 640 694 644 717 q 616 666 635 672 q 554 660 597 660 l 360 660 q 332 632 332 660 q 360 604 332 604 l 554 604 q 616 598 597 604 q 640 569 635 592 q 644 499 644 547 q 640 429 644 451 q 616 401 635 407 q 554 394 597 394 l 360 394 q 332 367 332 394 q 360 339 332 339 l 554 339 q 616 333 597 339 q 640 305 635 326 q 644 235 644 283 l 644 160 q 638 93 644 115 q 608 63 631 71 q 540 56 586 56 l 132 56 m 189 1039 l 189 1113 q 213 1169 189 1156 q 296 1158 236 1183 l 392 1118 q 461 1078 443 1096 q 479 1031 479 1061 q 462 986 479 1000 q 394 972 444 972 l 276 972 q 207 986 225 972 q 189 1039 189 1000 z "},"Ē":{"ha":672,"x_min":28,"x_max":644,"o":"m 132 56 q 64 63 86 56 q 35 93 42 71 q 28 160 28 115 l 28 813 q 35 879 28 857 q 64 909 42 901 q 132 917 86 917 l 540 917 q 608 909 586 917 q 638 879 631 901 q 644 813 644 857 l 644 764 q 640 694 644 717 q 616 666 635 672 q 554 660 597 660 l 360 660 q 332 632 332 660 q 360 604 332 604 l 554 604 q 616 598 597 604 q 640 569 635 592 q 644 499 644 547 q 640 429 644 451 q 616 401 635 407 q 554 394 597 394 l 360 394 q 332 367 332 394 q 360 339 332 339 l 554 339 q 616 333 597 339 q 640 305 635 326 q 644 235 644 283 l 644 160 q 638 93 644 115 q 608 63 631 71 q 540 56 586 56 l 132 56 m 140 1056 q 145 1110 140 1093 q 169 1133 150 1128 q 231 1138 189 1138 l 442 1138 q 503 1133 485 1138 q 527 1110 522 1128 q 532 1056 532 1093 q 527 1001 532 1018 q 503 978 522 983 q 442 972 485 972 l 231 972 q 169 978 189 972 q 145 1001 150 983 q 140 1056 140 1018 z "},"Ę":{"ha":672,"x_min":28,"x_max":644,"o":"m 518 -172 q 375 -62 375 -197 l 375 13 q 339 56 375 56 l 132 56 q 64 63 86 56 q 35 93 42 71 q 28 160 28 115 l 28 813 q 35 879 28 857 q 64 909 42 901 q 132 917 86 917 l 540 917 q 608 909 586 917 q 638 879 631 901 q 644 813 644 857 l 644 764 q 640 694 644 717 q 616 666 635 672 q 554 660 597 660 l 360 660 q 332 632 332 660 q 360 604 332 604 l 554 604 q 616 598 597 604 q 640 569 635 592 q 644 499 644 547 q 640 429 644 451 q 616 401 635 407 q 554 394 597 394 l 360 394 q 332 367 332 394 q 360 339 332 339 l 554 339 q 616 333 597 339 q 640 305 635 326 q 644 235 644 283 l 644 160 q 638 93 644 115 q 611 63 632 71 q 549 56 590 56 l 521 56 q 488 28 488 56 q 497 7 488 14 q 528 0 506 0 l 601 0 q 633 -14 624 0 q 643 -79 643 -28 q 631 -138 643 -122 q 592 -160 619 -154 l 518 -172 z "},"Ə":{"ha":772,"x_min":28,"x_max":744,"o":"m 132 56 q 64 63 86 56 q 35 93 42 71 q 28 160 28 115 l 28 232 q 35 302 28 281 q 63 330 42 324 q 125 336 83 336 l 360 336 q 388 364 388 336 q 360 392 388 392 l 125 392 q 63 398 83 392 q 35 426 42 404 q 28 496 28 449 l 28 646 q 90 856 28 796 q 285 917 153 917 l 474 917 q 681 856 617 917 q 744 646 744 796 l 744 326 q 681 117 744 179 q 474 56 618 56 l 132 56 m 350 547 q 379 515 350 515 q 407 547 407 515 l 407 592 q 379 622 407 622 q 350 592 350 622 l 350 547 z "},"F":{"ha":681,"x_min":28,"x_max":653,"o":"m 132 56 q 64 63 86 56 q 35 93 42 71 q 28 160 28 115 l 28 813 q 35 879 28 857 q 64 909 42 901 q 132 917 86 917 l 549 917 q 617 909 594 917 q 646 879 639 901 q 653 813 653 857 l 653 713 q 648 643 653 665 q 624 615 643 621 q 563 608 606 608 l 368 608 q 340 581 340 608 q 368 553 340 553 l 563 553 q 624 547 606 553 q 648 519 643 540 q 653 449 653 497 l 653 392 q 645 325 653 347 q 615 295 638 303 q 549 288 593 288 l 428 288 q 375 238 375 288 l 375 160 q 368 93 375 115 q 339 63 361 71 q 271 56 317 56 l 132 56 z "},"G":{"ha":786,"x_min":28,"x_max":758,"o":"m 299 56 q 90 119 151 56 q 28 326 28 182 l 28 646 q 88 853 28 789 q 299 917 149 917 l 654 917 q 722 909 700 917 q 751 879 744 901 q 758 813 758 857 l 758 754 q 753 685 758 707 q 730 656 749 663 q 668 650 711 650 l 472 650 q 357 613 388 650 q 326 489 326 576 l 326 453 q 358 335 326 369 q 472 301 390 301 l 492 301 q 519 329 519 301 q 492 357 519 357 l 472 357 q 413 363 432 357 q 388 390 393 368 q 382 460 382 413 l 382 489 q 388 560 382 538 q 413 588 393 582 q 472 594 432 594 l 668 594 q 730 588 711 594 q 753 560 749 582 q 758 490 758 539 l 758 146 q 751 89 758 108 q 722 63 744 69 q 654 56 700 56 l 299 56 z "},"Ğ":{"ha":786,"x_min":28,"x_max":758,"o":"m 299 56 q 90 119 151 56 q 28 326 28 182 l 28 646 q 88 853 28 789 q 299 917 149 917 l 654 917 q 722 909 700 917 q 751 879 744 901 q 758 813 758 857 l 758 754 q 753 685 758 707 q 730 656 749 663 q 668 650 711 650 l 472 650 q 357 613 388 650 q 326 489 326 576 l 326 453 q 358 335 326 369 q 472 301 390 301 l 492 301 q 519 329 519 301 q 492 357 519 357 l 472 357 q 413 363 432 357 q 388 390 393 368 q 382 460 382 413 l 382 489 q 388 560 382 538 q 413 588 393 582 q 472 594 432 594 l 668 594 q 730 588 711 594 q 753 560 749 582 q 758 490 758 539 l 758 146 q 751 89 758 108 q 722 63 744 69 q 654 56 700 56 l 299 56 m 154 1163 q 166 1208 154 1199 q 225 1217 178 1217 l 271 1217 q 355 1203 338 1217 q 372 1140 372 1189 l 372 1111 q 400 1081 372 1081 q 428 1111 428 1081 l 428 1140 q 435 1189 428 1172 q 464 1211 442 1206 q 532 1217 486 1217 l 575 1217 q 635 1208 624 1217 q 646 1163 646 1199 q 581 1012 646 1051 q 400 972 515 972 q 219 1012 285 972 q 154 1163 154 1051 z "},"Ģ":{"ha":786,"x_min":28,"x_max":758,"o":"m 299 56 q 90 119 151 56 q 28 326 28 182 l 28 646 q 88 853 28 789 q 299 917 149 917 l 654 917 q 722 909 700 917 q 751 879 744 901 q 758 813 758 857 l 758 754 q 753 685 758 707 q 730 656 749 663 q 668 650 711 650 l 472 650 q 357 613 388 650 q 326 489 326 576 l 326 453 q 358 335 326 369 q 472 301 390 301 l 492 301 q 519 329 519 301 q 492 357 519 357 l 472 357 q 413 363 432 357 q 388 390 393 368 q 382 460 382 413 l 382 489 q 388 560 382 538 q 413 588 393 582 q 472 594 432 594 l 668 594 q 730 588 711 594 q 753 560 749 582 q 758 490 758 539 l 758 146 q 751 89 758 108 q 722 63 744 69 q 654 56 700 56 l 299 56 m 313 -87 q 319 -21 304 -42 q 382 0 335 0 l 439 0 q 501 -21 488 0 q 508 -87 515 -42 l 497 -160 q 473 -217 492 -203 q 414 -231 454 -231 l 407 -231 q 351 -216 367 -231 q 326 -160 335 -201 l 313 -87 z "},"Ġ":{"ha":786,"x_min":28,"x_max":758,"o":"m 299 56 q 90 119 151 56 q 28 326 28 182 l 28 646 q 88 853 28 789 q 299 917 149 917 l 654 917 q 722 909 700 917 q 751 879 744 901 q 758 813 758 857 l 758 754 q 753 685 758 707 q 730 656 749 663 q 668 650 711 650 l 472 650 q 357 613 388 650 q 326 489 326 576 l 326 453 q 358 335 326 369 q 472 301 390 301 l 492 301 q 519 329 519 301 q 492 357 519 357 l 472 357 q 413 363 432 357 q 388 390 393 368 q 382 460 382 413 l 382 489 q 388 560 382 538 q 413 588 393 582 q 472 594 432 594 l 668 594 q 730 588 711 594 q 753 560 749 582 q 758 490 758 539 l 758 146 q 751 89 758 108 q 722 63 744 69 q 654 56 700 56 l 299 56 m 267 1056 q 272 1110 267 1093 q 296 1133 276 1128 q 357 1138 315 1138 l 443 1138 q 505 1133 486 1138 q 528 1110 524 1128 q 533 1056 533 1093 q 528 1001 533 1018 q 505 978 524 983 q 443 972 486 972 l 357 972 q 296 978 315 972 q 272 1001 276 983 q 267 1056 267 1018 z "},"H":{"ha":778,"x_min":28,"x_max":750,"o":"m 132 56 q 64 63 86 56 q 35 93 42 71 q 28 160 28 115 l 28 813 q 35 879 28 857 q 64 909 42 901 q 132 917 86 917 l 257 917 q 325 909 303 917 q 354 879 347 901 q 361 813 361 857 l 361 607 q 389 576 361 576 q 417 607 417 576 l 417 813 q 424 879 417 857 q 453 909 431 901 q 521 917 475 917 l 646 917 q 714 909 692 917 q 743 879 736 901 q 750 813 750 857 l 750 160 q 743 93 750 115 q 714 63 736 71 q 646 56 692 56 l 521 56 q 453 63 475 56 q 424 93 431 71 q 417 160 417 115 l 417 326 q 389 358 417 358 q 361 326 361 358 l 361 160 q 354 93 361 115 q 325 63 347 71 q 257 56 303 56 l 132 56 z "},"Ħ":{"ha":1039,"x_min":28,"x_max":1011,"o":"m 263 56 q 194 63 217 56 q 165 93 172 71 q 158 160 158 115 l 158 465 q 147 513 158 499 q 110 526 135 526 l 76 526 q 40 541 51 526 q 28 603 28 556 l 28 646 q 40 708 28 694 q 76 722 51 722 l 101 722 q 146 736 133 722 q 158 783 158 750 l 158 813 q 165 879 158 857 q 194 909 172 901 q 263 917 217 917 l 388 917 q 456 909 433 917 q 485 879 478 901 q 492 813 492 857 l 492 774 q 519 743 492 743 q 547 774 547 743 l 547 813 q 554 879 547 857 q 583 909 561 901 q 651 917 606 917 l 776 917 q 844 909 822 917 q 874 879 867 901 q 881 813 881 857 l 881 783 q 894 736 881 750 q 938 722 907 722 l 963 722 q 999 708 988 722 q 1011 646 1011 694 l 1011 603 q 999 541 1011 556 q 963 526 988 526 l 929 526 q 892 513 904 526 q 881 465 881 499 l 881 160 q 874 93 881 115 q 844 63 867 71 q 776 56 822 56 l 651 56 q 583 63 606 56 q 554 93 561 71 q 547 160 547 115 l 547 271 q 519 303 547 303 q 492 271 492 303 l 492 160 q 485 93 492 115 q 456 63 478 71 q 388 56 433 56 l 263 56 m 489 464 q 518 432 489 432 q 546 464 546 432 l 546 508 q 518 539 546 539 q 489 508 489 539 l 489 464 z "},"I":{"ha":406,"x_min":28,"x_max":378,"o":"m 119 56 q 48 78 68 56 q 28 153 28 101 l 28 819 q 47 896 28 875 q 119 917 65 917 l 286 917 q 359 896 340 917 q 378 819 378 875 l 378 153 q 354 78 378 101 q 286 56 331 56 l 119 56 z "},"Ĳ":{"ha":1156,"x_min":28,"x_max":1128,"o":"m 119 56 q 48 78 68 56 q 28 153 28 101 l 28 819 q 47 896 28 875 q 119 917 65 917 l 286 917 q 359 896 340 917 q 378 819 378 875 l 378 153 q 354 78 378 101 q 286 56 331 56 l 119 56 m 433 326 l 433 507 q 440 574 433 551 q 469 603 447 596 q 538 611 492 611 l 635 611 q 703 603 681 611 q 732 574 725 596 q 739 507 739 551 l 739 288 q 767 257 739 257 q 794 288 794 257 l 794 813 q 801 879 794 857 q 831 909 808 901 q 899 917 853 917 l 1024 917 q 1092 909 1069 917 q 1121 879 1114 901 q 1128 813 1128 857 l 1128 326 q 1101 158 1128 217 q 1015 78 1075 100 q 857 56 956 56 l 704 56 q 545 81 604 56 q 460 165 486 106 q 433 326 433 225 z "},"Í":{"ha":406,"x_min":28,"x_max":378,"o":"m 119 56 q 48 78 68 56 q 28 153 28 101 l 28 819 q 47 896 28 875 q 119 917 65 917 l 286 917 q 359 896 340 917 q 378 819 378 875 l 378 153 q 354 78 378 101 q 286 56 331 56 l 119 56 m 56 1040 q 75 1099 56 1081 q 150 1131 94 1117 l 224 1150 q 318 1154 293 1169 q 343 1090 343 1139 l 343 1053 q 322 988 343 1003 q 238 972 300 972 l 151 972 q 76 987 96 972 q 56 1040 56 1001 z "},"Î":{"ha":406,"x_min":28,"x_max":378,"o":"m 119 56 q 48 78 68 56 q 28 153 28 101 l 28 819 q 47 896 28 875 q 119 917 65 917 l 286 917 q 359 896 340 917 q 378 819 378 875 l 378 153 q 354 78 378 101 q 286 56 331 56 l 119 56 m 58 1007 q 61 1040 58 1026 q 74 1072 64 1054 l 128 1182 q 148 1207 136 1200 q 186 1214 160 1214 l 217 1214 q 255 1207 244 1214 q 275 1182 265 1200 l 332 1071 q 342 1040 340 1054 q 344 1007 344 1026 q 338 979 344 986 q 314 972 332 972 l 286 972 q 244 980 260 972 q 229 1028 229 988 q 201 1067 229 1067 q 174 1028 174 1067 q 158 981 174 989 q 117 972 143 972 l 89 972 q 65 979 71 972 q 58 1007 58 986 z "},"Ï":{"ha":406,"x_min":28,"x_max":378,"o":"m 119 56 q 48 78 68 56 q 28 153 28 101 l 28 819 q 47 896 28 875 q 119 917 65 917 l 286 917 q 359 896 340 917 q 378 819 378 875 l 378 153 q 354 78 378 101 q 286 56 331 56 l 119 56 m 54 1054 q 63 1123 54 1110 q 111 1136 72 1136 l 114 1136 q 164 1123 154 1136 q 174 1054 174 1110 q 164 985 174 999 q 114 971 154 971 l 111 971 q 63 985 72 971 q 54 1054 54 999 m 229 1054 q 239 1123 229 1110 q 289 1136 249 1136 l 292 1136 q 340 1123 331 1136 q 349 1054 349 1110 q 340 985 349 999 q 292 971 331 971 l 289 971 q 239 985 249 971 q 229 1054 229 999 z "},"İ":{"ha":406,"x_min":28,"x_max":378,"o":"m 119 56 q 48 78 68 56 q 28 153 28 101 l 28 819 q 47 896 28 875 q 119 917 65 917 l 286 917 q 359 896 340 917 q 378 819 378 875 l 378 153 q 354 78 378 101 q 286 56 331 56 l 119 56 m 69 1056 q 74 1110 69 1093 q 99 1133 79 1128 q 160 1138 118 1138 l 246 1138 q 308 1133 289 1138 q 331 1110 326 1128 q 336 1056 336 1093 q 331 1001 336 1018 q 308 978 326 983 q 246 972 289 972 l 160 972 q 99 978 118 972 q 74 1001 79 983 q 69 1056 69 1018 z "},"Ì":{"ha":406,"x_min":28,"x_max":378,"o":"m 119 56 q 48 78 68 56 q 28 153 28 101 l 28 819 q 47 896 28 875 q 119 917 65 917 l 286 917 q 359 896 340 917 q 378 819 378 875 l 378 153 q 354 78 378 101 q 286 56 331 56 l 119 56 m 56 1053 l 56 1090 q 81 1154 56 1139 q 175 1150 106 1169 l 249 1131 q 324 1099 306 1117 q 343 1040 343 1081 q 323 987 343 1001 q 247 972 303 972 l 161 972 q 77 988 99 972 q 56 1053 56 1003 z "},"Ī":{"ha":406,"x_min":7,"x_max":399,"o":"m 119 56 q 48 78 68 56 q 28 153 28 101 l 28 819 q 47 896 28 875 q 119 917 65 917 l 286 917 q 359 896 340 917 q 378 819 378 875 l 378 153 q 354 78 378 101 q 286 56 331 56 l 119 56 m 7 1056 q 12 1110 7 1093 q 36 1133 17 1128 q 97 1138 56 1138 l 308 1138 q 370 1133 351 1138 q 394 1110 389 1128 q 399 1056 399 1093 q 394 1001 399 1018 q 370 978 389 983 q 308 972 351 972 l 97 972 q 36 978 56 972 q 12 1001 17 983 q 7 1056 7 1018 z "},"Į":{"ha":406,"x_min":28,"x_max":378,"o":"m 239 -175 q 142 -167 174 -186 q 110 -89 110 -149 l 110 13 q 74 56 110 56 q 40 76 51 57 q 28 153 28 96 l 28 819 q 47 896 28 875 q 119 917 65 917 l 286 917 q 359 896 340 917 q 378 819 378 875 l 378 153 q 354 78 378 101 q 290 56 331 56 l 256 56 q 222 28 222 56 q 231 7 222 14 q 263 0 240 0 l 336 0 q 368 -14 358 0 q 378 -79 378 -28 q 366 -138 378 -122 q 326 -160 354 -154 l 239 -175 z "},"J":{"ha":750,"x_min":28,"x_max":722,"o":"m 299 56 q 140 81 199 56 q 54 165 81 106 q 28 326 28 225 l 28 507 q 35 574 28 551 q 64 603 42 596 q 132 611 86 611 l 229 611 q 297 603 275 611 q 326 574 319 596 q 333 507 333 551 l 333 288 q 361 257 333 257 q 389 288 389 257 l 389 813 q 396 879 389 857 q 425 909 403 901 q 493 917 447 917 l 618 917 q 686 909 664 917 q 715 879 708 901 q 722 813 722 857 l 722 326 q 696 158 722 217 q 610 78 669 100 q 451 56 550 56 l 299 56 z "},"K":{"ha":764,"x_min":28,"x_max":736,"o":"m 132 56 q 64 63 86 56 q 35 93 42 71 q 28 160 28 115 l 28 813 q 35 879 28 857 q 64 909 42 901 q 132 917 86 917 l 257 917 q 325 909 303 917 q 354 879 347 901 q 361 813 361 857 l 361 579 q 389 549 361 549 q 417 579 417 549 l 417 813 q 424 879 417 857 q 453 909 431 901 q 521 917 475 917 l 632 917 q 700 909 678 917 q 729 879 722 901 q 736 813 736 857 l 736 671 q 731 601 736 624 q 708 573 726 579 q 646 567 689 567 l 597 567 q 567 539 567 567 q 597 511 567 511 l 646 511 q 708 505 689 511 q 731 477 726 499 q 736 407 736 456 l 736 160 q 729 93 736 115 q 700 63 722 71 q 632 56 678 56 l 521 56 q 453 63 475 56 q 424 93 431 71 q 417 160 417 115 l 417 321 q 389 351 417 351 q 361 321 361 351 l 361 160 q 354 93 361 115 q 325 63 347 71 q 257 56 303 56 l 132 56 z "},"Ķ":{"ha":764,"x_min":28,"x_max":736,"o":"m 132 56 q 64 63 86 56 q 35 93 42 71 q 28 160 28 115 l 28 813 q 35 879 28 857 q 64 909 42 901 q 132 917 86 917 l 257 917 q 325 909 303 917 q 354 879 347 901 q 361 813 361 857 l 361 579 q 389 549 361 549 q 417 579 417 549 l 417 813 q 424 879 417 857 q 453 909 431 901 q 521 917 475 917 l 632 917 q 700 909 678 917 q 729 879 722 901 q 736 813 736 857 l 736 671 q 731 601 736 624 q 708 573 726 579 q 646 567 689 567 l 597 567 q 567 539 567 567 q 597 511 567 511 l 646 511 q 708 505 689 511 q 731 477 726 499 q 736 407 736 456 l 736 160 q 729 93 736 115 q 700 63 722 71 q 632 56 678 56 l 521 56 q 453 63 475 56 q 424 93 431 71 q 417 160 417 115 l 417 321 q 389 351 417 351 q 361 321 361 351 l 361 160 q 354 93 361 115 q 325 63 347 71 q 257 56 303 56 l 132 56 m 289 -87 q 296 -21 281 -42 q 358 0 311 0 l 415 0 q 478 -21 464 0 q 485 -87 492 -42 l 474 -160 q 449 -217 468 -203 q 390 -231 431 -231 l 383 -231 q 327 -216 343 -231 q 303 -160 311 -201 l 289 -87 z "},"L":{"ha":750,"x_min":28,"x_max":722,"o":"m 132 56 q 64 63 86 56 q 35 93 42 71 q 28 160 28 115 l 28 813 q 35 879 28 857 q 64 909 42 901 q 132 917 86 917 l 257 917 q 325 909 303 917 q 354 879 347 901 q 361 813 361 857 l 361 315 q 389 285 361 285 q 417 315 417 285 l 417 507 q 424 574 417 551 q 453 603 431 596 q 521 611 475 611 l 618 611 q 686 603 664 611 q 715 574 708 596 q 722 507 722 551 l 722 160 q 715 93 722 115 q 686 63 708 71 q 618 56 664 56 l 132 56 z "},"Ĺ":{"ha":750,"x_min":28,"x_max":722,"o":"m 132 56 q 64 63 86 56 q 35 93 42 71 q 28 160 28 115 l 28 813 q 35 879 28 857 q 64 909 42 901 q 132 917 86 917 l 257 917 q 325 909 303 917 q 354 879 347 901 q 361 813 361 857 l 361 315 q 389 285 361 285 q 417 315 417 285 l 417 507 q 424 574 417 551 q 453 603 431 596 q 521 611 475 611 l 618 611 q 686 603 664 611 q 715 574 708 596 q 722 507 722 551 l 722 160 q 715 93 722 115 q 686 63 708 71 q 618 56 664 56 l 132 56 m 44 1031 q 63 1078 44 1061 q 132 1118 81 1096 l 228 1158 q 311 1169 288 1183 q 335 1113 335 1156 l 335 1039 q 317 986 335 1000 q 247 972 300 972 l 129 972 q 62 986 79 972 q 44 1031 44 1000 z "},"Ľ":{"ha":750,"x_min":28,"x_max":722,"o":"m 132 56 q 64 63 86 56 q 35 93 42 71 q 28 160 28 115 l 28 813 q 35 879 28 857 q 64 909 42 901 q 132 917 86 917 l 257 917 q 325 909 303 917 q 354 879 347 901 q 361 813 361 857 l 361 315 q 389 285 361 285 q 417 315 417 285 l 417 507 q 424 574 417 551 q 453 603 431 596 q 521 611 475 611 l 618 611 q 686 603 664 611 q 715 574 708 596 q 722 507 722 551 l 722 160 q 715 93 722 115 q 686 63 708 71 q 618 56 664 56 l 132 56 m 422 879 q 431 973 414 951 q 513 994 449 994 l 542 994 q 623 973 606 994 q 632 879 640 951 l 621 779 q 607 706 615 731 q 583 674 599 682 q 539 667 567 667 l 517 667 q 472 674 489 667 q 447 706 456 682 q 433 779 439 731 l 422 879 z "},"Ļ":{"ha":750,"x_min":28,"x_max":722,"o":"m 132 56 q 64 63 86 56 q 35 93 42 71 q 28 160 28 115 l 28 813 q 35 879 28 857 q 64 909 42 901 q 132 917 86 917 l 257 917 q 325 909 303 917 q 354 879 347 901 q 361 813 361 857 l 361 315 q 389 285 361 285 q 417 315 417 285 l 417 507 q 424 574 417 551 q 453 603 431 596 q 521 611 475 611 l 618 611 q 686 603 664 611 q 715 574 708 596 q 722 507 722 551 l 722 160 q 715 93 722 115 q 686 63 708 71 q 618 56 664 56 l 132 56 m 276 -87 q 283 -21 268 -42 q 346 0 299 0 l 403 0 q 465 -21 451 0 q 472 -87 479 -42 l 461 -160 q 437 -217 456 -203 q 378 -231 418 -231 l 371 -231 q 315 -216 331 -231 q 290 -160 299 -201 l 276 -87 z "},"Ł":{"ha":882,"x_min":28,"x_max":854,"o":"m 292 56 q 224 63 246 56 q 194 93 201 71 q 188 160 188 115 l 188 376 q 133 421 188 432 l 111 417 q 47 418 65 408 q 28 467 28 428 l 28 543 q 42 606 28 588 q 111 636 56 624 l 156 646 q 188 685 188 653 l 188 813 q 194 879 188 857 q 224 909 201 901 q 292 917 246 917 l 417 917 q 485 908 463 917 q 514 863 507 899 q 521 743 521 826 q 558 721 521 715 l 611 731 q 677 727 660 739 q 694 671 694 715 l 694 601 q 675 539 694 558 q 597 508 656 519 l 554 500 q 521 461 521 494 l 521 315 q 549 285 521 285 q 576 315 576 285 l 576 340 q 583 407 576 385 q 613 437 590 429 q 681 444 635 444 l 750 444 q 818 437 796 444 q 847 407 840 429 q 854 340 854 385 l 854 160 q 847 93 854 115 q 817 63 839 71 q 750 56 794 56 l 292 56 z "},"M":{"ha":944,"x_min":28,"x_max":917,"o":"m 132 56 q 64 63 86 56 q 35 93 42 71 q 28 160 28 115 l 28 813 q 35 879 28 857 q 64 909 42 901 q 132 917 86 917 l 340 917 q 408 909 386 917 q 438 879 431 901 q 444 813 444 857 l 444 704 q 472 674 444 674 q 500 704 500 674 l 500 813 q 507 879 500 857 q 536 909 514 901 q 604 917 558 917 l 813 917 q 881 909 858 917 q 910 879 903 901 q 917 813 917 857 l 917 160 q 910 93 917 115 q 881 63 903 71 q 813 56 858 56 l 757 56 q 689 63 711 56 q 660 93 667 71 q 653 160 653 115 l 653 439 q 625 469 653 469 q 597 439 597 469 l 597 160 q 590 93 597 115 q 561 63 583 71 q 493 56 539 56 l 451 56 q 383 63 406 56 q 354 93 361 71 q 347 160 347 115 l 347 439 q 319 469 347 469 q 292 439 292 469 l 292 160 q 285 93 292 115 q 256 63 278 71 q 188 56 233 56 l 132 56 z "},"N":{"ha":889,"x_min":28,"x_max":861,"o":"m 132 56 q 64 63 86 56 q 35 93 42 71 q 28 160 28 115 l 28 813 q 35 879 28 857 q 64 909 42 901 q 132 917 86 917 l 424 917 q 492 909 469 917 q 521 879 514 901 q 528 813 528 857 l 528 385 q 556 354 528 354 q 583 385 583 354 l 583 813 q 590 879 583 857 q 619 909 597 901 q 688 917 642 917 l 757 917 q 825 909 803 917 q 854 879 847 901 q 861 813 861 857 l 861 160 q 854 93 861 115 q 825 63 847 71 q 757 56 803 56 l 438 56 q 369 63 392 56 q 340 93 347 71 q 333 160 333 115 l 333 564 q 306 594 333 594 q 278 564 278 594 l 278 160 q 271 93 278 115 q 242 63 264 71 q 174 56 219 56 l 132 56 z "},"Ń":{"ha":889,"x_min":28,"x_max":861,"o":"m 132 56 q 64 63 86 56 q 35 93 42 71 q 28 160 28 115 l 28 813 q 35 879 28 857 q 64 909 42 901 q 132 917 86 917 l 424 917 q 492 909 469 917 q 521 879 514 901 q 528 813 528 857 l 528 385 q 556 354 528 354 q 583 385 583 354 l 583 813 q 590 879 583 857 q 619 909 597 901 q 688 917 642 917 l 757 917 q 825 909 803 917 q 854 879 847 901 q 861 813 861 857 l 861 160 q 854 93 861 115 q 825 63 847 71 q 757 56 803 56 l 438 56 q 369 63 392 56 q 340 93 347 71 q 333 160 333 115 l 333 564 q 306 594 333 594 q 278 564 278 594 l 278 160 q 271 93 278 115 q 242 63 264 71 q 174 56 219 56 l 132 56 m 300 1031 q 318 1078 300 1061 q 388 1118 336 1096 l 483 1158 q 567 1169 543 1183 q 590 1113 590 1156 l 590 1039 q 573 986 590 1000 q 503 972 556 972 l 385 972 q 317 986 335 972 q 300 1031 300 1000 z "},"Ň":{"ha":889,"x_min":28,"x_max":861,"o":"m 132 56 q 64 63 86 56 q 35 93 42 71 q 28 160 28 115 l 28 813 q 35 879 28 857 q 64 909 42 901 q 132 917 86 917 l 424 917 q 492 909 469 917 q 521 879 514 901 q 528 813 528 857 l 528 385 q 556 354 528 354 q 583 385 583 354 l 583 813 q 590 879 583 857 q 619 909 597 901 q 688 917 642 917 l 757 917 q 825 909 803 917 q 854 879 847 901 q 861 813 861 857 l 861 160 q 854 93 861 115 q 825 63 847 71 q 757 56 803 56 l 438 56 q 369 63 392 56 q 340 93 347 71 q 333 160 333 115 l 333 564 q 306 594 333 594 q 278 564 278 594 l 278 160 q 271 93 278 115 q 242 63 264 71 q 174 56 219 56 l 132 56 m 201 1176 q 207 1207 201 1200 q 228 1214 213 1214 l 338 1214 q 402 1197 383 1214 q 421 1131 421 1181 q 449 1092 421 1092 q 476 1131 476 1092 q 495 1197 476 1181 q 560 1214 514 1214 l 669 1214 q 690 1207 685 1214 q 696 1176 696 1200 q 685 1136 696 1149 l 549 996 q 494 972 525 972 l 403 972 q 350 997 374 972 l 215 1135 q 201 1176 201 1150 z "},"Ņ":{"ha":889,"x_min":28,"x_max":861,"o":"m 132 56 q 64 63 86 56 q 35 93 42 71 q 28 160 28 115 l 28 813 q 35 879 28 857 q 64 909 42 901 q 132 917 86 917 l 424 917 q 492 909 469 917 q 521 879 514 901 q 528 813 528 857 l 528 385 q 556 354 528 354 q 583 385 583 354 l 583 813 q 590 879 583 857 q 619 909 597 901 q 688 917 642 917 l 757 917 q 825 909 803 917 q 854 879 847 901 q 861 813 861 857 l 861 160 q 854 93 861 115 q 825 63 847 71 q 757 56 803 56 l 438 56 q 369 63 392 56 q 340 93 347 71 q 333 160 333 115 l 333 564 q 306 594 333 594 q 278 564 278 594 l 278 160 q 271 93 278 115 q 242 63 264 71 q 174 56 219 56 l 132 56 m 346 -87 q 353 -21 338 -42 q 415 0 368 0 l 472 0 q 535 -21 521 0 q 542 -87 549 -42 l 531 -160 q 506 -217 525 -203 q 447 -231 488 -231 l 440 -231 q 384 -216 400 -231 q 360 -160 368 -201 l 346 -87 z "},"Ñ":{"ha":889,"x_min":28,"x_max":861,"o":"m 132 56 q 64 63 86 56 q 35 93 42 71 q 28 160 28 115 l 28 813 q 35 879 28 857 q 64 909 42 901 q 132 917 86 917 l 424 917 q 492 909 469 917 q 521 879 514 901 q 528 813 528 857 l 528 385 q 556 354 528 354 q 583 385 583 354 l 583 813 q 590 879 583 857 q 619 909 597 901 q 688 917 642 917 l 757 917 q 825 909 803 917 q 854 879 847 901 q 861 813 861 857 l 861 160 q 854 93 861 115 q 825 63 847 71 q 757 56 803 56 l 438 56 q 369 63 392 56 q 340 93 347 71 q 333 160 333 115 l 333 564 q 306 594 333 594 q 278 564 278 594 l 278 160 q 271 93 278 115 q 242 63 264 71 q 174 56 219 56 l 132 56 m 171 1143 q 176 1200 171 1182 q 198 1223 181 1218 q 253 1228 215 1228 q 299 1222 283 1228 q 321 1197 315 1217 q 326 1135 326 1178 q 333 1100 326 1108 q 354 1092 340 1092 q 376 1100 369 1092 q 382 1135 382 1108 q 394 1196 382 1176 q 442 1222 406 1215 q 549 1229 478 1229 q 660 1215 621 1229 q 716 1165 700 1201 q 732 1058 732 1128 q 727 1001 732 1019 q 706 978 722 983 q 650 974 689 974 q 603 979 619 974 q 582 1005 588 985 q 576 1067 576 1025 q 570 1101 576 1093 q 549 1110 564 1110 q 528 1101 535 1110 q 521 1067 521 1093 q 509 1006 521 1026 q 462 980 497 986 q 354 972 426 974 q 243 986 283 972 q 187 1038 203 1000 q 171 1143 171 1075 z "},"O":{"ha":788,"x_min":28,"x_max":760,"o":"m 299 56 q 142 81 201 56 q 55 165 82 106 q 28 326 28 225 l 28 646 q 91 856 28 796 q 299 917 154 917 l 489 917 q 697 856 633 917 q 760 646 760 796 l 760 326 q 733 165 760 225 q 647 81 706 106 q 489 56 588 56 l 299 56 m 365 322 q 394 293 365 293 q 422 322 422 293 l 422 647 q 394 678 422 678 q 365 647 365 678 l 365 322 z "},"Ó":{"ha":788,"x_min":28,"x_max":760,"o":"m 299 56 q 142 81 201 56 q 55 165 82 106 q 28 326 28 225 l 28 646 q 91 856 28 796 q 299 917 154 917 l 489 917 q 697 856 633 917 q 760 646 760 796 l 760 326 q 733 165 760 225 q 647 81 706 106 q 489 56 588 56 l 299 56 m 243 1031 q 261 1078 243 1061 q 331 1118 279 1096 l 426 1158 q 510 1169 486 1183 q 533 1113 533 1156 l 533 1039 q 516 986 533 1000 q 446 972 499 972 l 328 972 q 260 986 278 972 q 243 1031 243 1000 m 365 322 q 394 293 365 293 q 422 322 422 293 l 422 647 q 394 678 422 678 q 365 647 365 678 l 365 322 z "},"Ô":{"ha":788,"x_min":28,"x_max":760,"o":"m 299 56 q 142 81 201 56 q 55 165 82 106 q 28 326 28 225 l 28 646 q 91 856 28 796 q 299 917 154 917 l 489 917 q 697 856 633 917 q 760 646 760 796 l 760 326 q 733 165 760 225 q 647 81 706 106 q 489 56 588 56 l 299 56 m 147 1010 q 158 1050 147 1038 l 294 1190 q 349 1214 318 1214 l 440 1214 q 493 1189 469 1214 l 628 1051 q 642 1010 642 1036 q 636 980 642 988 q 615 972 631 972 l 506 972 q 441 989 460 972 q 422 1056 422 1006 q 394 1094 422 1094 q 367 1056 367 1094 q 348 989 367 1006 q 283 972 329 972 l 174 972 q 153 980 158 972 q 147 1010 147 988 m 365 322 q 394 293 365 293 q 422 322 422 293 l 422 647 q 394 678 422 678 q 365 647 365 678 l 365 322 z "},"Ö":{"ha":788,"x_min":28,"x_max":760,"o":"m 299 56 q 142 81 201 56 q 55 165 82 106 q 28 326 28 225 l 28 646 q 91 856 28 796 q 299 917 154 917 l 489 917 q 697 856 633 917 q 760 646 760 796 l 760 326 q 733 165 760 225 q 647 81 706 106 q 489 56 588 56 l 299 56 m 114 1056 q 119 1110 114 1093 q 143 1133 124 1128 q 204 1138 163 1138 l 276 1138 q 338 1133 319 1138 q 362 1110 357 1128 q 367 1056 367 1093 q 362 1001 367 1018 q 338 978 357 983 q 276 972 319 972 l 204 972 q 143 978 163 972 q 119 1001 124 983 q 114 1056 114 1018 m 365 322 q 394 293 365 293 q 422 322 422 293 l 422 647 q 394 678 422 678 q 365 647 365 678 l 365 322 m 422 1056 q 427 1110 422 1093 q 451 1133 432 1128 q 513 1138 471 1138 l 585 1138 q 647 1133 628 1138 q 670 1110 665 1128 q 675 1056 675 1093 q 670 1001 675 1018 q 647 978 665 983 q 585 972 628 972 l 513 972 q 451 978 471 972 q 427 1001 432 983 q 422 1056 422 1018 z "},"Ò":{"ha":788,"x_min":28,"x_max":760,"o":"m 299 56 q 142 81 201 56 q 55 165 82 106 q 28 326 28 225 l 28 646 q 91 856 28 796 q 299 917 154 917 l 489 917 q 697 856 633 917 q 760 646 760 796 l 760 326 q 733 165 760 225 q 647 81 706 106 q 489 56 588 56 l 299 56 m 247 1039 l 247 1113 q 271 1169 247 1156 q 354 1158 294 1183 l 450 1118 q 519 1078 501 1096 q 538 1031 538 1061 q 520 986 538 1000 q 453 972 503 972 l 335 972 q 265 986 283 972 q 247 1039 247 1000 m 365 322 q 394 293 365 293 q 422 322 422 293 l 422 647 q 394 678 422 678 q 365 647 365 678 l 365 322 z "},"Ő":{"ha":788,"x_min":28,"x_max":760,"o":"m 299 56 q 142 81 201 56 q 55 165 82 106 q 28 326 28 225 l 28 646 q 91 856 28 796 q 299 917 154 917 l 489 917 q 697 856 633 917 q 760 646 760 796 l 760 326 q 733 165 760 225 q 647 81 706 106 q 489 56 588 56 l 299 56 m 83 1031 q 101 1084 83 1067 q 169 1122 118 1101 l 250 1154 q 338 1162 310 1178 q 365 1097 365 1146 l 365 1053 q 344 988 365 1003 q 250 972 324 972 l 196 972 q 104 986 125 972 q 83 1031 83 1000 m 365 322 q 394 293 365 293 q 422 322 422 293 l 422 647 q 394 678 422 678 q 365 647 365 678 l 365 322 m 421 1031 q 439 1082 421 1065 q 508 1118 457 1099 l 589 1150 q 676 1160 650 1174 q 703 1097 703 1146 l 703 1053 q 682 988 703 1003 q 588 972 661 972 l 533 972 q 442 986 463 972 q 421 1031 421 1000 z "},"Ō":{"ha":788,"x_min":28,"x_max":760,"o":"m 299 56 q 142 81 201 56 q 55 165 82 106 q 28 326 28 225 l 28 646 q 91 856 28 796 q 299 917 154 917 l 489 917 q 697 856 633 917 q 760 646 760 796 l 760 326 q 733 165 760 225 q 647 81 706 106 q 489 56 588 56 l 299 56 m 199 1056 q 203 1110 199 1093 q 228 1133 208 1128 q 289 1138 247 1138 l 500 1138 q 562 1133 543 1138 q 585 1110 581 1128 q 590 1056 590 1093 q 585 1001 590 1018 q 562 978 581 983 q 500 972 543 972 l 289 972 q 228 978 247 972 q 203 1001 208 983 q 199 1056 199 1018 m 365 322 q 394 293 365 293 q 422 322 422 293 l 422 647 q 394 678 422 678 q 365 647 365 678 l 365 322 z "},"Ø":{"ha":801,"x_min":28,"x_max":774,"o":"m 156 -71 q 102 -55 114 -71 q 103 0 90 -39 l 114 36 q 117 64 119 56 q 104 81 115 72 q 49 166 69 108 q 28 325 28 224 l 28 646 q 53 809 28 750 q 135 892 79 868 q 278 917 190 917 l 393 917 q 416 922 408 917 q 429 943 424 928 l 432 951 q 465 1024 450 1006 q 519 1042 479 1042 l 650 1042 q 698 1022 688 1042 q 694 958 708 1003 l 688 935 q 685 908 682 917 q 697 890 688 899 q 753 805 733 863 q 774 646 774 747 l 774 325 q 748 163 774 222 q 667 78 722 103 q 524 54 613 54 l 408 54 q 385 49 393 54 q 372 28 376 43 l 367 6 q 339 -55 356 -39 q 282 -71 322 -71 l 156 -71 m 372 311 q 400 279 372 279 q 429 311 429 279 l 429 368 q 400 400 429 400 q 372 368 372 400 l 372 311 m 372 603 q 401 571 372 571 q 429 603 429 571 l 429 660 q 401 692 429 692 q 372 660 372 692 l 372 603 z "},"Õ":{"ha":788,"x_min":28,"x_max":760,"o":"m 299 56 q 142 81 201 56 q 55 165 82 106 q 28 326 28 225 l 28 646 q 91 856 28 796 q 299 917 154 917 l 489 917 q 697 856 633 917 q 760 646 760 796 l 760 326 q 733 165 760 225 q 647 81 706 106 q 489 56 588 56 l 299 56 m 114 1143 q 119 1200 114 1182 q 141 1223 124 1218 q 196 1228 158 1228 q 242 1222 226 1228 q 264 1197 258 1217 q 269 1135 269 1178 q 276 1100 269 1108 q 297 1092 283 1092 q 319 1100 313 1092 q 325 1135 325 1108 q 337 1196 325 1176 q 385 1222 349 1215 q 492 1229 421 1229 q 603 1215 564 1229 q 659 1165 643 1201 q 675 1058 675 1128 q 670 1001 675 1019 q 649 978 665 983 q 593 974 632 974 q 547 979 563 974 q 525 1005 531 985 q 519 1067 519 1025 q 513 1101 519 1093 q 492 1110 507 1110 q 471 1101 478 1110 q 464 1067 464 1093 q 452 1006 464 1026 q 405 980 440 986 q 297 972 369 974 q 186 986 226 972 q 130 1038 146 1000 q 114 1143 114 1075 m 365 322 q 394 293 365 293 q 422 322 422 293 l 422 647 q 394 678 422 678 q 365 647 365 678 l 365 322 z "},"Œ":{"ha":1061,"x_min":28,"x_max":1033,"o":"m 313 56 q 92 117 157 56 q 28 326 28 179 l 28 646 q 94 856 28 796 q 313 917 160 917 l 929 917 q 997 909 975 917 q 1026 879 1019 901 q 1033 813 1033 857 l 1033 764 q 1028 694 1033 717 q 1005 666 1024 672 q 943 660 986 660 l 790 660 q 763 632 763 660 q 790 604 763 604 l 943 604 q 1005 598 986 604 q 1028 569 1024 592 q 1033 499 1033 547 q 1028 429 1033 451 q 1005 401 1024 407 q 943 394 986 394 l 790 394 q 763 367 763 394 q 790 339 763 339 l 943 339 q 1005 333 986 339 q 1028 305 1024 326 q 1033 235 1033 283 l 1033 160 q 1026 93 1033 115 q 997 63 1019 71 q 929 56 975 56 l 313 56 m 365 350 q 394 321 365 321 q 422 350 422 321 l 422 619 q 394 650 422 650 q 365 619 365 650 l 365 350 z "},"P":{"ha":736,"x_min":28,"x_max":708,"o":"m 132 56 q 64 63 86 56 q 35 93 42 71 q 28 160 28 115 l 28 813 q 35 879 28 857 q 64 909 42 901 q 132 917 86 917 l 438 917 q 643 853 578 917 q 708 646 708 789 l 708 392 q 701 325 708 347 q 672 295 694 303 q 604 288 650 288 l 422 288 q 375 243 375 288 l 375 160 q 368 93 375 115 q 339 63 361 71 q 271 56 317 56 l 132 56 m 350 517 q 358 496 350 504 q 379 488 367 488 q 407 517 407 488 l 407 676 q 379 706 407 706 q 350 676 350 706 l 350 517 z "},"Þ":{"ha":764,"x_min":28,"x_max":736,"o":"m 132 56 q 64 63 86 56 q 35 93 42 71 q 28 160 28 115 l 28 947 q 35 1014 28 992 q 64 1044 42 1036 q 132 1051 86 1051 l 271 1051 q 339 1044 317 1051 q 368 1014 361 1036 q 375 947 375 992 l 375 878 q 422 833 375 833 l 507 833 q 736 576 736 833 l 736 544 q 507 288 736 288 l 422 288 q 375 243 375 288 l 375 160 q 368 93 375 115 q 339 63 361 71 q 271 56 317 56 l 132 56 m 350 489 q 358 468 350 476 q 379 460 367 460 q 407 489 407 460 l 407 632 q 379 661 407 661 q 358 653 367 661 q 350 632 350 644 l 350 489 z "},"Q":{"ha":788,"x_min":28,"x_max":760,"o":"m 517 -83 q 448 -77 471 -83 q 417 -53 425 -71 q 410 0 410 -35 l 410 6 q 399 44 410 33 q 363 54 389 54 l 299 54 q 92 122 156 54 q 28 326 28 189 l 28 646 q 92 851 28 786 q 299 917 157 917 l 489 917 q 696 850 632 917 q 760 646 760 783 l 760 338 q 755 268 760 290 q 731 240 750 246 q 669 233 713 233 l 590 233 q 558 206 558 233 q 590 178 558 178 l 669 178 q 731 172 713 178 q 755 144 750 165 q 760 74 760 122 l 760 -7 q 742 -68 760 -53 q 656 -83 725 -83 l 517 -83 m 364 364 q 393 335 364 335 q 421 364 421 335 l 421 649 q 393 678 421 678 q 364 649 364 678 l 364 364 z "},"R":{"ha":778,"x_min":28,"x_max":750,"o":"m 132 56 q 64 63 86 56 q 35 92 42 69 q 28 160 28 114 l 28 813 q 35 879 28 857 q 64 909 42 901 q 132 917 86 917 l 479 917 q 687 853 624 917 q 750 646 750 789 l 750 615 q 745 546 750 568 q 722 517 740 524 q 660 511 703 511 l 593 511 q 563 483 563 511 q 593 456 563 456 l 660 456 q 722 449 703 456 q 745 422 740 443 q 750 351 750 400 l 750 160 q 743 92 750 114 q 714 63 736 69 q 646 56 692 56 l 521 56 q 453 63 475 56 q 424 92 431 69 q 417 160 417 114 l 417 300 q 389 331 417 331 q 361 300 361 331 l 361 160 q 354 92 361 114 q 325 63 347 69 q 257 56 303 56 l 132 56 m 364 506 q 393 474 364 474 q 421 506 421 474 l 421 646 q 393 678 421 678 q 364 646 364 678 l 364 506 z "},"Ŕ":{"ha":778,"x_min":28,"x_max":750,"o":"m 132 56 q 64 63 86 56 q 35 92 42 69 q 28 160 28 114 l 28 813 q 35 879 28 857 q 64 909 42 901 q 132 917 86 917 l 479 917 q 687 853 624 917 q 750 646 750 789 l 750 615 q 745 546 750 568 q 722 517 740 524 q 660 511 703 511 l 593 511 q 563 483 563 511 q 593 456 563 456 l 660 456 q 722 449 703 456 q 745 422 740 443 q 750 351 750 400 l 750 160 q 743 92 750 114 q 714 63 736 69 q 646 56 692 56 l 521 56 q 453 63 475 56 q 424 92 431 69 q 417 160 417 114 l 417 300 q 389 331 417 331 q 361 300 361 331 l 361 160 q 354 92 361 114 q 325 63 347 69 q 257 56 303 56 l 132 56 m 238 1031 q 256 1078 238 1061 q 325 1118 274 1096 l 421 1158 q 504 1169 481 1183 q 528 1113 528 1156 l 528 1039 q 510 986 528 1000 q 440 972 493 972 l 322 972 q 255 986 272 972 q 238 1031 238 1000 m 364 506 q 393 474 364 474 q 421 506 421 474 l 421 646 q 393 678 421 678 q 364 646 364 678 l 364 506 z "},"Ř":{"ha":778,"x_min":28,"x_max":750,"o":"m 132 56 q 64 63 86 56 q 35 92 42 69 q 28 160 28 114 l 28 813 q 35 879 28 857 q 64 909 42 901 q 132 917 86 917 l 479 917 q 687 853 624 917 q 750 646 750 789 l 750 615 q 745 546 750 568 q 722 517 740 524 q 660 511 703 511 l 593 511 q 563 483 563 511 q 593 456 563 456 l 660 456 q 722 449 703 456 q 745 422 740 443 q 750 351 750 400 l 750 160 q 743 92 750 114 q 714 63 736 69 q 646 56 692 56 l 521 56 q 453 63 475 56 q 424 92 431 69 q 417 160 417 114 l 417 300 q 389 331 417 331 q 361 300 361 331 l 361 160 q 354 92 361 114 q 325 63 347 69 q 257 56 303 56 l 132 56 m 139 1176 q 144 1207 139 1200 q 165 1214 150 1214 l 275 1214 q 340 1197 321 1214 q 358 1131 358 1181 q 386 1092 358 1092 q 414 1131 414 1092 q 433 1197 414 1181 q 497 1214 451 1214 l 607 1214 q 628 1207 622 1214 q 633 1176 633 1200 q 622 1136 633 1149 l 486 996 q 432 972 463 972 l 340 972 q 288 997 311 972 l 153 1135 q 139 1176 139 1150 m 364 506 q 393 474 364 474 q 421 506 421 474 l 421 646 q 393 678 421 678 q 364 646 364 678 l 364 506 z "},"Ŗ":{"ha":778,"x_min":28,"x_max":750,"o":"m 132 56 q 64 63 86 56 q 35 92 42 69 q 28 160 28 114 l 28 813 q 35 879 28 857 q 64 909 42 901 q 132 917 86 917 l 479 917 q 687 853 624 917 q 750 646 750 789 l 750 615 q 745 546 750 568 q 722 517 740 524 q 660 511 703 511 l 593 511 q 563 483 563 511 q 593 456 563 456 l 660 456 q 722 449 703 456 q 745 422 740 443 q 750 351 750 400 l 750 160 q 743 92 750 114 q 714 63 736 69 q 646 56 692 56 l 521 56 q 453 63 475 56 q 424 92 431 69 q 417 160 417 114 l 417 300 q 389 331 417 331 q 361 300 361 331 l 361 160 q 354 92 361 114 q 325 63 347 69 q 257 56 303 56 l 132 56 m 290 -87 q 297 -21 282 -42 q 360 0 313 0 l 417 0 q 479 -21 465 0 q 486 -87 493 -42 l 475 -160 q 451 -217 469 -203 q 392 -231 432 -231 l 385 -231 q 328 -216 344 -231 q 304 -160 313 -201 l 290 -87 m 364 506 q 393 474 364 474 q 421 506 421 474 l 421 646 q 393 678 421 678 q 364 646 364 678 l 364 506 z "},"S":{"ha":708,"x_min":28,"x_max":681,"o":"m 132 56 q 64 63 86 56 q 35 93 42 71 q 28 160 28 115 l 28 240 q 33 310 28 289 q 57 338 38 332 q 118 344 76 344 l 344 344 q 375 372 375 344 q 344 400 375 400 l 118 400 q 57 406 76 400 q 33 435 38 413 q 28 504 28 457 l 28 646 q 92 856 28 796 q 299 917 156 917 l 576 917 q 644 909 622 917 q 674 879 667 901 q 681 813 681 857 l 681 732 q 676 663 681 685 q 652 634 671 640 q 590 628 633 628 l 322 628 q 292 600 292 628 q 322 572 292 572 l 590 572 q 652 566 633 572 q 676 538 671 560 q 681 468 681 517 l 681 326 q 617 116 681 176 q 410 56 553 56 l 132 56 z "},"Ś":{"ha":708,"x_min":28,"x_max":681,"o":"m 132 56 q 64 63 86 56 q 35 93 42 71 q 28 160 28 115 l 28 240 q 33 310 28 289 q 57 338 38 332 q 118 344 76 344 l 344 344 q 375 372 375 344 q 344 400 375 400 l 118 400 q 57 406 76 400 q 33 435 38 413 q 28 504 28 457 l 28 646 q 92 856 28 796 q 299 917 156 917 l 576 917 q 644 909 622 917 q 674 879 667 901 q 681 813 681 857 l 681 732 q 676 663 681 685 q 652 634 671 640 q 590 628 633 628 l 322 628 q 292 600 292 628 q 322 572 292 572 l 590 572 q 652 566 633 572 q 676 538 671 560 q 681 468 681 517 l 681 326 q 617 116 681 176 q 410 56 553 56 l 132 56 m 210 1031 q 228 1078 210 1061 q 297 1118 246 1096 l 393 1158 q 476 1169 453 1183 q 500 1113 500 1156 l 500 1039 q 483 986 500 1000 q 413 972 465 972 l 294 972 q 227 986 244 972 q 210 1031 210 1000 z "},"Š":{"ha":708,"x_min":28,"x_max":681,"o":"m 132 56 q 64 63 86 56 q 35 93 42 71 q 28 160 28 115 l 28 240 q 33 310 28 289 q 57 338 38 332 q 118 344 76 344 l 344 344 q 375 372 375 344 q 344 400 375 400 l 118 400 q 57 406 76 400 q 33 435 38 413 q 28 504 28 457 l 28 646 q 92 856 28 796 q 299 917 156 917 l 576 917 q 644 909 622 917 q 674 879 667 901 q 681 813 681 857 l 681 732 q 676 663 681 685 q 652 634 671 640 q 590 628 633 628 l 322 628 q 292 600 292 628 q 322 572 292 572 l 590 572 q 652 566 633 572 q 676 538 671 560 q 681 468 681 517 l 681 326 q 617 116 681 176 q 410 56 553 56 l 132 56 m 111 1176 q 117 1207 111 1200 q 138 1214 122 1214 l 247 1214 q 312 1197 293 1214 q 331 1131 331 1181 q 358 1092 331 1092 q 386 1131 386 1092 q 405 1197 386 1181 q 469 1214 424 1214 l 579 1214 q 600 1207 594 1214 q 606 1176 606 1200 q 594 1136 606 1149 l 458 996 q 404 972 435 972 l 313 972 q 260 997 283 972 l 125 1135 q 111 1176 111 1150 z "},"Ş":{"ha":708,"x_min":28,"x_max":681,"o":"m 360 0 q 328 28 328 0 q 360 56 328 56 l 431 56 q 617 116 554 56 q 681 326 681 176 l 681 468 q 676 538 681 517 q 652 566 671 560 q 590 572 633 572 l 315 572 q 285 600 285 572 q 315 628 285 628 l 590 628 q 652 634 633 628 q 676 663 671 640 q 681 732 681 685 l 681 813 q 674 879 681 857 q 644 909 667 901 q 576 917 622 917 l 299 917 q 92 856 156 917 q 28 646 28 796 l 28 504 q 33 435 28 457 q 57 406 38 413 q 118 400 76 400 l 351 400 q 382 372 382 400 q 351 344 382 344 l 118 344 q 57 338 76 344 q 33 310 38 332 q 28 240 28 289 l 28 160 q 35 93 28 115 q 64 63 42 71 q 132 56 86 56 l 135 56 q 178 13 178 56 l 178 -17 q 187 -74 178 -60 q 226 -87 196 -87 l 353 -87 q 385 -115 385 -87 q 353 -143 385 -143 l 197 -143 q 143 -159 158 -143 q 128 -215 128 -175 q 140 -265 128 -254 q 189 -275 153 -275 l 369 -275 q 534 -243 489 -275 q 579 -135 579 -211 q 544 -28 579 -57 q 424 0 508 0 l 360 0 z "},"Ș":{"ha":708,"x_min":28,"x_max":681,"o":"m 132 56 q 64 63 86 56 q 35 93 42 71 q 28 160 28 115 l 28 240 q 33 310 28 289 q 57 338 38 332 q 118 344 76 344 l 344 344 q 375 372 375 344 q 344 400 375 400 l 118 400 q 57 406 76 400 q 33 435 38 413 q 28 504 28 457 l 28 646 q 92 856 28 796 q 299 917 156 917 l 576 917 q 644 909 622 917 q 674 879 667 901 q 681 813 681 857 l 681 732 q 676 663 681 685 q 652 634 671 640 q 590 628 633 628 l 322 628 q 292 600 292 628 q 322 572 292 572 l 590 572 q 652 566 633 572 q 676 538 671 560 q 681 468 681 517 l 681 326 q 617 116 681 176 q 410 56 553 56 l 132 56 m 256 -87 q 263 -21 247 -42 q 325 0 278 0 l 382 0 q 444 -21 431 0 q 451 -87 458 -42 l 440 -160 q 416 -217 435 -203 q 357 -231 397 -231 l 350 -231 q 294 -216 310 -231 q 269 -160 278 -201 l 256 -87 z "},"ẞ":{"ha":913,"x_min":28,"x_max":885,"o":"m 239 56 q 307 63 285 56 q 336 93 329 71 q 343 160 343 115 l 343 504 q 367 620 343 590 q 461 650 390 650 l 485 650 q 517 622 517 650 q 485 594 517 594 l 461 594 q 419 589 433 594 q 402 565 406 583 q 399 504 399 546 l 399 476 q 410 394 399 415 q 475 372 422 372 l 526 372 q 558 344 558 372 q 526 317 558 317 l 475 317 q 424 310 440 317 q 403 283 407 304 q 399 213 399 261 l 399 146 q 405 85 399 104 q 433 60 411 65 q 501 56 454 56 l 642 56 q 787 76 733 56 q 863 144 840 97 q 885 271 885 192 l 885 385 q 867 475 885 450 q 794 500 849 500 l 647 500 q 617 528 617 500 q 647 556 617 556 l 681 556 q 749 576 718 556 q 789 664 779 597 l 801 750 q 787 878 814 839 q 660 917 760 917 l 299 917 q 138 891 197 917 q 53 806 78 865 q 28 646 28 746 l 28 160 q 35 93 28 115 q 64 63 42 71 q 132 56 86 56 l 239 56 z "},"T":{"ha":931,"x_min":28,"x_max":903,"o":"m 410 56 q 342 63 364 56 q 313 93 319 71 q 306 160 306 115 l 306 618 q 278 650 306 650 q 250 618 250 650 l 250 438 q 243 371 250 393 q 214 341 236 349 q 146 333 192 333 l 132 333 q 64 341 86 333 q 35 371 42 349 q 28 438 28 393 l 28 813 q 35 879 28 857 q 64 909 42 901 q 132 917 86 917 l 799 917 q 867 909 844 917 q 896 879 889 901 q 903 813 903 857 l 903 438 q 896 371 903 393 q 867 341 889 349 q 799 333 844 333 l 785 333 q 717 341 739 333 q 688 371 694 349 q 681 438 681 393 l 681 618 q 653 650 681 650 q 625 618 625 650 l 625 160 q 618 93 625 115 q 589 63 611 71 q 521 56 567 56 l 410 56 z "},"Ť":{"ha":931,"x_min":28,"x_max":903,"o":"m 410 56 q 342 63 364 56 q 313 93 319 71 q 306 160 306 115 l 306 618 q 278 650 306 650 q 250 618 250 650 l 250 438 q 243 371 250 393 q 214 341 236 349 q 146 333 192 333 l 132 333 q 64 341 86 333 q 35 371 42 349 q 28 438 28 393 l 28 813 q 35 879 28 857 q 64 909 42 901 q 132 917 86 917 l 799 917 q 867 909 844 917 q 896 879 889 901 q 903 813 903 857 l 903 438 q 896 371 903 393 q 867 341 889 349 q 799 333 844 333 l 785 333 q 717 341 739 333 q 688 371 694 349 q 681 438 681 393 l 681 618 q 653 650 681 650 q 625 618 625 650 l 625 160 q 618 93 625 115 q 589 63 611 71 q 521 56 567 56 l 410 56 m 215 1176 q 221 1207 215 1200 q 242 1214 226 1214 l 351 1214 q 416 1197 397 1214 q 435 1131 435 1181 q 463 1092 435 1092 q 490 1131 490 1092 q 509 1197 490 1181 q 574 1214 528 1214 l 683 1214 q 704 1207 699 1214 q 710 1176 710 1200 q 699 1136 710 1149 l 563 996 q 508 972 539 972 l 417 972 q 364 997 388 972 l 229 1135 q 215 1176 215 1150 z "},"Ţ":{"ha":931,"x_min":28,"x_max":903,"o":"m 397 -274 q 349 -263 361 -274 q 336 -215 336 -253 q 351 -159 336 -175 q 406 -143 367 -143 l 547 -143 q 579 -115 579 -143 q 547 -87 579 -87 l 449 -87 q 409 -74 418 -87 q 400 -15 400 -60 l 400 18 q 394 49 400 42 q 378 58 389 57 q 324 81 342 61 q 306 160 306 101 l 306 632 q 278 664 306 664 q 250 632 250 664 l 250 438 q 243 371 250 393 q 214 341 236 349 q 146 333 192 333 l 132 333 q 64 341 86 333 q 35 371 42 349 q 28 438 28 393 l 28 813 q 35 879 28 857 q 64 909 42 901 q 132 917 86 917 l 799 917 q 867 909 844 917 q 896 879 889 901 q 903 813 903 857 l 903 438 q 896 371 903 393 q 867 341 889 349 q 799 333 844 333 l 785 333 q 717 341 739 333 q 688 371 694 349 q 681 438 681 393 l 681 632 q 653 664 681 664 q 625 632 625 664 l 625 160 q 611 74 625 93 q 549 56 597 56 l 546 56 q 514 28 514 56 q 546 0 514 0 l 632 0 q 715 -28 685 0 q 746 -135 746 -57 q 703 -242 746 -211 q 550 -274 660 -274 l 397 -274 z "},"Ț":{"ha":931,"x_min":28,"x_max":903,"o":"m 410 56 q 342 63 364 56 q 313 93 319 71 q 306 160 306 115 l 306 618 q 278 650 306 650 q 250 618 250 650 l 250 438 q 243 371 250 393 q 214 341 236 349 q 146 333 192 333 l 132 333 q 64 341 86 333 q 35 371 42 349 q 28 438 28 393 l 28 813 q 35 879 28 857 q 64 909 42 901 q 132 917 86 917 l 799 917 q 867 909 844 917 q 896 879 889 901 q 903 813 903 857 l 903 438 q 896 371 903 393 q 867 341 889 349 q 799 333 844 333 l 785 333 q 717 341 739 333 q 688 371 694 349 q 681 438 681 393 l 681 618 q 653 650 681 650 q 625 618 625 650 l 625 160 q 618 93 625 115 q 589 63 611 71 q 521 56 567 56 l 410 56 m 367 -87 q 374 -21 358 -42 q 436 0 389 0 l 493 0 q 556 -21 542 0 q 563 -87 569 -42 l 551 -160 q 527 -217 546 -203 q 468 -231 508 -231 l 461 -231 q 405 -216 421 -231 q 381 -160 389 -201 l 367 -87 z "},"U":{"ha":778,"x_min":28,"x_max":750,"o":"m 299 56 q 143 80 203 56 q 56 162 83 104 q 28 317 28 219 l 28 813 q 35 879 28 857 q 64 909 42 901 q 132 917 86 917 l 257 917 q 325 909 303 917 q 354 879 347 901 q 361 813 361 857 l 361 343 q 389 313 361 313 q 417 343 417 313 l 417 813 q 424 879 417 857 q 453 909 431 901 q 521 917 475 917 l 646 917 q 714 909 692 917 q 743 879 736 901 q 750 813 750 857 l 750 317 q 722 160 750 218 q 635 79 694 103 q 479 56 575 56 l 299 56 z "},"Ú":{"ha":778,"x_min":28,"x_max":750,"o":"m 299 56 q 143 80 203 56 q 56 162 83 104 q 28 317 28 219 l 28 813 q 35 879 28 857 q 64 909 42 901 q 132 917 86 917 l 257 917 q 325 909 303 917 q 354 879 347 901 q 361 813 361 857 l 361 343 q 389 313 361 313 q 417 343 417 313 l 417 813 q 424 879 417 857 q 453 909 431 901 q 521 917 475 917 l 646 917 q 714 909 692 917 q 743 879 736 901 q 750 813 750 857 l 750 317 q 722 160 750 218 q 635 79 694 103 q 479 56 575 56 l 299 56 m 238 1031 q 256 1078 238 1061 q 325 1118 274 1096 l 421 1158 q 504 1169 481 1183 q 528 1113 528 1156 l 528 1039 q 510 986 528 1000 q 440 972 493 972 l 322 972 q 255 986 272 972 q 238 1031 238 1000 z "},"Û":{"ha":778,"x_min":28,"x_max":750,"o":"m 299 56 q 143 80 203 56 q 56 162 83 104 q 28 317 28 219 l 28 813 q 35 879 28 857 q 64 909 42 901 q 132 917 86 917 l 257 917 q 325 909 303 917 q 354 879 347 901 q 361 813 361 857 l 361 343 q 389 313 361 313 q 417 343 417 313 l 417 813 q 424 879 417 857 q 453 909 431 901 q 521 917 475 917 l 646 917 q 714 909 692 917 q 743 879 736 901 q 750 813 750 857 l 750 317 q 722 160 750 218 q 635 79 694 103 q 479 56 575 56 l 299 56 m 142 1010 q 153 1050 142 1038 l 289 1190 q 343 1214 313 1214 l 435 1214 q 488 1189 464 1214 l 622 1051 q 636 1010 636 1036 q 631 980 636 988 q 610 972 625 972 l 500 972 q 435 989 454 972 q 417 1056 417 1006 q 389 1094 417 1094 q 361 1056 361 1094 q 342 989 361 1006 q 278 972 324 972 l 168 972 q 147 980 153 972 q 142 1010 142 988 z "},"Ü":{"ha":778,"x_min":28,"x_max":750,"o":"m 299 56 q 143 80 203 56 q 56 162 83 104 q 28 317 28 219 l 28 813 q 35 879 28 857 q 64 909 42 901 q 132 917 86 917 l 257 917 q 325 909 303 917 q 354 879 347 901 q 361 813 361 857 l 361 343 q 389 313 361 313 q 417 343 417 313 l 417 813 q 424 879 417 857 q 453 909 431 901 q 521 917 475 917 l 646 917 q 714 909 692 917 q 743 879 736 901 q 750 813 750 857 l 750 317 q 722 160 750 218 q 635 79 694 103 q 479 56 575 56 l 299 56 m 108 1056 q 113 1110 108 1093 q 138 1133 118 1128 q 199 1138 157 1138 l 271 1138 q 333 1133 314 1138 q 356 1110 351 1128 q 361 1056 361 1093 q 356 1001 361 1018 q 333 978 351 983 q 271 972 314 972 l 199 972 q 138 978 157 972 q 113 1001 118 983 q 108 1056 108 1018 m 417 1056 q 422 1110 417 1093 q 446 1133 426 1128 q 507 1138 465 1138 l 579 1138 q 641 1133 622 1138 q 665 1110 660 1128 q 669 1056 669 1093 q 665 1001 669 1018 q 641 978 660 983 q 579 972 622 972 l 507 972 q 446 978 465 972 q 422 1001 426 983 q 417 1056 417 1018 z "},"Ù":{"ha":778,"x_min":28,"x_max":750,"o":"m 299 56 q 143 80 203 56 q 56 162 83 104 q 28 317 28 219 l 28 813 q 35 879 28 857 q 64 909 42 901 q 132 917 86 917 l 257 917 q 325 909 303 917 q 354 879 347 901 q 361 813 361 857 l 361 343 q 389 313 361 313 q 417 343 417 313 l 417 813 q 424 879 417 857 q 453 909 431 901 q 521 917 475 917 l 646 917 q 714 909 692 917 q 743 879 736 901 q 750 813 750 857 l 750 317 q 722 160 750 218 q 635 79 694 103 q 479 56 575 56 l 299 56 m 242 1039 l 242 1113 q 265 1169 242 1156 q 349 1158 289 1183 l 444 1118 q 514 1078 496 1096 q 532 1031 532 1061 q 515 986 532 1000 q 447 972 497 972 l 329 972 q 260 986 278 972 q 242 1039 242 1000 z "},"Ű":{"ha":778,"x_min":28,"x_max":750,"o":"m 299 56 q 143 80 203 56 q 56 162 83 104 q 28 317 28 219 l 28 813 q 35 879 28 857 q 64 909 42 901 q 132 917 86 917 l 257 917 q 325 909 303 917 q 354 879 347 901 q 361 813 361 857 l 361 343 q 389 313 361 313 q 417 343 417 313 l 417 813 q 424 879 417 857 q 453 909 431 901 q 521 917 475 917 l 646 917 q 714 909 692 917 q 743 879 736 901 q 750 813 750 857 l 750 317 q 722 160 750 218 q 635 79 694 103 q 479 56 575 56 l 299 56 m 78 1031 q 95 1084 78 1067 q 164 1122 113 1101 l 244 1154 q 332 1162 304 1178 q 360 1097 360 1146 l 360 1053 q 339 988 360 1003 q 244 972 318 972 l 190 972 q 99 986 119 972 q 78 1031 78 1000 m 415 1031 q 433 1082 415 1065 q 503 1118 451 1099 l 583 1150 q 671 1160 644 1174 q 697 1097 697 1146 l 697 1053 q 676 988 697 1003 q 582 972 656 972 l 528 972 q 436 986 457 972 q 415 1031 415 1000 z "},"Ū":{"ha":778,"x_min":28,"x_max":750,"o":"m 299 56 q 143 80 203 56 q 56 162 83 104 q 28 317 28 219 l 28 813 q 35 879 28 857 q 64 909 42 901 q 132 917 86 917 l 257 917 q 325 909 303 917 q 354 879 347 901 q 361 813 361 857 l 361 343 q 389 313 361 313 q 417 343 417 313 l 417 813 q 424 879 417 857 q 453 909 431 901 q 521 917 475 917 l 646 917 q 714 909 692 917 q 743 879 736 901 q 750 813 750 857 l 750 317 q 722 160 750 218 q 635 79 694 103 q 479 56 575 56 l 299 56 m 193 1056 q 198 1110 193 1093 q 222 1133 203 1128 q 283 1138 242 1138 l 494 1138 q 556 1133 538 1138 q 580 1110 575 1128 q 585 1056 585 1093 q 580 1001 585 1018 q 556 978 575 983 q 494 972 538 972 l 283 972 q 222 978 242 972 q 198 1001 203 983 q 193 1056 193 1018 z "},"Ų":{"ha":779,"x_min":28,"x_max":750,"o":"m 511 -174 q 411 -164 440 -185 q 382 -76 382 -143 l 382 13 q 346 56 382 56 l 299 56 q 92 115 157 56 q 28 319 28 175 l 28 813 q 35 879 28 857 q 64 909 42 901 q 132 917 86 917 l 257 917 q 325 909 303 917 q 354 879 347 901 q 361 813 361 857 l 361 357 q 389 326 361 326 q 417 357 417 326 l 417 813 q 424 879 417 857 q 453 909 431 901 q 521 917 475 917 l 646 917 q 714 909 692 917 q 743 879 736 901 q 750 813 750 857 l 750 319 q 692 114 750 172 q 535 56 633 56 l 528 56 q 494 28 494 56 q 503 7 494 14 q 535 0 513 0 l 608 0 q 640 -14 631 0 q 650 -79 650 -28 q 638 -139 650 -122 q 599 -160 626 -156 l 511 -174 z "},"Ů":{"ha":778,"x_min":28,"x_max":750,"o":"m 299 56 q 143 80 203 56 q 56 162 83 104 q 28 317 28 219 l 28 813 q 35 879 28 857 q 64 909 42 901 q 132 917 86 917 l 257 917 q 325 909 303 917 q 354 879 347 901 q 361 813 361 857 l 361 343 q 389 313 361 313 q 417 343 417 313 l 417 813 q 424 879 417 857 q 453 909 431 901 q 521 917 475 917 l 646 917 q 714 909 692 917 q 743 879 736 901 q 750 813 750 857 l 750 317 q 722 160 750 218 q 635 79 694 103 q 479 56 575 56 l 299 56 m 156 1111 q 169 1192 156 1163 q 222 1235 183 1222 q 329 1249 260 1249 l 443 1249 q 551 1235 514 1249 q 603 1192 589 1222 q 617 1111 617 1163 q 603 1029 617 1060 q 551 985 589 999 q 443 972 514 972 l 329 972 q 222 985 260 972 q 169 1029 183 999 q 156 1111 156 1060 m 326 1110 q 358 1082 326 1082 l 414 1082 q 446 1110 446 1082 q 414 1139 446 1139 l 358 1139 q 326 1110 326 1139 z "},"V":{"ha":778,"x_min":28,"x_max":750,"o":"m 129 56 q 62 63 83 56 q 34 93 40 71 q 28 160 28 115 l 28 813 q 35 879 28 857 q 64 909 42 901 q 132 917 86 917 l 257 917 q 325 909 303 917 q 354 879 347 901 q 361 813 361 857 l 361 331 q 389 294 361 294 q 417 331 417 294 l 417 813 q 424 879 417 857 q 453 909 431 901 q 521 917 475 917 l 646 917 q 714 909 692 917 q 743 879 736 901 q 750 813 750 857 l 750 354 q 680 125 750 194 q 451 56 610 56 l 129 56 z "},"W":{"ha":944,"x_min":28,"x_max":917,"o":"m 813 917 q 881 909 858 917 q 910 879 903 901 q 917 813 917 857 l 917 160 q 910 93 917 115 q 881 63 903 71 q 813 56 858 56 l 604 56 q 536 63 558 56 q 507 93 514 71 q 500 160 500 115 l 500 268 q 472 299 500 299 q 444 268 444 299 l 444 160 q 438 93 444 115 q 408 63 431 71 q 340 56 386 56 l 132 56 q 64 63 86 56 q 35 93 42 71 q 28 160 28 115 l 28 813 q 35 879 28 857 q 64 909 42 901 q 132 917 86 917 l 188 917 q 256 909 233 917 q 285 879 278 901 q 292 813 292 857 l 292 533 q 319 503 292 503 q 347 533 347 503 l 347 813 q 354 879 347 857 q 383 909 361 901 q 451 917 406 917 l 493 917 q 561 909 539 917 q 590 879 583 901 q 597 813 597 857 l 597 533 q 625 503 597 503 q 653 533 653 503 l 653 813 q 660 879 653 857 q 689 909 667 901 q 757 917 711 917 l 813 917 z "},"Ẃ":{"ha":944,"x_min":28,"x_max":917,"o":"m 813 917 q 881 909 858 917 q 910 879 903 901 q 917 813 917 857 l 917 160 q 910 93 917 115 q 881 63 903 71 q 813 56 858 56 l 604 56 q 536 63 558 56 q 507 93 514 71 q 500 160 500 115 l 500 268 q 472 299 500 299 q 444 268 444 299 l 444 160 q 438 93 444 115 q 408 63 431 71 q 340 56 386 56 l 132 56 q 64 63 86 56 q 35 93 42 71 q 28 160 28 115 l 28 813 q 35 879 28 857 q 64 909 42 901 q 132 917 86 917 l 188 917 q 256 909 233 917 q 285 879 278 901 q 292 813 292 857 l 292 533 q 319 503 292 503 q 347 533 347 503 l 347 813 q 354 879 347 857 q 383 909 361 901 q 451 917 406 917 l 493 917 q 561 909 539 917 q 590 879 583 901 q 597 813 597 857 l 597 533 q 625 503 597 503 q 653 533 653 503 l 653 813 q 660 879 653 857 q 689 909 667 901 q 757 917 711 917 l 813 917 m 321 1031 q 339 1078 321 1061 q 408 1118 357 1096 l 504 1158 q 588 1169 564 1183 q 611 1113 611 1156 l 611 1039 q 594 986 611 1000 q 524 972 576 972 l 406 972 q 338 986 356 972 q 321 1031 321 1000 z "},"Ŵ":{"ha":944,"x_min":28,"x_max":917,"o":"m 813 917 q 881 909 858 917 q 910 879 903 901 q 917 813 917 857 l 917 160 q 910 93 917 115 q 881 63 903 71 q 813 56 858 56 l 604 56 q 536 63 558 56 q 507 93 514 71 q 500 160 500 115 l 500 268 q 472 299 500 299 q 444 268 444 299 l 444 160 q 438 93 444 115 q 408 63 431 71 q 340 56 386 56 l 132 56 q 64 63 86 56 q 35 93 42 71 q 28 160 28 115 l 28 813 q 35 879 28 857 q 64 909 42 901 q 132 917 86 917 l 188 917 q 256 909 233 917 q 285 879 278 901 q 292 813 292 857 l 292 533 q 319 503 292 503 q 347 533 347 503 l 347 813 q 354 879 347 857 q 383 909 361 901 q 451 917 406 917 l 493 917 q 561 909 539 917 q 590 879 583 901 q 597 813 597 857 l 597 533 q 625 503 597 503 q 653 533 653 503 l 653 813 q 660 879 653 857 q 689 909 667 901 q 757 917 711 917 l 813 917 m 225 1010 q 236 1050 225 1038 l 372 1190 q 426 1214 396 1214 l 518 1214 q 571 1189 547 1214 l 706 1051 q 719 1010 719 1036 q 714 980 719 988 q 693 972 708 972 l 583 972 q 519 989 538 972 q 500 1056 500 1006 q 472 1094 500 1094 q 444 1056 444 1094 q 426 989 444 1006 q 361 972 407 972 l 251 972 q 231 980 236 972 q 225 1010 225 988 z "},"Ẅ":{"ha":944,"x_min":28,"x_max":917,"o":"m 813 917 q 881 909 858 917 q 910 879 903 901 q 917 813 917 857 l 917 160 q 910 93 917 115 q 881 63 903 71 q 813 56 858 56 l 604 56 q 536 63 558 56 q 507 93 514 71 q 500 160 500 115 l 500 268 q 472 299 500 299 q 444 268 444 299 l 444 160 q 438 93 444 115 q 408 63 431 71 q 340 56 386 56 l 132 56 q 64 63 86 56 q 35 93 42 71 q 28 160 28 115 l 28 813 q 35 879 28 857 q 64 909 42 901 q 132 917 86 917 l 188 917 q 256 909 233 917 q 285 879 278 901 q 292 813 292 857 l 292 533 q 319 503 292 503 q 347 533 347 503 l 347 813 q 354 879 347 857 q 383 909 361 901 q 451 917 406 917 l 493 917 q 561 909 539 917 q 590 879 583 901 q 597 813 597 857 l 597 533 q 625 503 597 503 q 653 533 653 503 l 653 813 q 660 879 653 857 q 689 909 667 901 q 757 917 711 917 l 813 917 m 192 1056 q 197 1110 192 1093 q 221 1133 201 1128 q 282 1138 240 1138 l 354 1138 q 416 1133 397 1138 q 440 1110 435 1128 q 444 1056 444 1093 q 440 1001 444 1018 q 416 978 435 983 q 354 972 397 972 l 282 972 q 221 978 240 972 q 197 1001 201 983 q 192 1056 192 1018 m 500 1056 q 505 1110 500 1093 q 529 1133 510 1128 q 590 1138 549 1138 l 663 1138 q 724 1133 706 1138 q 748 1110 743 1128 q 753 1056 753 1093 q 748 1001 753 1018 q 724 978 743 983 q 663 972 706 972 l 590 972 q 529 978 549 972 q 505 1001 510 983 q 500 1056 500 1018 z "},"Ẁ":{"ha":944,"x_min":28,"x_max":917,"o":"m 813 917 q 881 909 858 917 q 910 879 903 901 q 917 813 917 857 l 917 160 q 910 93 917 115 q 881 63 903 71 q 813 56 858 56 l 604 56 q 536 63 558 56 q 507 93 514 71 q 500 160 500 115 l 500 268 q 472 299 500 299 q 444 268 444 299 l 444 160 q 438 93 444 115 q 408 63 431 71 q 340 56 386 56 l 132 56 q 64 63 86 56 q 35 93 42 71 q 28 160 28 115 l 28 813 q 35 879 28 857 q 64 909 42 901 q 132 917 86 917 l 188 917 q 256 909 233 917 q 285 879 278 901 q 292 813 292 857 l 292 533 q 319 503 292 503 q 347 533 347 503 l 347 813 q 354 879 347 857 q 383 909 361 901 q 451 917 406 917 l 493 917 q 561 909 539 917 q 590 879 583 901 q 597 813 597 857 l 597 533 q 625 503 597 503 q 653 533 653 503 l 653 813 q 660 879 653 857 q 689 909 667 901 q 757 917 711 917 l 813 917 m 325 1039 l 325 1113 q 349 1169 325 1156 q 432 1158 372 1183 l 528 1118 q 597 1078 579 1096 q 615 1031 615 1061 q 598 986 615 1000 q 531 972 581 972 l 413 972 q 343 986 361 972 q 325 1039 325 1000 z "},"X":{"ha":778,"x_min":28,"x_max":750,"o":"m 132 56 q 64 63 86 56 q 35 93 42 71 q 28 160 28 115 l 28 365 q 33 435 28 414 q 57 463 38 457 q 118 469 76 469 l 157 469 q 188 497 188 469 q 157 525 188 525 l 118 525 q 57 531 76 525 q 33 560 38 538 q 28 629 28 582 l 28 813 q 35 879 28 857 q 64 909 42 901 q 132 917 86 917 l 257 917 q 325 909 303 917 q 354 879 347 901 q 361 813 361 857 l 361 579 q 389 549 361 549 q 417 579 417 549 l 417 813 q 424 879 417 857 q 453 909 431 901 q 521 917 475 917 l 646 917 q 714 909 692 917 q 743 879 736 901 q 750 813 750 857 l 750 629 q 745 560 750 582 q 722 531 740 538 q 660 525 703 525 l 621 525 q 590 497 590 525 q 621 469 590 469 l 660 469 q 722 463 703 469 q 745 435 740 457 q 750 365 750 414 l 750 160 q 743 93 750 115 q 714 63 736 71 q 646 56 692 56 l 521 56 q 453 63 475 56 q 424 93 431 71 q 417 160 417 115 l 417 285 q 389 317 417 317 q 361 285 361 317 l 361 160 q 354 93 361 115 q 325 63 347 71 q 257 56 303 56 l 132 56 z "},"Y":{"ha":778,"x_min":28,"x_max":750,"o":"m 326 56 q 258 63 281 56 q 229 93 236 71 q 222 160 222 115 l 222 224 q 174 278 222 278 l 133 278 q 57 306 86 278 q 28 424 28 335 l 28 813 q 35 879 28 857 q 64 909 42 901 q 132 917 86 917 l 257 917 q 325 909 303 917 q 354 879 347 901 q 361 813 361 857 l 361 550 q 389 510 361 510 q 417 550 417 510 l 417 813 q 424 879 417 857 q 453 909 431 901 q 521 917 475 917 l 646 917 q 714 909 692 917 q 743 879 736 901 q 750 813 750 857 l 750 424 q 721 306 750 335 q 644 278 692 278 l 604 278 q 556 224 556 278 l 556 160 q 549 93 556 115 q 519 63 542 71 q 451 56 497 56 l 326 56 z "},"Ý":{"ha":778,"x_min":28,"x_max":750,"o":"m 326 56 q 258 63 281 56 q 229 93 236 71 q 222 160 222 115 l 222 224 q 174 278 222 278 l 133 278 q 57 306 86 278 q 28 424 28 335 l 28 813 q 35 879 28 857 q 64 909 42 901 q 132 917 86 917 l 257 917 q 325 909 303 917 q 354 879 347 901 q 361 813 361 857 l 361 550 q 389 510 361 510 q 417 550 417 510 l 417 813 q 424 879 417 857 q 453 909 431 901 q 521 917 475 917 l 646 917 q 714 909 692 917 q 743 879 736 901 q 750 813 750 857 l 750 424 q 721 306 750 335 q 644 278 692 278 l 604 278 q 556 224 556 278 l 556 160 q 549 93 556 115 q 519 63 542 71 q 451 56 497 56 l 326 56 m 238 1031 q 256 1078 238 1061 q 325 1118 274 1096 l 421 1158 q 504 1169 481 1183 q 528 1113 528 1156 l 528 1039 q 510 986 528 1000 q 440 972 493 972 l 322 972 q 255 986 272 972 q 238 1031 238 1000 z "},"Ŷ":{"ha":778,"x_min":28,"x_max":750,"o":"m 326 56 q 258 63 281 56 q 229 93 236 71 q 222 160 222 115 l 222 224 q 174 278 222 278 l 133 278 q 57 306 86 278 q 28 424 28 335 l 28 813 q 35 879 28 857 q 64 909 42 901 q 132 917 86 917 l 257 917 q 325 909 303 917 q 354 879 347 901 q 361 813 361 857 l 361 550 q 389 510 361 510 q 417 550 417 510 l 417 813 q 424 879 417 857 q 453 909 431 901 q 521 917 475 917 l 646 917 q 714 909 692 917 q 743 879 736 901 q 750 813 750 857 l 750 424 q 721 306 750 335 q 644 278 692 278 l 604 278 q 556 224 556 278 l 556 160 q 549 93 556 115 q 519 63 542 71 q 451 56 497 56 l 326 56 m 142 1010 q 153 1050 142 1038 l 289 1190 q 343 1214 313 1214 l 435 1214 q 488 1189 464 1214 l 622 1051 q 636 1010 636 1036 q 631 980 636 988 q 610 972 625 972 l 500 972 q 435 989 454 972 q 417 1056 417 1006 q 389 1094 417 1094 q 361 1056 361 1094 q 342 989 361 1006 q 278 972 324 972 l 168 972 q 147 980 153 972 q 142 1010 142 988 z "},"Ÿ":{"ha":778,"x_min":28,"x_max":750,"o":"m 326 56 q 258 63 281 56 q 229 93 236 71 q 222 160 222 115 l 222 224 q 174 278 222 278 l 133 278 q 57 306 86 278 q 28 424 28 335 l 28 813 q 35 879 28 857 q 64 909 42 901 q 132 917 86 917 l 257 917 q 325 909 303 917 q 354 879 347 901 q 361 813 361 857 l 361 550 q 389 510 361 510 q 417 550 417 510 l 417 813 q 424 879 417 857 q 453 909 431 901 q 521 917 475 917 l 646 917 q 714 909 692 917 q 743 879 736 901 q 750 813 750 857 l 750 424 q 721 306 750 335 q 644 278 692 278 l 604 278 q 556 224 556 278 l 556 160 q 549 93 556 115 q 519 63 542 71 q 451 56 497 56 l 326 56 m 108 1056 q 113 1110 108 1093 q 138 1133 118 1128 q 199 1138 157 1138 l 271 1138 q 333 1133 314 1138 q 356 1110 351 1128 q 361 1056 361 1093 q 356 1001 361 1018 q 333 978 351 983 q 271 972 314 972 l 199 972 q 138 978 157 972 q 113 1001 118 983 q 108 1056 108 1018 m 417 1056 q 422 1110 417 1093 q 446 1133 426 1128 q 507 1138 465 1138 l 579 1138 q 641 1133 622 1138 q 665 1110 660 1128 q 669 1056 669 1093 q 665 1001 669 1018 q 641 978 660 983 q 579 972 622 972 l 507 972 q 446 978 465 972 q 422 1001 426 983 q 417 1056 417 1018 z "},"Ỳ":{"ha":778,"x_min":28,"x_max":750,"o":"m 326 56 q 258 63 281 56 q 229 93 236 71 q 222 160 222 115 l 222 224 q 174 278 222 278 l 133 278 q 57 306 86 278 q 28 424 28 335 l 28 813 q 35 879 28 857 q 64 909 42 901 q 132 917 86 917 l 257 917 q 325 909 303 917 q 354 879 347 901 q 361 813 361 857 l 361 550 q 389 510 361 510 q 417 550 417 510 l 417 813 q 424 879 417 857 q 453 909 431 901 q 521 917 475 917 l 646 917 q 714 909 692 917 q 743 879 736 901 q 750 813 750 857 l 750 424 q 721 306 750 335 q 644 278 692 278 l 604 278 q 556 224 556 278 l 556 160 q 549 93 556 115 q 519 63 542 71 q 451 56 497 56 l 326 56 m 242 1039 l 242 1113 q 265 1169 242 1156 q 349 1158 289 1183 l 444 1118 q 514 1078 496 1096 q 532 1031 532 1061 q 515 986 532 1000 q 447 972 497 972 l 329 972 q 260 986 278 972 q 242 1039 242 1000 z "},"Z":{"ha":710,"x_min":28,"x_max":681,"o":"m 132 56 q 64 63 86 56 q 35 93 42 71 q 28 160 28 115 l 28 468 q 33 538 28 517 q 57 566 38 560 q 118 572 76 572 l 347 572 q 375 600 375 572 q 347 628 375 628 l 118 628 q 57 634 76 628 q 33 663 38 640 q 28 732 28 685 l 28 813 q 35 879 28 857 q 64 909 42 901 q 132 917 86 917 l 576 917 q 644 909 622 917 q 674 879 667 901 q 681 813 681 857 l 681 504 q 675 435 681 457 q 651 406 669 413 q 590 400 632 400 l 378 400 q 347 372 347 400 q 378 344 347 344 l 590 344 q 652 338 633 344 q 676 310 671 332 q 681 240 681 289 l 681 160 q 674 93 681 115 q 644 63 667 71 q 576 56 622 56 l 132 56 z "},"Ź":{"ha":710,"x_min":28,"x_max":681,"o":"m 132 56 q 64 63 86 56 q 35 93 42 71 q 28 160 28 115 l 28 468 q 33 538 28 517 q 57 566 38 560 q 118 572 76 572 l 347 572 q 375 600 375 572 q 347 628 375 628 l 118 628 q 57 634 76 628 q 33 663 38 640 q 28 732 28 685 l 28 813 q 35 879 28 857 q 64 909 42 901 q 132 917 86 917 l 576 917 q 644 909 622 917 q 674 879 667 901 q 681 813 681 857 l 681 504 q 675 435 681 457 q 651 406 669 413 q 590 400 632 400 l 378 400 q 347 372 347 400 q 378 344 347 344 l 590 344 q 652 338 633 344 q 676 310 671 332 q 681 240 681 289 l 681 160 q 674 93 681 115 q 644 63 667 71 q 576 56 622 56 l 132 56 m 204 1031 q 222 1078 204 1061 q 292 1118 240 1096 l 388 1158 q 471 1169 447 1183 q 494 1113 494 1156 l 494 1039 q 477 986 494 1000 q 407 972 460 972 l 289 972 q 222 986 239 972 q 204 1031 204 1000 z "},"Ž":{"ha":710,"x_min":28,"x_max":681,"o":"m 132 56 q 64 63 86 56 q 35 93 42 71 q 28 160 28 115 l 28 468 q 33 538 28 517 q 57 566 38 560 q 118 572 76 572 l 347 572 q 375 600 375 572 q 347 628 375 628 l 118 628 q 57 634 76 628 q 33 663 38 640 q 28 732 28 685 l 28 813 q 35 879 28 857 q 64 909 42 901 q 132 917 86 917 l 576 917 q 644 909 622 917 q 674 879 667 901 q 681 813 681 857 l 681 504 q 675 435 681 457 q 651 406 669 413 q 590 400 632 400 l 378 400 q 347 372 347 400 q 378 344 347 344 l 590 344 q 652 338 633 344 q 676 310 671 332 q 681 240 681 289 l 681 160 q 674 93 681 115 q 644 63 667 71 q 576 56 622 56 l 132 56 m 106 1176 q 111 1207 106 1200 q 132 1214 117 1214 l 242 1214 q 306 1197 288 1214 q 325 1131 325 1181 q 353 1092 325 1092 q 381 1131 381 1092 q 399 1197 381 1181 q 464 1214 418 1214 l 574 1214 q 594 1207 589 1214 q 600 1176 600 1200 q 589 1136 600 1149 l 453 996 q 399 972 429 972 l 307 972 q 254 997 278 972 l 119 1135 q 106 1176 106 1150 z "},"Ż":{"ha":710,"x_min":28,"x_max":681,"o":"m 132 56 q 64 63 86 56 q 35 93 42 71 q 28 160 28 115 l 28 468 q 33 538 28 517 q 57 566 38 560 q 118 572 76 572 l 347 572 q 375 600 375 572 q 347 628 375 628 l 118 628 q 57 634 76 628 q 33 663 38 640 q 28 732 28 685 l 28 813 q 35 879 28 857 q 64 909 42 901 q 132 917 86 917 l 576 917 q 644 909 622 917 q 674 879 667 901 q 681 813 681 857 l 681 504 q 675 435 681 457 q 651 406 669 413 q 590 400 632 400 l 378 400 q 347 372 347 400 q 378 344 347 344 l 590 344 q 652 338 633 344 q 676 310 671 332 q 681 240 681 289 l 681 160 q 674 93 681 115 q 644 63 667 71 q 576 56 622 56 l 132 56 m 222 1056 q 227 1110 222 1093 q 251 1133 232 1128 q 313 1138 271 1138 l 399 1138 q 460 1133 442 1138 q 484 1110 479 1128 q 489 1056 489 1093 q 484 1001 489 1018 q 460 978 479 983 q 399 972 442 972 l 313 972 q 251 978 271 972 q 227 1001 232 983 q 222 1056 222 1018 z "},"a":{"ha":719,"x_min":28,"x_max":692,"o":"m 269 56 q 90 104 151 56 q 28 271 28 153 l 28 360 q 33 448 28 421 q 57 482 38 475 q 118 489 76 489 l 325 489 q 356 517 356 489 q 325 544 356 544 l 118 544 q 57 551 76 544 q 33 579 38 557 q 28 649 28 601 l 28 674 q 35 740 28 718 q 64 770 42 763 q 132 778 86 778 l 449 778 q 630 722 568 778 q 692 547 692 667 l 692 160 q 685 93 692 115 q 656 63 678 71 q 589 56 635 56 q 522 63 544 56 q 493 92 500 69 q 486 160 486 114 l 486 175 q 458 206 486 206 q 431 175 431 206 l 431 160 q 424 92 431 114 q 394 63 417 69 q 326 56 372 56 l 269 56 m 333 340 q 363 308 333 308 q 390 340 390 308 l 390 383 q 363 415 390 415 q 333 383 333 415 l 333 340 z "},"á":{"ha":719,"x_min":28,"x_max":692,"o":"m 269 56 q 90 104 151 56 q 28 271 28 153 l 28 360 q 33 448 28 421 q 57 482 38 475 q 118 489 76 489 l 325 489 q 356 517 356 489 q 325 544 356 544 l 118 544 q 57 551 76 544 q 33 579 38 557 q 28 649 28 601 l 28 674 q 35 740 28 718 q 64 770 42 763 q 132 778 86 778 l 449 778 q 630 722 568 778 q 692 547 692 667 l 692 160 q 685 93 692 115 q 656 63 678 71 q 589 56 635 56 q 522 63 544 56 q 493 92 500 69 q 486 160 486 114 l 486 175 q 458 206 486 206 q 431 175 431 206 l 431 160 q 424 92 431 114 q 394 63 417 69 q 326 56 372 56 l 269 56 m 206 892 q 224 940 206 922 q 293 979 242 957 l 389 1019 q 472 1031 449 1044 q 496 974 496 1017 l 496 900 q 478 847 496 861 q 408 833 461 833 l 290 833 q 223 847 240 833 q 206 892 206 861 m 333 340 q 363 308 333 308 q 390 340 390 308 l 390 383 q 363 415 390 415 q 333 383 333 415 l 333 340 z "},"ă":{"ha":719,"x_min":28,"x_max":692,"o":"m 269 56 q 90 104 151 56 q 28 271 28 153 l 28 360 q 33 448 28 421 q 57 482 38 475 q 118 489 76 489 l 325 489 q 356 517 356 489 q 325 544 356 544 l 118 544 q 57 551 76 544 q 33 579 38 557 q 28 649 28 601 l 28 674 q 35 740 28 718 q 64 770 42 763 q 132 778 86 778 l 449 778 q 630 722 568 778 q 692 547 692 667 l 692 160 q 685 93 692 115 q 656 63 678 71 q 589 56 635 56 q 522 63 544 56 q 493 92 500 69 q 486 160 486 114 l 486 175 q 458 206 486 206 q 431 175 431 206 l 431 160 q 424 92 431 114 q 394 63 417 69 q 326 56 372 56 l 269 56 m 111 1024 q 123 1069 111 1060 q 182 1078 135 1078 l 228 1078 q 312 1064 294 1078 q 329 1001 329 1050 l 329 972 q 357 942 329 942 q 385 972 385 942 l 385 1001 q 392 1050 385 1033 q 421 1072 399 1067 q 489 1078 443 1078 l 532 1078 q 592 1069 581 1078 q 603 1024 603 1060 q 538 873 603 913 q 357 833 472 833 q 176 873 242 833 q 111 1024 111 913 m 333 340 q 363 308 333 308 q 390 340 390 308 l 390 383 q 363 415 390 415 q 333 383 333 415 l 333 340 z "},"â":{"ha":719,"x_min":28,"x_max":692,"o":"m 269 56 q 90 104 151 56 q 28 271 28 153 l 28 360 q 33 448 28 421 q 57 482 38 475 q 118 489 76 489 l 325 489 q 356 517 356 489 q 325 544 356 544 l 118 544 q 57 551 76 544 q 33 579 38 557 q 28 649 28 601 l 28 674 q 35 740 28 718 q 64 770 42 763 q 132 778 86 778 l 449 778 q 630 722 568 778 q 692 547 692 667 l 692 160 q 685 93 692 115 q 656 63 678 71 q 589 56 635 56 q 522 63 544 56 q 493 92 500 69 q 486 160 486 114 l 486 175 q 458 206 486 206 q 431 175 431 206 l 431 160 q 424 92 431 114 q 394 63 417 69 q 326 56 372 56 l 269 56 m 110 871 q 121 911 110 899 l 257 1051 q 311 1075 281 1075 l 403 1075 q 456 1050 432 1075 l 590 913 q 604 871 604 897 q 599 841 604 849 q 578 833 593 833 l 468 833 q 403 850 422 833 q 385 917 385 867 q 357 956 385 956 q 329 917 329 956 q 310 850 329 867 q 246 833 292 833 l 136 833 q 115 841 121 833 q 110 871 110 849 m 333 340 q 363 308 333 308 q 390 340 390 308 l 390 383 q 363 415 390 415 q 333 383 333 415 l 333 340 z "},"ä":{"ha":719,"x_min":28,"x_max":692,"o":"m 269 56 q 90 104 151 56 q 28 271 28 153 l 28 360 q 33 448 28 421 q 57 482 38 475 q 118 489 76 489 l 325 489 q 356 517 356 489 q 325 544 356 544 l 118 544 q 57 551 76 544 q 33 579 38 557 q 28 649 28 601 l 28 674 q 35 740 28 718 q 64 770 42 763 q 132 778 86 778 l 449 778 q 630 722 568 778 q 692 547 692 667 l 692 160 q 685 93 692 115 q 656 63 678 71 q 589 56 635 56 q 522 63 544 56 q 493 92 500 69 q 486 160 486 114 l 486 175 q 458 206 486 206 q 431 175 431 206 l 431 160 q 424 92 431 114 q 394 63 417 69 q 326 56 372 56 l 269 56 m 76 917 q 81 972 76 954 q 106 994 86 989 q 167 999 125 999 l 239 999 q 301 994 282 999 q 324 972 319 989 q 329 917 329 954 q 324 862 329 879 q 301 839 319 844 q 239 833 282 833 l 167 833 q 106 839 125 833 q 81 862 86 844 q 76 917 76 879 m 333 340 q 363 308 333 308 q 390 340 390 308 l 390 383 q 363 415 390 415 q 333 383 333 415 l 333 340 m 385 917 q 390 972 385 954 q 414 994 394 989 q 475 999 433 999 l 547 999 q 609 994 590 999 q 633 972 628 989 q 638 917 638 954 q 633 862 638 879 q 609 839 628 844 q 547 833 590 833 l 475 833 q 414 839 433 833 q 390 862 394 844 q 385 917 385 879 z "},"à":{"ha":719,"x_min":28,"x_max":692,"o":"m 269 56 q 90 104 151 56 q 28 271 28 153 l 28 360 q 33 448 28 421 q 57 482 38 475 q 118 489 76 489 l 325 489 q 356 517 356 489 q 325 544 356 544 l 118 544 q 57 551 76 544 q 33 579 38 557 q 28 649 28 601 l 28 674 q 35 740 28 718 q 64 770 42 763 q 132 778 86 778 l 449 778 q 630 722 568 778 q 692 547 692 667 l 692 160 q 685 93 692 115 q 656 63 678 71 q 589 56 635 56 q 522 63 544 56 q 493 92 500 69 q 486 160 486 114 l 486 175 q 458 206 486 206 q 431 175 431 206 l 431 160 q 424 92 431 114 q 394 63 417 69 q 326 56 372 56 l 269 56 m 210 900 l 210 974 q 233 1031 210 1017 q 317 1019 257 1044 l 413 979 q 482 940 464 957 q 500 892 500 922 q 483 847 500 861 q 415 833 465 833 l 297 833 q 228 847 246 833 q 210 900 210 861 m 333 340 q 363 308 333 308 q 390 340 390 308 l 390 383 q 363 415 390 415 q 333 383 333 415 l 333 340 z "},"ā":{"ha":719,"x_min":28,"x_max":692,"o":"m 269 56 q 90 104 151 56 q 28 271 28 153 l 28 360 q 33 448 28 421 q 57 482 38 475 q 118 489 76 489 l 325 489 q 356 517 356 489 q 325 544 356 544 l 118 544 q 57 551 76 544 q 33 579 38 557 q 28 649 28 601 l 28 674 q 35 740 28 718 q 64 770 42 763 q 132 778 86 778 l 449 778 q 630 722 568 778 q 692 547 692 667 l 692 160 q 685 93 692 115 q 656 63 678 71 q 589 56 635 56 q 522 63 544 56 q 493 92 500 69 q 486 160 486 114 l 486 175 q 458 206 486 206 q 431 175 431 206 l 431 160 q 424 92 431 114 q 394 63 417 69 q 326 56 372 56 l 269 56 m 161 917 q 166 972 161 954 q 190 994 171 989 q 251 999 210 999 l 463 999 q 524 994 506 999 q 548 972 543 989 q 553 917 553 954 q 548 862 553 879 q 524 839 543 844 q 463 833 506 833 l 251 833 q 190 839 210 833 q 166 862 171 844 q 161 917 161 879 m 333 340 q 363 308 333 308 q 390 340 390 308 l 390 383 q 363 415 390 415 q 333 383 333 415 l 333 340 z "},"ą":{"ha":719,"x_min":28,"x_max":692,"o":"m 594 -147 q 512 -144 538 -160 q 486 -65 486 -128 l 486 189 q 458 219 486 219 q 431 189 431 219 l 431 160 q 424 92 431 114 q 394 63 417 69 q 326 56 372 56 l 269 56 q 90 104 153 56 q 28 271 28 153 l 28 360 q 33 448 28 421 q 57 482 38 475 q 118 489 76 489 l 339 489 q 369 517 369 489 q 339 544 369 544 l 118 544 q 57 551 76 544 q 33 579 38 557 q 28 649 28 601 l 28 674 q 35 740 28 718 q 64 770 42 763 q 132 778 86 778 l 449 778 q 630 722 568 778 q 692 547 692 667 l 692 124 q 681 66 692 79 q 639 53 669 53 l 576 53 q 549 25 549 53 q 583 -3 549 -3 l 650 -3 q 682 -15 672 -3 q 692 -65 692 -26 q 680 -115 692 -100 q 640 -137 668 -131 l 594 -147 m 333 340 q 363 308 333 308 q 390 340 390 308 l 390 383 q 363 415 390 415 q 333 383 333 415 l 333 340 z "},"å":{"ha":719,"x_min":28,"x_max":692,"o":"m 269 56 q 90 104 151 56 q 28 271 28 153 l 28 360 q 33 448 28 421 q 57 482 38 475 q 118 489 76 489 l 325 489 q 356 517 356 489 q 325 544 356 544 l 118 544 q 57 551 76 544 q 33 579 38 557 q 28 649 28 601 l 28 674 q 35 740 28 718 q 64 770 42 763 q 132 778 86 778 l 449 778 q 630 722 568 778 q 692 547 692 667 l 692 160 q 685 93 692 115 q 656 63 678 71 q 589 56 635 56 q 522 63 544 56 q 493 92 500 69 q 486 160 486 114 l 486 175 q 458 206 486 206 q 431 175 431 206 l 431 160 q 424 92 431 114 q 394 63 417 69 q 326 56 372 56 l 269 56 m 124 972 q 138 1053 124 1024 q 190 1097 151 1083 q 297 1110 228 1110 l 411 1110 q 519 1097 482 1110 q 571 1053 557 1083 q 585 972 585 1024 q 571 890 585 921 q 519 847 557 860 q 411 833 482 833 l 297 833 q 190 847 228 833 q 138 890 151 860 q 124 972 124 921 m 294 971 q 326 943 294 943 l 382 943 q 414 971 414 943 q 382 1000 414 1000 l 326 1000 q 294 971 294 1000 m 333 340 q 363 308 333 308 q 390 340 390 308 l 390 383 q 363 415 390 415 q 333 383 333 415 l 333 340 z "},"ã":{"ha":719,"x_min":28,"x_max":692,"o":"m 269 56 q 90 104 151 56 q 28 271 28 153 l 28 360 q 33 448 28 421 q 57 482 38 475 q 118 489 76 489 l 325 489 q 356 517 356 489 q 325 544 356 544 l 118 544 q 57 551 76 544 q 33 579 38 557 q 28 649 28 601 l 28 674 q 35 740 28 718 q 64 770 42 763 q 132 778 86 778 l 449 778 q 630 722 568 778 q 692 547 692 667 l 692 160 q 685 93 692 115 q 656 63 678 71 q 589 56 635 56 q 522 63 544 56 q 493 92 500 69 q 486 160 486 114 l 486 175 q 458 206 486 206 q 431 175 431 206 l 431 160 q 424 92 431 114 q 394 63 417 69 q 326 56 372 56 l 269 56 m 76 1004 q 81 1061 76 1043 q 103 1084 86 1079 q 158 1089 121 1089 q 205 1083 189 1089 q 226 1058 221 1078 q 232 996 232 1039 q 239 961 232 969 q 260 953 246 953 q 281 961 275 953 q 288 996 288 969 q 299 1057 288 1038 q 347 1083 311 1076 q 454 1090 383 1090 q 566 1076 526 1090 q 622 1026 606 1063 q 638 919 638 989 q 633 863 638 881 q 611 840 628 844 q 556 835 594 835 q 509 840 525 835 q 488 866 493 846 q 482 928 482 886 q 476 963 482 954 q 454 971 469 971 q 433 963 440 971 q 426 928 426 954 q 415 867 426 888 q 367 841 403 847 q 260 833 332 835 q 149 847 189 833 q 92 899 108 861 q 76 1004 76 936 m 333 340 q 363 308 333 308 q 390 340 390 308 l 390 383 q 363 415 390 415 q 333 383 333 415 l 333 340 z "},"æ":{"ha":1121,"x_min":28,"x_max":1093,"o":"m 269 56 q 85 104 143 56 q 28 271 28 153 l 28 374 q 33 462 28 435 q 57 496 38 489 q 118 503 76 503 l 256 503 q 286 531 286 503 q 256 558 286 558 l 118 558 q 57 565 76 558 q 33 593 38 571 q 28 663 28 615 l 28 674 q 35 740 28 718 q 64 770 42 763 q 132 778 86 778 l 419 778 q 485 771 464 778 q 513 742 506 764 q 519 674 519 719 l 519 644 q 547 614 519 614 q 575 644 575 614 l 575 674 q 582 742 575 719 q 611 771 589 764 q 679 778 633 778 l 864 778 q 995 760 944 778 q 1069 699 1046 743 q 1093 576 1093 656 l 1093 468 q 1088 399 1093 421 q 1065 370 1083 376 q 1003 364 1046 364 l 867 364 q 836 336 836 364 q 867 308 836 308 l 1003 308 q 1065 301 1046 308 q 1088 270 1083 294 q 1093 190 1093 246 l 1093 160 q 1086 92 1093 115 q 1057 63 1079 69 q 989 56 1035 56 l 675 56 q 610 63 632 56 q 582 92 589 69 q 575 160 575 114 l 575 189 q 547 219 575 219 q 519 189 519 219 l 519 160 q 513 92 519 114 q 483 63 506 69 q 415 56 461 56 l 269 56 m 292 340 q 321 308 292 308 q 349 340 349 308 l 349 383 q 321 415 349 415 q 292 383 292 415 l 292 340 m 778 492 q 806 460 778 460 q 835 492 835 460 l 835 549 q 806 581 835 581 q 778 549 778 581 l 778 492 z "},"b":{"ha":704,"x_min":28,"x_max":676,"o":"m 132 56 q 64 63 86 56 q 35 93 42 71 q 28 160 28 115 l 28 882 q 47 955 28 938 q 132 972 65 972 l 215 972 q 283 965 261 972 q 313 939 306 958 q 319 882 319 919 l 319 829 q 333 790 319 801 q 378 778 347 778 l 419 778 q 564 754 507 778 q 649 672 621 731 q 676 507 676 613 l 676 326 q 650 160 676 219 q 567 78 624 101 q 419 56 511 56 l 132 56 m 324 325 q 353 293 324 293 q 381 325 381 293 l 381 507 q 353 539 381 539 q 324 507 324 539 l 324 325 z "},"c":{"ha":617,"x_min":28,"x_max":589,"o":"m 304 56 q 140 79 200 56 q 53 160 79 103 q 28 319 28 218 l 28 529 q 92 722 28 667 q 288 778 157 778 l 485 778 q 553 770 531 778 q 582 740 575 763 q 589 674 589 718 l 589 551 q 584 482 589 504 q 560 453 579 460 q 499 447 542 447 l 333 447 q 303 419 303 447 q 333 392 303 392 l 499 392 q 560 385 542 392 q 584 350 579 378 q 589 260 589 322 l 589 160 q 582 93 589 115 q 553 63 575 71 q 485 56 531 56 l 304 56 z "},"ć":{"ha":617,"x_min":28,"x_max":589,"o":"m 304 56 q 140 79 200 56 q 53 160 79 103 q 28 319 28 218 l 28 529 q 92 722 28 667 q 288 778 157 778 l 485 778 q 553 770 531 778 q 582 740 575 763 q 589 674 589 718 l 589 551 q 584 482 589 504 q 560 453 579 460 q 499 447 542 447 l 333 447 q 303 419 303 447 q 333 392 303 392 l 499 392 q 560 385 542 392 q 584 350 579 378 q 589 260 589 322 l 589 160 q 582 93 589 115 q 553 63 575 71 q 485 56 531 56 l 304 56 m 182 892 q 200 940 182 922 q 269 979 218 957 l 365 1019 q 449 1031 425 1044 q 472 974 472 1017 l 472 900 q 455 847 472 861 q 385 833 438 833 l 267 833 q 199 847 217 833 q 182 892 182 861 z "},"č":{"ha":617,"x_min":28,"x_max":589,"o":"m 304 56 q 140 79 200 56 q 53 160 79 103 q 28 319 28 218 l 28 529 q 92 722 28 667 q 288 778 157 778 l 485 778 q 553 770 531 778 q 582 740 575 763 q 589 674 589 718 l 589 551 q 584 482 589 504 q 560 453 579 460 q 499 447 542 447 l 333 447 q 303 419 303 447 q 333 392 303 392 l 499 392 q 560 385 542 392 q 584 350 579 378 q 589 260 589 322 l 589 160 q 582 93 589 115 q 553 63 575 71 q 485 56 531 56 l 304 56 m 83 1038 q 89 1068 83 1061 q 110 1075 94 1075 l 219 1075 q 284 1058 265 1075 q 303 992 303 1042 q 331 953 303 953 q 358 992 358 953 q 377 1058 358 1042 q 442 1075 396 1075 l 551 1075 q 572 1068 567 1075 q 578 1038 578 1061 q 567 997 578 1010 l 431 857 q 376 833 407 833 l 285 833 q 232 858 256 833 l 97 996 q 83 1038 83 1011 z "},"ç":{"ha":644,"x_min":28,"x_max":617,"o":"m 236 -275 q 173 -262 188 -275 q 158 -217 158 -249 q 174 -160 158 -176 q 228 -144 189 -144 l 383 -144 q 417 -117 417 -144 q 383 -89 417 -89 l 264 -89 q 224 -75 233 -89 q 215 -17 215 -61 l 215 29 q 182 69 215 63 q 69 149 110 89 q 28 329 28 208 l 28 522 q 86 720 28 663 q 271 778 144 778 l 513 778 q 581 770 558 778 q 610 740 603 763 q 617 674 617 718 l 617 551 q 612 482 617 504 q 588 453 607 460 q 526 447 569 447 l 338 447 q 307 419 307 447 q 338 392 307 392 l 526 392 q 588 385 569 392 q 612 350 607 378 q 617 260 617 322 l 617 160 q 610 93 617 115 q 581 63 603 71 q 513 56 558 56 l 403 56 q 371 28 371 56 q 403 0 371 0 l 450 0 q 570 -29 535 0 q 606 -136 606 -58 q 561 -238 606 -201 q 400 -275 517 -275 l 236 -275 z "},"ċ":{"ha":617,"x_min":28,"x_max":589,"o":"m 304 56 q 140 79 200 56 q 53 160 79 103 q 28 319 28 218 l 28 529 q 92 722 28 667 q 288 778 157 778 l 485 778 q 553 770 531 778 q 582 740 575 763 q 589 674 589 718 l 589 551 q 584 482 589 504 q 560 453 579 460 q 499 447 542 447 l 333 447 q 303 419 303 447 q 333 392 303 392 l 499 392 q 560 385 542 392 q 584 350 579 378 q 589 260 589 322 l 589 160 q 582 93 589 115 q 553 63 575 71 q 485 56 531 56 l 304 56 m 200 917 q 205 972 200 954 q 229 994 210 989 q 290 999 249 999 l 376 999 q 438 994 419 999 q 462 972 457 989 q 467 917 467 954 q 462 862 467 879 q 438 839 457 844 q 376 833 419 833 l 290 833 q 229 839 249 833 q 205 862 210 844 q 200 917 200 879 z "},"d":{"ha":704,"x_min":28,"x_max":676,"o":"m 285 56 q 137 78 193 56 q 54 160 81 101 q 28 326 28 219 l 28 507 q 56 672 28 613 q 141 754 83 731 q 285 778 199 778 l 326 778 q 371 790 357 778 q 385 829 385 801 l 385 882 q 392 939 385 919 q 421 965 399 958 q 489 972 443 972 l 572 972 q 658 955 639 972 q 676 882 676 938 l 676 160 q 669 93 676 115 q 640 63 663 71 q 572 56 618 56 l 285 56 m 324 325 q 351 293 324 293 q 381 325 381 293 l 381 507 q 351 539 381 539 q 324 507 324 539 l 324 325 z "},"ð":{"ha":826,"x_min":28,"x_max":801,"o":"m 229 56 q 71 106 114 56 q 28 271 28 157 l 28 410 q 74 584 28 529 q 229 639 119 639 l 301 639 q 372 635 350 639 q 399 615 393 631 q 406 563 406 599 l 406 538 q 433 507 406 507 q 461 538 461 507 l 461 643 q 451 684 461 674 q 413 694 440 694 l 331 694 q 298 704 307 694 q 289 744 289 714 l 289 817 q 298 854 289 844 q 329 864 307 864 l 351 864 q 394 874 382 864 q 401 906 406 883 l 399 919 q 403 972 392 956 q 458 993 414 989 l 557 1001 q 615 989 596 1004 q 647 925 635 974 l 650 914 q 665 890 654 896 q 700 892 676 883 l 733 903 q 772 904 760 911 q 788 869 783 897 l 797 799 q 792 754 801 768 q 751 731 783 740 l 721 721 q 699 708 704 715 q 694 685 694 700 l 694 313 q 673 162 694 218 q 601 81 651 106 q 465 56 551 56 l 229 56 m 279 357 q 308 325 279 325 q 336 357 336 325 l 336 400 q 308 432 336 432 q 279 400 279 432 l 279 357 z "},"ď":{"ha":925,"x_min":28,"x_max":901,"o":"m 782 697 q 743 710 754 697 q 732 754 732 722 l 732 868 q 748 951 732 932 q 808 969 764 969 l 833 969 q 890 949 878 969 q 890 868 901 929 l 875 782 q 851 715 867 732 q 803 697 835 697 l 782 697 m 28 326 l 28 507 q 56 672 28 613 q 141 754 83 731 q 285 778 199 778 l 326 778 q 371 790 357 778 q 385 829 385 801 l 385 882 q 392 939 385 919 q 421 965 399 958 q 489 972 443 972 l 572 972 q 658 955 639 972 q 676 882 676 938 l 676 160 q 669 93 676 115 q 640 63 663 71 q 572 56 618 56 l 285 56 q 137 78 193 56 q 54 160 81 101 q 28 326 28 219 m 324 325 q 351 293 324 293 q 381 325 381 293 l 381 507 q 351 539 381 539 q 324 507 324 539 l 324 325 z "},"đ":{"ha":824,"x_min":28,"x_max":796,"o":"m 285 56 q 90 115 151 56 q 28 326 28 175 l 28 382 q 86 592 28 532 q 271 653 144 653 l 356 653 q 388 681 388 653 q 356 708 388 708 l 289 708 q 252 721 264 708 q 240 771 240 733 l 240 786 q 252 836 240 824 q 289 849 264 849 l 335 849 q 379 863 367 849 q 392 910 392 876 l 392 924 q 410 973 392 960 q 496 986 428 986 l 565 986 q 651 972 632 986 q 669 924 669 958 l 669 910 q 683 863 669 876 q 726 849 696 849 l 758 849 q 785 836 775 849 q 796 786 796 824 l 796 771 q 785 721 796 733 q 758 708 775 708 l 725 708 q 688 694 700 708 q 676 647 676 681 l 676 160 q 669 93 676 115 q 640 63 663 71 q 572 56 618 56 l 285 56 m 324 325 q 351 293 324 293 q 381 325 381 293 l 381 382 q 351 414 381 414 q 324 382 324 414 l 324 325 z "},"e":{"ha":690,"x_min":28,"x_max":663,"o":"m 271 56 q 124 74 176 56 q 49 139 71 92 q 28 271 28 186 l 28 576 q 47 697 28 653 q 112 759 65 740 q 243 778 158 778 l 433 778 q 614 731 565 778 q 663 576 663 685 l 663 482 q 658 413 663 435 q 634 384 653 390 q 572 378 615 378 l 381 378 q 350 350 350 378 q 381 322 350 322 l 572 322 q 634 315 615 322 q 658 284 653 308 q 663 204 663 260 l 663 160 q 656 92 663 115 q 626 63 649 69 q 558 56 604 56 l 271 56 m 319 478 q 347 446 319 446 q 376 478 376 446 l 376 549 q 347 581 376 581 q 319 549 319 581 l 319 478 z "},"é":{"ha":690,"x_min":28,"x_max":663,"o":"m 271 56 q 124 74 176 56 q 49 139 71 92 q 28 271 28 186 l 28 576 q 47 697 28 653 q 112 759 65 740 q 243 778 158 778 l 433 778 q 614 731 565 778 q 663 576 663 685 l 663 482 q 658 413 663 435 q 634 384 653 390 q 572 378 615 378 l 381 378 q 350 350 350 378 q 381 322 350 322 l 572 322 q 634 315 615 322 q 658 284 653 308 q 663 204 663 260 l 663 160 q 656 92 663 115 q 626 63 649 69 q 558 56 604 56 l 271 56 m 194 892 q 213 940 194 922 q 282 979 231 957 l 378 1019 q 461 1031 438 1044 q 485 974 485 1017 l 485 900 q 467 847 485 861 q 397 833 450 833 l 279 833 q 212 847 229 833 q 194 892 194 861 m 319 478 q 347 446 319 446 q 376 478 376 446 l 376 549 q 347 581 376 581 q 319 549 319 581 l 319 478 z "},"ě":{"ha":690,"x_min":28,"x_max":663,"o":"m 271 56 q 124 74 176 56 q 49 139 71 92 q 28 271 28 186 l 28 576 q 47 697 28 653 q 112 759 65 740 q 243 778 158 778 l 433 778 q 614 731 565 778 q 663 576 663 685 l 663 482 q 658 413 663 435 q 634 384 653 390 q 572 378 615 378 l 381 378 q 350 350 350 378 q 381 322 350 322 l 572 322 q 634 315 615 322 q 658 284 653 308 q 663 204 663 260 l 663 160 q 656 92 663 115 q 626 63 649 69 q 558 56 604 56 l 271 56 m 96 1038 q 101 1068 96 1061 q 122 1075 107 1075 l 232 1075 q 297 1058 278 1075 q 315 992 315 1042 q 343 953 315 953 q 371 992 371 953 q 390 1058 371 1042 q 454 1075 408 1075 l 564 1075 q 585 1068 579 1075 q 590 1038 590 1061 q 579 997 590 1010 l 443 857 q 389 833 419 833 l 297 833 q 244 858 268 833 l 110 996 q 96 1038 96 1011 m 319 478 q 347 446 319 446 q 376 478 376 446 l 376 549 q 347 581 376 581 q 319 549 319 581 l 319 478 z "},"ê":{"ha":690,"x_min":28,"x_max":663,"o":"m 271 56 q 124 74 176 56 q 49 139 71 92 q 28 271 28 186 l 28 576 q 47 697 28 653 q 112 759 65 740 q 243 778 158 778 l 433 778 q 614 731 565 778 q 663 576 663 685 l 663 482 q 658 413 663 435 q 634 384 653 390 q 572 378 615 378 l 381 378 q 350 350 350 378 q 381 322 350 322 l 572 322 q 634 315 615 322 q 658 284 653 308 q 663 204 663 260 l 663 160 q 656 92 663 115 q 626 63 649 69 q 558 56 604 56 l 271 56 m 99 871 q 110 911 99 899 l 246 1051 q 300 1075 269 1075 l 392 1075 q 444 1050 421 1075 l 579 913 q 593 871 593 897 q 588 841 593 849 q 567 833 582 833 l 457 833 q 392 850 411 833 q 374 917 374 867 q 346 956 374 956 q 318 917 318 956 q 299 850 318 867 q 235 833 281 833 l 125 833 q 104 841 110 833 q 99 871 99 849 m 319 478 q 347 446 319 446 q 376 478 376 446 l 376 549 q 347 581 376 581 q 319 549 319 581 l 319 478 z "},"ë":{"ha":690,"x_min":28,"x_max":663,"o":"m 271 56 q 124 74 176 56 q 49 139 71 92 q 28 271 28 186 l 28 576 q 47 697 28 653 q 112 759 65 740 q 243 778 158 778 l 433 778 q 614 731 565 778 q 663 576 663 685 l 663 482 q 658 413 663 435 q 634 384 653 390 q 572 378 615 378 l 381 378 q 350 350 350 378 q 381 322 350 322 l 572 322 q 634 315 615 322 q 658 284 653 308 q 663 204 663 260 l 663 160 q 656 92 663 115 q 626 63 649 69 q 558 56 604 56 l 271 56 m 65 917 q 70 972 65 954 q 94 994 75 989 q 156 999 114 999 l 228 999 q 290 994 271 999 q 313 972 308 989 q 318 917 318 954 q 313 862 318 879 q 290 839 308 844 q 228 833 271 833 l 156 833 q 94 839 114 833 q 70 862 75 844 q 65 917 65 879 m 319 478 q 347 446 319 446 q 376 478 376 446 l 376 549 q 347 581 376 581 q 319 549 319 581 l 319 478 m 374 917 q 378 972 374 954 q 403 994 383 989 q 464 999 422 999 l 536 999 q 598 994 579 999 q 622 972 617 989 q 626 917 626 954 q 622 862 626 879 q 598 839 617 844 q 536 833 579 833 l 464 833 q 403 839 422 833 q 378 862 383 844 q 374 917 374 879 z "},"ė":{"ha":690,"x_min":28,"x_max":663,"o":"m 271 56 q 124 74 176 56 q 49 139 71 92 q 28 271 28 186 l 28 576 q 47 697 28 653 q 112 759 65 740 q 243 778 158 778 l 433 778 q 614 731 565 778 q 663 576 663 685 l 663 482 q 658 413 663 435 q 634 384 653 390 q 572 378 615 378 l 381 378 q 350 350 350 378 q 381 322 350 322 l 572 322 q 634 315 615 322 q 658 284 653 308 q 663 204 663 260 l 663 160 q 656 92 663 115 q 626 63 649 69 q 558 56 604 56 l 271 56 m 213 917 q 217 972 213 954 q 242 994 222 989 q 303 999 261 999 l 389 999 q 451 994 432 999 q 474 972 469 989 q 479 917 479 954 q 474 862 479 879 q 451 839 469 844 q 389 833 432 833 l 303 833 q 242 839 261 833 q 217 862 222 844 q 213 917 213 879 m 319 478 q 347 446 319 446 q 376 478 376 446 l 376 549 q 347 581 376 581 q 319 549 319 581 l 319 478 z "},"è":{"ha":690,"x_min":28,"x_max":663,"o":"m 271 56 q 124 74 176 56 q 49 139 71 92 q 28 271 28 186 l 28 576 q 47 697 28 653 q 112 759 65 740 q 243 778 158 778 l 433 778 q 614 731 565 778 q 663 576 663 685 l 663 482 q 658 413 663 435 q 634 384 653 390 q 572 378 615 378 l 381 378 q 350 350 350 378 q 381 322 350 322 l 572 322 q 634 315 615 322 q 658 284 653 308 q 663 204 663 260 l 663 160 q 656 92 663 115 q 626 63 649 69 q 558 56 604 56 l 271 56 m 199 900 l 199 974 q 222 1031 199 1017 q 306 1019 246 1044 l 401 979 q 471 940 453 957 q 489 892 489 922 q 472 847 489 861 q 404 833 454 833 l 286 833 q 217 847 235 833 q 199 900 199 861 m 319 478 q 347 446 319 446 q 376 478 376 446 l 376 549 q 347 581 376 581 q 319 549 319 581 l 319 478 z "},"ē":{"ha":690,"x_min":28,"x_max":663,"o":"m 271 56 q 124 74 176 56 q 49 139 71 92 q 28 271 28 186 l 28 576 q 47 697 28 653 q 112 759 65 740 q 243 778 158 778 l 433 778 q 614 731 565 778 q 663 576 663 685 l 663 482 q 658 413 663 435 q 634 384 653 390 q 572 378 615 378 l 381 378 q 350 350 350 378 q 381 322 350 322 l 572 322 q 634 315 615 322 q 658 284 653 308 q 663 204 663 260 l 663 160 q 656 92 663 115 q 626 63 649 69 q 558 56 604 56 l 271 56 m 150 917 q 155 972 150 954 q 179 994 160 989 q 240 999 199 999 l 451 999 q 513 994 494 999 q 537 972 532 989 q 542 917 542 954 q 537 862 542 879 q 513 839 532 844 q 451 833 494 833 l 240 833 q 179 839 199 833 q 155 862 160 844 q 150 917 150 879 m 319 478 q 347 446 319 446 q 376 478 376 446 l 376 549 q 347 581 376 581 q 319 549 319 581 l 319 478 z "},"ę":{"ha":690,"x_min":28,"x_max":663,"o":"m 551 -169 q 432 -160 469 -183 q 394 -69 394 -137 l 394 13 q 358 56 394 56 l 285 56 q 128 74 183 56 q 50 140 72 93 q 28 271 28 186 l 28 576 q 49 699 28 656 q 118 760 71 743 q 243 778 165 778 l 433 778 q 608 733 553 778 q 663 576 663 688 l 663 482 q 658 413 663 435 q 634 384 653 390 q 572 378 615 378 l 367 378 q 336 350 336 378 q 367 322 336 322 l 572 322 q 634 315 615 322 q 658 284 653 308 q 663 204 663 260 l 663 160 q 651 77 663 99 q 599 56 639 56 l 540 56 q 507 28 507 56 q 516 7 507 14 q 547 0 525 0 l 621 0 q 653 -14 643 0 q 663 -79 663 -28 q 651 -139 663 -122 q 611 -160 639 -156 l 551 -169 m 319 478 q 347 446 319 446 q 376 478 376 446 l 376 549 q 347 581 376 581 q 319 549 319 581 l 319 478 z "},"ə":{"ha":675,"x_min":28,"x_max":647,"o":"m 132 56 q 64 63 86 56 q 35 93 42 71 q 28 160 28 115 l 28 183 q 35 253 28 232 q 63 281 42 275 q 125 288 83 288 l 325 288 q 353 315 353 288 q 325 343 353 343 l 125 343 q 63 349 83 343 q 35 378 42 356 q 28 447 28 400 l 28 526 q 88 720 28 663 q 285 778 147 778 l 404 778 q 548 752 494 778 q 624 669 601 726 q 647 513 647 611 l 647 322 q 622 163 647 221 q 542 80 596 104 q 404 56 489 56 l 132 56 m 308 492 q 338 460 308 460 q 365 492 365 460 l 365 536 q 338 567 365 567 q 308 536 308 567 l 308 492 z "},"f":{"ha":575,"x_min":28,"x_max":547,"o":"m 131 56 q 63 63 85 56 q 35 93 42 71 q 28 160 28 115 l 28 785 q 47 898 28 857 q 115 956 67 939 q 250 972 163 972 l 325 972 q 463 955 415 972 q 529 897 511 938 q 547 785 547 856 l 547 713 q 542 643 547 665 q 519 615 538 621 q 457 608 500 608 l 390 608 q 339 613 356 608 q 318 637 322 618 q 314 696 314 656 l 314 726 q 286 760 314 760 q 258 726 258 760 l 258 685 q 286 580 258 607 q 390 553 314 553 l 457 553 q 519 547 500 553 q 542 519 538 540 q 547 449 547 497 l 547 396 q 532 310 547 328 q 471 292 517 292 l 397 292 q 353 279 367 292 q 339 231 339 267 l 339 132 q 322 71 339 86 q 235 56 304 56 l 131 56 z "},"g":{"ha":700,"x_min":28,"x_max":672,"o":"m 132 -111 q 64 -104 86 -111 q 35 -74 42 -97 q 28 -7 28 -51 l 28 72 q 33 135 28 114 q 57 163 38 156 q 118 169 76 169 l 325 169 q 356 197 356 169 q 325 225 356 225 l 118 225 q 57 231 76 225 q 33 260 38 238 q 28 329 28 282 l 28 576 q 49 699 28 656 q 113 760 71 743 q 211 778 154 778 l 281 778 q 349 770 326 778 q 378 740 371 763 q 385 674 385 718 l 385 642 q 413 614 385 614 q 440 642 440 614 l 440 674 q 447 740 440 718 q 476 770 454 763 q 544 778 499 778 l 568 778 q 636 770 614 778 q 665 740 658 763 q 672 674 672 718 l 672 104 q 646 -27 672 19 q 563 -92 619 -74 q 415 -111 507 -111 l 132 -111 m 324 394 q 353 363 324 363 q 381 394 381 363 l 381 479 q 353 511 381 511 q 324 479 324 511 l 324 394 z "},"ğ":{"ha":700,"x_min":28,"x_max":672,"o":"m 132 -111 q 64 -104 86 -111 q 35 -74 42 -97 q 28 -7 28 -51 l 28 72 q 33 135 28 114 q 57 163 38 156 q 118 169 76 169 l 325 169 q 356 197 356 169 q 325 225 356 225 l 118 225 q 57 231 76 225 q 33 260 38 238 q 28 329 28 282 l 28 576 q 49 699 28 656 q 113 760 71 743 q 211 778 154 778 l 281 778 q 349 770 326 778 q 378 740 371 763 q 385 674 385 718 l 385 642 q 413 614 385 614 q 440 642 440 614 l 440 674 q 447 740 440 718 q 476 770 454 763 q 544 778 499 778 l 568 778 q 636 770 614 778 q 665 740 658 763 q 672 674 672 718 l 672 104 q 646 -27 672 19 q 563 -92 619 -74 q 415 -111 507 -111 l 132 -111 m 110 1024 q 122 1069 110 1060 q 181 1078 133 1078 l 226 1078 q 310 1064 293 1078 q 328 1001 328 1050 l 328 972 q 356 942 328 942 q 383 972 383 942 l 383 1001 q 390 1050 383 1033 q 419 1072 397 1067 q 488 1078 442 1078 l 531 1078 q 590 1069 579 1078 q 601 1024 601 1060 q 536 873 601 913 q 356 833 471 833 q 175 873 240 833 q 110 1024 110 913 m 324 394 q 353 363 324 363 q 381 394 381 363 l 381 479 q 353 511 381 511 q 324 479 324 511 l 324 394 z "},"ģ":{"ha":700,"x_min":28,"x_max":672,"o":"m 132 -111 q 64 -104 86 -111 q 35 -74 42 -97 q 28 -7 28 -51 l 28 72 q 33 135 28 114 q 57 163 38 156 q 118 169 76 169 l 325 169 q 356 197 356 169 q 325 225 356 225 l 118 225 q 57 231 76 225 q 33 260 38 238 q 28 329 28 282 l 28 576 q 49 699 28 656 q 113 760 71 743 q 211 778 154 778 l 281 778 q 349 770 326 778 q 378 740 371 763 q 385 674 385 718 l 385 642 q 413 614 385 614 q 440 642 440 614 l 440 674 q 447 740 440 718 q 476 770 454 763 q 544 778 499 778 l 568 778 q 636 770 614 778 q 665 740 658 763 q 672 674 672 718 l 672 104 q 646 -27 672 19 q 563 -92 619 -74 q 415 -111 507 -111 l 132 -111 m 224 938 l 224 1007 q 255 1104 224 1074 q 342 1135 286 1135 l 390 1135 q 454 1124 442 1135 q 467 1090 467 1114 q 454 1058 467 1068 q 389 1047 442 1047 l 371 1047 q 342 1019 342 1047 q 371 992 342 992 l 389 992 q 453 979 440 992 q 467 926 467 967 l 467 896 q 450 845 467 857 q 376 833 433 833 l 329 833 q 251 856 278 833 q 224 938 224 878 m 324 394 q 353 363 324 363 q 381 394 381 363 l 381 479 q 353 511 381 511 q 324 479 324 511 l 324 394 z "},"ġ":{"ha":700,"x_min":28,"x_max":672,"o":"m 132 -111 q 64 -104 86 -111 q 35 -74 42 -97 q 28 -7 28 -51 l 28 72 q 33 135 28 114 q 57 163 38 156 q 118 169 76 169 l 325 169 q 356 197 356 169 q 325 225 356 225 l 118 225 q 57 231 76 225 q 33 260 38 238 q 28 329 28 282 l 28 576 q 49 699 28 656 q 113 760 71 743 q 211 778 154 778 l 281 778 q 349 770 326 778 q 378 740 371 763 q 385 674 385 718 l 385 642 q 413 614 385 614 q 440 642 440 614 l 440 674 q 447 740 440 718 q 476 770 454 763 q 544 778 499 778 l 568 778 q 636 770 614 778 q 665 740 658 763 q 672 674 672 718 l 672 104 q 646 -27 672 19 q 563 -92 619 -74 q 415 -111 507 -111 l 132 -111 m 222 917 q 227 972 222 954 q 251 994 232 989 q 313 999 271 999 l 399 999 q 460 994 442 999 q 484 972 479 989 q 489 917 489 954 q 484 862 489 879 q 460 839 479 844 q 399 833 442 833 l 313 833 q 251 839 271 833 q 227 862 232 844 q 222 917 222 879 m 324 394 q 353 363 324 363 q 381 394 381 363 l 381 479 q 353 511 381 511 q 324 479 324 511 l 324 394 z "},"h":{"ha":694,"x_min":28,"x_max":667,"o":"m 132 56 q 64 63 86 56 q 35 93 42 71 q 28 160 28 115 l 28 882 q 46 943 28 928 q 132 958 64 958 l 215 958 q 302 943 285 958 q 319 882 319 928 l 319 838 q 333 794 319 807 q 381 782 346 782 l 554 782 q 639 756 611 782 q 667 650 667 729 l 667 160 q 660 93 667 115 q 631 63 653 71 q 563 56 608 56 l 479 56 q 411 63 433 56 q 382 93 389 71 q 375 160 375 115 l 375 454 q 347 490 375 490 q 319 454 319 490 l 319 160 q 313 93 319 115 q 283 63 306 71 q 215 56 261 56 l 132 56 z "},"ħ":{"ha":800,"x_min":28,"x_max":772,"o":"m 251 56 q 183 63 206 56 q 154 93 161 71 q 147 160 147 115 l 147 647 q 135 694 147 681 q 99 708 124 708 l 65 708 q 35 721 43 708 q 28 771 28 733 l 28 786 q 37 836 28 824 q 65 849 46 849 l 90 849 q 135 863 122 849 q 147 910 147 876 l 147 924 q 166 972 147 958 q 251 986 185 986 l 335 986 q 422 973 404 986 q 439 924 439 960 l 439 910 q 452 863 439 876 q 496 849 465 849 l 535 849 q 573 836 563 849 q 583 786 583 824 l 583 771 q 572 721 583 733 q 535 708 561 708 l 485 708 q 451 681 451 708 q 485 653 451 653 l 660 653 q 745 624 718 653 q 772 521 772 594 l 772 160 q 765 93 772 115 q 735 63 757 71 q 668 56 713 56 l 599 56 q 531 63 553 56 q 501 93 508 71 q 494 160 494 115 l 494 457 q 467 490 494 490 q 439 457 439 490 l 439 160 q 432 93 439 115 q 403 63 425 71 q 335 56 381 56 l 251 56 z "},"i":{"ha":367,"x_min":28,"x_max":339,"o":"m 135 56 q 66 63 89 56 q 35 93 43 71 q 28 160 28 115 l 28 661 q 49 755 28 731 q 129 779 69 779 l 240 779 q 320 755 301 779 q 339 661 339 731 l 339 160 q 332 93 339 115 q 303 63 325 71 q 235 56 281 56 l 135 56 m 28 939 l 28 951 q 42 1038 28 1019 q 104 1056 57 1056 l 235 1056 q 303 1049 281 1056 q 332 1019 325 1042 q 339 951 339 997 l 339 939 q 332 872 339 894 q 303 842 325 850 q 235 835 281 835 l 132 835 q 64 842 86 835 q 35 872 42 850 q 28 939 28 894 z "},"ı":{"ha":350,"x_min":28,"x_max":322,"o":"m 135 56 q 66 63 89 56 q 35 93 43 71 q 28 160 28 115 l 28 661 q 51 755 28 731 q 143 779 75 779 l 210 779 q 300 755 278 779 q 322 661 322 731 l 322 160 q 315 93 322 115 q 285 63 307 71 q 218 56 263 56 l 135 56 z "},"í":{"ha":350,"x_min":28,"x_max":322,"o":"m 135 56 q 66 63 89 56 q 35 93 43 71 q 28 160 28 115 l 28 661 q 51 755 28 731 q 143 779 75 779 l 210 779 q 300 755 278 779 q 322 661 322 731 l 322 160 q 315 93 322 115 q 285 63 307 71 q 218 56 263 56 l 135 56 m 29 893 q 47 941 29 924 q 117 981 65 958 l 213 1021 q 296 1032 272 1046 q 319 975 319 1018 l 319 901 q 302 849 319 863 q 232 835 285 835 l 114 835 q 47 849 64 835 q 29 893 29 863 z "},"î":{"ha":351,"x_min":28,"x_max":322,"o":"m 135 56 q 66 63 89 56 q 35 93 43 71 q 28 160 28 115 l 28 647 q 51 753 28 726 q 143 779 75 779 l 210 779 q 300 753 278 779 q 322 647 322 726 l 322 160 q 315 93 322 115 q 286 63 308 71 q 218 56 264 56 l 135 56 m 36 869 q 39 903 36 889 q 51 935 42 917 l 106 1044 q 126 1069 114 1063 q 164 1076 138 1076 l 194 1076 q 233 1069 222 1076 q 253 1044 243 1063 l 310 933 q 320 903 318 917 q 322 869 322 889 q 316 842 322 849 q 292 835 310 835 l 264 835 q 222 842 238 835 q 207 890 207 850 q 179 929 207 929 q 151 890 151 929 q 136 843 151 851 q 94 835 121 835 l 67 835 q 42 842 49 835 q 36 869 36 849 z "},"ï":{"ha":350,"x_min":28,"x_max":326,"o":"m 135 56 q 66 63 89 56 q 35 93 43 71 q 28 160 28 115 l 28 661 q 51 755 28 731 q 143 779 75 779 l 210 779 q 300 755 278 779 q 322 661 322 731 l 322 160 q 315 93 322 115 q 285 63 307 71 q 218 56 263 56 l 135 56 m 32 917 q 41 985 32 972 q 89 999 50 999 l 92 999 q 142 985 132 999 q 151 917 151 972 q 142 847 151 861 q 92 833 132 833 l 89 833 q 41 847 50 833 q 32 917 32 861 m 207 917 q 217 985 207 972 q 267 999 226 999 l 269 999 q 317 985 308 999 q 326 917 326 972 q 317 847 326 861 q 269 833 308 833 l 267 833 q 217 847 226 833 q 207 917 207 861 z "},"ì":{"ha":350,"x_min":28,"x_max":322,"o":"m 135 56 q 66 63 89 56 q 35 93 43 71 q 28 160 28 115 l 28 661 q 51 755 28 731 q 143 779 75 779 l 210 779 q 300 755 278 779 q 322 661 322 731 l 322 160 q 315 93 322 115 q 285 63 307 71 q 218 56 263 56 l 135 56 m 33 915 l 33 953 q 58 1017 33 1001 q 153 1013 83 1032 l 226 993 q 302 961 283 979 q 321 903 321 943 q 301 849 321 864 q 225 835 281 835 l 139 835 q 55 850 76 835 q 33 915 33 865 z "},"ĳ":{"ha":733,"x_min":28,"x_max":706,"o":"m 135 56 q 66 63 89 56 q 35 93 43 71 q 28 160 28 115 l 28 661 q 49 755 28 731 q 129 779 69 779 l 240 779 q 320 755 301 779 q 339 661 339 731 l 339 160 q 332 93 339 115 q 303 63 325 71 q 235 56 281 56 l 135 56 m 28 939 l 28 951 q 42 1038 28 1019 q 104 1056 57 1056 l 235 1056 q 303 1049 281 1056 q 332 1019 325 1042 q 339 951 339 997 l 339 939 q 332 872 339 894 q 303 842 325 850 q 235 835 281 835 l 132 835 q 64 842 86 835 q 35 872 42 850 q 28 939 28 894 m 394 -7 l 394 646 q 415 751 394 725 q 496 778 436 778 l 604 778 q 685 751 664 778 q 706 646 706 725 l 706 146 q 681 -12 706 43 q 612 -90 657 -68 q 501 -111 567 -111 l 474 -111 q 410 -92 426 -111 q 394 -7 394 -74 m 394 938 l 394 951 q 401 1019 394 997 q 426 1049 407 1042 q 485 1056 446 1056 l 601 1056 q 669 1049 647 1056 q 699 1019 692 1042 q 706 951 706 997 l 706 938 q 699 871 706 893 q 669 841 692 849 q 601 833 647 833 l 499 833 q 431 841 453 833 q 401 871 408 849 q 394 938 394 893 z "},"ī":{"ha":350,"x_min":28,"x_max":322,"o":"m 135 56 q 66 63 89 56 q 35 93 43 71 q 28 160 28 115 l 28 661 q 51 755 28 731 q 143 779 75 779 l 210 779 q 300 755 278 779 q 322 661 322 731 l 322 160 q 315 93 322 115 q 285 63 307 71 q 218 56 263 56 l 135 56 m 28 918 q 33 863 28 881 q 57 840 38 846 q 118 835 76 835 l 232 835 q 294 840 275 835 q 317 863 313 846 q 322 918 322 881 q 317 973 322 956 q 294 995 313 990 q 232 1000 275 1000 l 118 1000 q 57 995 76 1000 q 33 973 38 990 q 28 918 28 956 z "},"į":{"ha":350,"x_min":28,"x_max":322,"o":"m 228 -140 q 131 -129 160 -150 q 103 -49 103 -108 l 103 13 q 67 56 103 56 q 38 72 49 56 q 28 136 28 88 l 28 647 q 54 753 28 726 q 143 779 81 779 l 210 779 q 297 753 272 779 q 322 647 322 726 l 322 160 q 310 74 322 93 q 260 56 297 56 l 249 56 q 215 28 215 56 q 224 7 215 14 q 256 0 233 0 l 281 0 q 313 -12 303 0 q 322 -69 322 -25 q 310 -115 322 -100 q 271 -133 299 -129 l 228 -140 m 46 918 q 51 973 46 956 q 75 995 56 990 q 136 1000 94 1000 l 222 1000 q 284 995 265 1000 q 308 973 303 990 q 313 918 313 956 q 308 863 313 881 q 284 840 303 846 q 222 835 265 835 l 136 835 q 75 840 94 835 q 51 863 56 846 q 46 918 46 881 z "},"j":{"ha":367,"x_min":28,"x_max":339,"o":"m 107 -111 q 44 -92 60 -111 q 28 -7 28 -74 l 28 646 q 49 751 28 725 q 129 778 69 778 l 238 778 q 318 751 297 778 q 339 646 339 725 l 339 146 q 315 -12 339 43 q 245 -90 290 -68 q 135 -111 200 -111 l 107 -111 m 28 938 l 28 951 q 34 1019 28 997 q 60 1049 40 1042 q 118 1056 79 1056 l 235 1056 q 303 1049 281 1056 q 332 1019 325 1042 q 339 951 339 997 l 339 938 q 332 871 339 893 q 303 841 325 849 q 235 833 281 833 l 132 833 q 64 841 86 833 q 35 871 42 849 q 28 938 28 893 z "},"ȷ":{"ha":353,"x_min":28,"x_max":325,"o":"m 107 -111 q 44 -92 60 -111 q 28 -7 28 -74 l 28 646 q 54 751 28 725 q 143 778 81 778 l 210 778 q 299 751 272 778 q 325 646 325 725 l 325 146 q 299 -12 325 43 q 228 -90 274 -68 q 121 -111 182 -111 l 107 -111 z "},"k":{"ha":708,"x_min":28,"x_max":681,"o":"m 132 56 q 64 63 86 56 q 35 93 42 71 q 28 160 28 115 l 28 868 q 35 935 28 913 q 64 965 42 957 q 132 972 86 972 l 221 972 q 289 965 267 972 q 318 935 311 957 q 325 868 325 913 l 325 524 q 353 493 325 493 q 381 524 381 493 l 381 674 q 388 740 381 718 q 417 770 394 763 q 485 778 439 778 l 576 778 q 644 770 622 778 q 674 740 667 763 q 681 674 681 718 l 681 629 q 676 560 681 582 q 652 531 671 538 q 590 525 633 525 l 535 525 q 507 497 507 525 q 535 469 507 469 l 590 469 q 652 463 633 469 q 676 435 671 457 q 681 365 681 414 l 681 160 q 674 93 681 115 q 644 63 667 71 q 576 56 622 56 l 485 56 q 417 63 439 56 q 388 93 394 71 q 381 160 381 115 l 381 300 q 353 331 381 331 q 325 300 325 331 l 325 160 q 318 93 325 115 q 289 63 311 71 q 221 56 267 56 l 132 56 z "},"ķ":{"ha":708,"x_min":28,"x_max":681,"o":"m 132 56 q 64 63 86 56 q 35 93 42 71 q 28 160 28 115 l 28 868 q 35 935 28 913 q 64 965 42 957 q 132 972 86 972 l 221 972 q 289 965 267 972 q 318 935 311 957 q 325 868 325 913 l 325 524 q 353 493 325 493 q 381 524 381 493 l 381 674 q 388 740 381 718 q 417 770 394 763 q 485 778 439 778 l 576 778 q 644 770 622 778 q 674 740 667 763 q 681 674 681 718 l 681 629 q 676 560 681 582 q 652 531 671 538 q 590 525 633 525 l 535 525 q 507 497 507 525 q 535 469 507 469 l 590 469 q 652 463 633 469 q 676 435 671 457 q 681 365 681 414 l 681 160 q 674 93 681 115 q 644 63 667 71 q 576 56 622 56 l 485 56 q 417 63 439 56 q 388 93 394 71 q 381 160 381 115 l 381 300 q 353 331 381 331 q 325 300 325 331 l 325 160 q 318 93 325 115 q 289 63 311 71 q 221 56 267 56 l 132 56 m 246 -87 q 253 -21 238 -42 q 315 0 268 0 l 372 0 q 435 -21 421 0 q 442 -87 449 -42 l 431 -160 q 406 -217 425 -203 q 347 -231 388 -231 l 340 -231 q 284 -216 300 -231 q 260 -160 268 -201 l 246 -87 z "},"l":{"ha":356,"x_min":28,"x_max":328,"o":"m 135 56 q 66 63 89 56 q 35 93 43 71 q 28 160 28 115 l 28 861 q 51 949 28 925 q 129 972 74 972 l 229 972 q 309 949 290 972 q 328 861 328 925 l 328 160 q 321 93 328 115 q 292 63 314 71 q 224 56 269 56 l 135 56 z "},"ĺ":{"ha":356,"x_min":26,"x_max":328,"o":"m 135 56 q 66 63 89 56 q 35 93 43 71 q 28 160 28 115 l 28 861 q 51 949 28 925 q 129 972 74 972 l 229 972 q 309 949 290 972 q 328 861 328 925 l 328 160 q 321 93 328 115 q 292 63 314 71 q 224 56 269 56 l 135 56 m 26 1086 q 44 1134 26 1117 q 114 1174 63 1151 l 210 1214 q 293 1225 269 1239 q 317 1168 317 1211 l 317 1094 q 299 1042 317 1056 q 229 1028 282 1028 l 111 1028 q 44 1042 61 1028 q 26 1086 26 1056 z "},"ľ":{"ha":569,"x_min":28,"x_max":546,"o":"m 135 56 q 66 63 89 56 q 35 93 43 71 q 28 160 28 115 l 28 868 q 54 949 28 925 q 143 972 81 972 l 210 972 q 300 949 278 972 q 322 868 322 925 l 322 160 q 315 93 322 115 q 286 63 308 71 q 218 56 264 56 l 135 56 m 378 768 l 378 868 q 394 951 378 932 q 454 969 410 969 l 479 969 q 535 948 524 969 q 533 854 546 926 l 521 782 q 495 715 513 732 q 442 697 478 697 l 435 697 q 390 713 403 697 q 378 768 378 729 z "},"ļ":{"ha":356,"x_min":28,"x_max":328,"o":"m 135 56 q 66 63 89 56 q 35 93 43 71 q 28 160 28 115 l 28 861 q 51 949 28 925 q 129 972 74 972 l 229 972 q 309 949 290 972 q 328 861 328 925 l 328 160 q 321 93 328 115 q 292 63 314 71 q 224 56 269 56 l 135 56 m 79 -87 q 86 -21 71 -42 q 149 0 101 0 l 206 0 q 268 -21 254 0 q 275 -87 282 -42 l 264 -160 q 240 -217 258 -203 q 181 -231 221 -231 l 174 -231 q 117 -216 133 -231 q 93 -160 101 -201 l 79 -87 z "},"ł":{"ha":674,"x_min":28,"x_max":646,"o":"m 288 56 q 219 63 242 56 q 188 93 196 71 q 181 160 181 115 l 181 406 q 168 447 181 438 q 126 450 156 456 l 97 444 q 43 449 58 438 q 28 501 28 461 l 28 571 q 41 635 28 615 q 97 664 54 656 l 149 674 q 181 714 181 679 l 181 882 q 203 951 181 929 q 282 972 225 972 l 376 972 q 456 951 438 972 q 475 882 475 929 l 475 792 q 528 747 475 739 l 576 756 q 631 751 617 763 q 646 699 646 739 l 646 629 q 633 563 646 583 q 576 536 619 543 l 519 526 l 510 525 q 483 513 490 522 q 475 479 475 503 l 475 160 q 468 93 475 115 q 439 63 461 71 q 371 56 417 56 l 288 56 z "},"m":{"ha":1047,"x_min":28,"x_max":1019,"o":"m 132 56 q 64 63 86 56 q 35 93 42 71 q 28 160 28 115 l 28 650 q 53 752 28 726 q 140 778 78 778 l 147 778 q 211 770 190 778 q 239 741 232 763 q 246 676 246 719 l 246 672 q 274 642 246 642 q 301 672 301 642 l 301 676 q 308 741 301 719 q 338 770 315 763 q 406 778 360 778 l 453 778 q 521 772 499 778 q 550 744 543 765 q 557 678 557 722 l 557 619 q 585 583 557 583 q 613 619 613 583 l 613 678 q 619 742 613 721 q 649 770 626 763 q 717 778 671 778 l 907 778 q 994 752 969 778 q 1019 650 1019 726 l 1019 160 q 1013 93 1019 115 q 983 63 1006 71 q 915 56 961 56 l 822 56 q 754 63 776 56 q 725 93 732 71 q 718 160 718 115 l 718 425 q 690 463 718 463 q 663 425 663 463 l 663 160 q 656 93 663 115 q 626 63 649 71 q 558 56 604 56 l 489 56 q 421 63 443 56 q 392 93 399 71 q 385 160 385 115 l 385 425 q 357 463 385 463 q 329 425 329 463 l 329 160 q 322 93 329 115 q 293 63 315 71 q 225 56 271 56 l 132 56 z "},"n":{"ha":700,"x_min":28,"x_max":672,"o":"m 132 56 q 64 63 86 56 q 35 93 42 71 q 28 160 28 115 l 28 650 q 52 751 28 725 q 149 778 76 778 q 217 770 194 778 q 246 740 239 763 q 253 672 253 717 q 281 642 253 642 q 308 672 308 642 q 316 740 308 718 q 347 770 324 763 q 415 778 369 778 l 560 778 q 647 748 622 778 q 672 644 672 718 l 672 160 q 665 93 672 115 q 636 63 658 71 q 568 56 614 56 l 482 56 q 414 63 436 56 q 385 93 392 71 q 378 160 378 115 l 378 421 q 350 463 378 463 q 322 421 322 463 l 322 160 q 315 93 322 115 q 286 63 308 71 q 218 56 264 56 l 132 56 z "},"ń":{"ha":700,"x_min":28,"x_max":672,"o":"m 132 56 q 64 63 86 56 q 35 93 42 71 q 28 160 28 115 l 28 650 q 52 751 28 725 q 149 778 76 778 q 217 770 194 778 q 246 740 239 763 q 253 672 253 717 q 281 642 253 642 q 308 672 308 642 q 316 740 308 718 q 347 770 324 763 q 415 778 369 778 l 560 778 q 647 748 622 778 q 672 644 672 718 l 672 160 q 665 93 672 115 q 636 63 658 71 q 568 56 614 56 l 482 56 q 414 63 436 56 q 385 93 392 71 q 378 160 378 115 l 378 421 q 350 463 378 463 q 322 421 322 463 l 322 160 q 315 93 322 115 q 286 63 308 71 q 218 56 264 56 l 132 56 m 196 892 q 214 940 196 922 q 283 979 232 957 l 379 1019 q 463 1031 439 1044 q 486 974 486 1017 l 486 900 q 469 847 486 861 q 399 833 451 833 l 281 833 q 213 847 231 833 q 196 892 196 861 z "},"ň":{"ha":700,"x_min":28,"x_max":672,"o":"m 132 56 q 64 63 86 56 q 35 93 42 71 q 28 160 28 115 l 28 650 q 52 751 28 725 q 149 778 76 778 q 217 770 194 778 q 246 740 239 763 q 253 672 253 717 q 281 642 253 642 q 308 672 308 642 q 316 740 308 718 q 347 770 324 763 q 415 778 369 778 l 560 778 q 647 748 622 778 q 672 644 672 718 l 672 160 q 665 93 672 115 q 636 63 658 71 q 568 56 614 56 l 482 56 q 414 63 436 56 q 385 93 392 71 q 378 160 378 115 l 378 421 q 350 463 378 463 q 322 421 322 463 l 322 160 q 315 93 322 115 q 286 63 308 71 q 218 56 264 56 l 132 56 m 97 1038 q 103 1068 97 1061 q 124 1075 108 1075 l 233 1075 q 298 1058 279 1075 q 317 992 317 1042 q 344 953 317 953 q 372 992 372 953 q 391 1058 372 1042 q 456 1075 410 1075 l 565 1075 q 586 1068 581 1075 q 592 1038 592 1061 q 581 997 592 1010 l 444 857 q 390 833 421 833 l 299 833 q 246 858 269 833 l 111 996 q 97 1038 97 1011 z "},"ņ":{"ha":700,"x_min":28,"x_max":672,"o":"m 132 56 q 64 63 86 56 q 35 93 42 71 q 28 160 28 115 l 28 650 q 52 751 28 725 q 149 778 76 778 q 217 770 194 778 q 246 740 239 763 q 253 672 253 717 q 281 642 253 642 q 308 672 308 642 q 316 740 308 718 q 347 770 324 763 q 415 778 369 778 l 560 778 q 647 748 622 778 q 672 644 672 718 l 672 160 q 665 93 672 115 q 636 63 658 71 q 568 56 614 56 l 482 56 q 414 63 436 56 q 385 93 392 71 q 378 160 378 115 l 378 421 q 350 463 378 463 q 322 421 322 463 l 322 160 q 315 93 322 115 q 286 63 308 71 q 218 56 264 56 l 132 56 m 249 -87 q 256 -21 240 -42 q 318 0 271 0 l 375 0 q 438 -21 424 0 q 444 -87 451 -42 l 433 -160 q 409 -217 428 -203 q 350 -231 390 -231 l 343 -231 q 287 -216 303 -231 q 263 -160 271 -201 l 249 -87 z "},"ñ":{"ha":700,"x_min":28,"x_max":672,"o":"m 132 56 q 64 63 86 56 q 35 93 42 71 q 28 160 28 115 l 28 650 q 52 751 28 725 q 149 778 76 778 q 217 770 194 778 q 246 740 239 763 q 253 672 253 717 q 281 642 253 642 q 308 672 308 642 q 316 740 308 718 q 347 770 324 763 q 415 778 369 778 l 560 778 q 647 748 622 778 q 672 644 672 718 l 672 160 q 665 93 672 115 q 636 63 658 71 q 568 56 614 56 l 482 56 q 414 63 436 56 q 385 93 392 71 q 378 160 378 115 l 378 421 q 350 463 378 463 q 322 421 322 463 l 322 160 q 315 93 322 115 q 286 63 308 71 q 218 56 264 56 l 132 56 m 67 1004 q 72 1061 67 1043 q 94 1084 76 1079 q 149 1089 111 1089 q 195 1083 179 1089 q 217 1058 211 1078 q 222 996 222 1039 q 229 961 222 969 q 250 953 236 953 q 272 961 265 953 q 278 996 278 969 q 290 1057 278 1038 q 338 1083 301 1076 q 444 1090 374 1090 q 556 1076 517 1090 q 612 1026 596 1063 q 628 919 628 989 q 623 863 628 881 q 601 840 618 844 q 546 835 585 835 q 499 840 515 835 q 478 866 483 846 q 472 928 472 886 q 466 963 472 954 q 444 971 460 971 q 424 963 431 971 q 417 928 417 954 q 405 867 417 888 q 358 841 393 847 q 250 833 322 835 q 139 847 179 833 q 83 899 99 861 q 67 1004 67 936 z "},"o":{"ha":690,"x_min":28,"x_max":663,"o":"m 250 56 q 117 76 165 56 q 49 143 69 96 q 28 271 28 190 l 28 563 q 77 730 28 682 q 250 778 126 778 l 440 778 q 613 730 564 778 q 663 563 663 682 l 663 271 q 642 143 663 190 q 573 76 621 96 q 440 56 525 56 l 250 56 m 317 325 q 346 293 317 293 q 374 325 374 293 l 374 507 q 346 539 374 539 q 317 507 317 539 l 317 325 z "},"ó":{"ha":690,"x_min":28,"x_max":663,"o":"m 250 56 q 117 76 165 56 q 49 143 69 96 q 28 271 28 190 l 28 563 q 77 730 28 682 q 250 778 126 778 l 440 778 q 613 730 564 778 q 663 563 663 682 l 663 271 q 642 143 663 190 q 573 76 621 96 q 440 56 525 56 l 250 56 m 194 892 q 213 940 194 922 q 282 979 231 957 l 378 1019 q 461 1031 438 1044 q 485 974 485 1017 l 485 900 q 467 847 485 861 q 397 833 450 833 l 279 833 q 212 847 229 833 q 194 892 194 861 m 317 325 q 346 293 317 293 q 374 325 374 293 l 374 507 q 346 539 374 539 q 317 507 317 539 l 317 325 z "},"ô":{"ha":690,"x_min":28,"x_max":663,"o":"m 250 56 q 117 76 165 56 q 49 143 69 96 q 28 271 28 190 l 28 563 q 77 730 28 682 q 250 778 126 778 l 440 778 q 613 730 564 778 q 663 563 663 682 l 663 271 q 642 143 663 190 q 573 76 621 96 q 440 56 525 56 l 250 56 m 99 871 q 110 911 99 899 l 246 1051 q 300 1075 269 1075 l 392 1075 q 444 1050 421 1075 l 579 913 q 593 871 593 897 q 588 841 593 849 q 567 833 582 833 l 457 833 q 392 850 411 833 q 374 917 374 867 q 346 956 374 956 q 318 917 318 956 q 299 850 318 867 q 235 833 281 833 l 125 833 q 104 841 110 833 q 99 871 99 849 m 317 325 q 346 293 317 293 q 374 325 374 293 l 374 507 q 346 539 374 539 q 317 507 317 539 l 317 325 z "},"ö":{"ha":690,"x_min":28,"x_max":663,"o":"m 250 56 q 117 76 165 56 q 49 143 69 96 q 28 271 28 190 l 28 563 q 77 730 28 682 q 250 778 126 778 l 440 778 q 613 730 564 778 q 663 563 663 682 l 663 271 q 642 143 663 190 q 573 76 621 96 q 440 56 525 56 l 250 56 m 65 917 q 70 972 65 954 q 94 994 75 989 q 156 999 114 999 l 228 999 q 290 994 271 999 q 313 972 308 989 q 318 917 318 954 q 313 862 318 879 q 290 839 308 844 q 228 833 271 833 l 156 833 q 94 839 114 833 q 70 862 75 844 q 65 917 65 879 m 317 325 q 346 293 317 293 q 374 325 374 293 l 374 507 q 346 539 374 539 q 317 507 317 539 l 317 325 m 374 917 q 378 972 374 954 q 403 994 383 989 q 464 999 422 999 l 536 999 q 598 994 579 999 q 622 972 617 989 q 626 917 626 954 q 622 862 626 879 q 598 839 617 844 q 536 833 579 833 l 464 833 q 403 839 422 833 q 378 862 383 844 q 374 917 374 879 z "},"ò":{"ha":690,"x_min":28,"x_max":663,"o":"m 250 56 q 117 76 165 56 q 49 143 69 96 q 28 271 28 190 l 28 563 q 77 730 28 682 q 250 778 126 778 l 440 778 q 613 730 564 778 q 663 563 663 682 l 663 271 q 642 143 663 190 q 573 76 621 96 q 440 56 525 56 l 250 56 m 199 900 l 199 974 q 222 1031 199 1017 q 306 1019 246 1044 l 401 979 q 471 940 453 957 q 489 892 489 922 q 472 847 489 861 q 404 833 454 833 l 286 833 q 217 847 235 833 q 199 900 199 861 m 317 325 q 346 293 317 293 q 374 325 374 293 l 374 507 q 346 539 374 539 q 317 507 317 539 l 317 325 z "},"ő":{"ha":690,"x_min":28,"x_max":663,"o":"m 250 56 q 117 76 165 56 q 49 143 69 96 q 28 271 28 190 l 28 563 q 77 730 28 682 q 250 778 126 778 l 440 778 q 613 730 564 778 q 663 563 663 682 l 663 271 q 642 143 663 190 q 573 76 621 96 q 440 56 525 56 l 250 56 m 35 892 q 52 945 35 928 q 121 983 69 963 l 201 1015 q 289 1023 261 1039 q 317 958 317 1007 l 317 914 q 296 849 317 864 q 201 833 275 833 l 147 833 q 56 847 76 833 q 35 892 35 861 m 317 325 q 346 293 317 293 q 374 325 374 293 l 374 507 q 346 539 374 539 q 317 507 317 539 l 317 325 m 372 892 q 390 943 372 926 q 460 979 408 960 l 540 1011 q 628 1021 601 1035 q 654 958 654 1007 l 654 914 q 633 849 654 864 q 539 833 613 833 l 485 833 q 393 847 414 833 q 372 892 372 861 z "},"ō":{"ha":690,"x_min":28,"x_max":663,"o":"m 250 56 q 117 76 165 56 q 49 143 69 96 q 28 271 28 190 l 28 563 q 77 730 28 682 q 250 778 126 778 l 440 778 q 613 730 564 778 q 663 563 663 682 l 663 271 q 642 143 663 190 q 573 76 621 96 q 440 56 525 56 l 250 56 m 150 917 q 155 972 150 954 q 179 994 160 989 q 240 999 199 999 l 451 999 q 513 994 494 999 q 537 972 532 989 q 542 917 542 954 q 537 862 542 879 q 513 839 532 844 q 451 833 494 833 l 240 833 q 179 839 199 833 q 155 862 160 844 q 150 917 150 879 m 317 325 q 346 293 317 293 q 374 325 374 293 l 374 507 q 346 539 374 539 q 317 507 317 539 l 317 325 z "},"ø":{"ha":732,"x_min":28,"x_max":704,"o":"m 156 -71 q 103 -55 117 -71 q 103 0 90 -39 l 114 36 q 117 65 119 56 q 104 81 115 74 q 49 149 69 106 q 28 283 28 193 l 28 563 q 50 690 28 643 q 124 758 72 738 q 264 778 175 778 l 351 778 q 374 783 367 778 q 388 804 382 789 l 390 813 q 425 885 408 867 q 478 903 442 903 l 582 903 q 628 832 647 903 l 618 796 q 615 769 613 778 q 628 751 618 760 q 684 681 664 724 q 704 549 704 639 l 704 269 q 682 135 704 182 q 608 72 660 89 q 468 54 556 54 l 381 54 q 358 49 365 54 q 344 28 350 43 l 342 19 q 305 -56 322 -40 q 254 -71 288 -71 l 156 -71 m 338 297 q 365 265 338 265 q 394 297 394 265 l 394 326 q 365 358 394 358 q 338 326 338 358 l 338 297 m 338 506 q 367 474 338 474 q 394 506 394 474 l 394 535 q 367 567 394 567 q 338 535 338 567 l 338 506 z "},"õ":{"ha":690,"x_min":28,"x_max":663,"o":"m 250 56 q 117 76 165 56 q 49 143 69 96 q 28 271 28 190 l 28 563 q 77 730 28 682 q 250 778 126 778 l 440 778 q 613 730 564 778 q 663 563 663 682 l 663 271 q 642 143 663 190 q 573 76 621 96 q 440 56 525 56 l 250 56 m 65 1004 q 70 1061 65 1043 q 92 1084 75 1079 q 147 1089 110 1089 q 194 1083 178 1089 q 215 1058 210 1078 q 221 996 221 1039 q 228 961 221 969 q 249 953 235 953 q 270 961 264 953 q 276 996 276 969 q 288 1057 276 1038 q 336 1083 300 1076 q 443 1090 372 1090 q 555 1076 515 1090 q 610 1026 594 1063 q 626 919 626 989 q 622 863 626 881 q 600 840 617 844 q 544 835 583 835 q 498 840 514 835 q 476 866 482 846 q 471 928 471 886 q 465 963 471 954 q 443 971 458 971 q 422 963 429 971 q 415 928 415 954 q 403 867 415 888 q 356 841 392 847 q 249 833 321 835 q 137 847 176 833 q 81 899 97 861 q 65 1004 65 936 m 317 325 q 346 293 317 293 q 374 325 374 293 l 374 507 q 346 539 374 539 q 317 507 317 539 l 317 325 z "},"œ":{"ha":1232,"x_min":28,"x_max":1204,"o":"m 269 56 q 88 104 147 56 q 28 271 28 153 l 28 563 q 88 729 28 681 q 269 778 147 778 l 472 778 q 544 771 518 778 q 580 742 569 764 q 590 674 590 719 l 590 658 q 618 628 590 628 q 646 658 646 628 l 646 674 q 656 742 646 719 q 692 771 667 764 q 761 778 717 778 l 975 778 q 1147 736 1089 778 q 1204 576 1204 694 l 1204 482 q 1199 413 1204 435 q 1176 384 1194 390 q 1114 378 1157 378 l 992 378 q 961 350 961 378 q 992 322 961 322 l 1114 322 q 1176 315 1157 322 q 1199 284 1194 308 q 1204 204 1204 260 l 1204 160 q 1197 92 1204 115 q 1168 63 1190 69 q 1100 56 1146 56 l 761 56 q 692 63 717 56 q 656 92 667 69 q 646 160 646 114 l 646 175 q 618 206 646 206 q 590 175 590 206 l 590 160 q 580 92 590 114 q 544 63 569 69 q 472 56 518 56 l 269 56 m 294 353 q 324 321 294 321 q 351 353 351 321 l 351 479 q 324 511 351 511 q 294 479 294 511 l 294 353 m 889 492 q 917 460 889 460 q 946 492 946 460 l 946 549 q 917 581 946 581 q 889 549 889 581 l 889 492 z "},"p":{"ha":704,"x_min":28,"x_max":676,"o":"m 132 -111 q 64 -103 86 -111 q 35 -74 42 -96 q 28 -7 28 -51 l 28 674 q 35 740 28 718 q 64 770 42 763 q 132 778 86 778 l 419 778 q 567 754 511 778 q 650 673 624 731 q 676 515 676 615 l 676 319 q 613 114 676 172 q 419 56 549 56 l 381 56 q 333 42 346 56 q 319 3 319 28 l 319 -7 q 313 -74 319 -51 q 283 -103 306 -96 q 215 -111 261 -111 l 132 -111 m 324 326 q 353 294 324 294 q 381 326 381 294 l 381 508 q 353 540 381 540 q 324 508 324 540 l 324 326 z "},"þ":{"ha":704,"x_min":28,"x_max":676,"o":"m 132 -111 q 64 -103 86 -111 q 35 -74 42 -96 q 28 -7 28 -51 l 28 840 q 35 907 28 885 q 64 937 42 929 q 132 944 86 944 l 215 944 q 283 937 261 944 q 313 907 306 929 q 319 840 319 885 l 319 831 q 333 792 319 806 q 381 778 346 778 l 419 778 q 615 717 554 778 q 676 507 676 656 l 676 318 q 615 113 676 171 q 419 56 554 56 l 381 56 q 333 42 346 56 q 319 3 319 28 l 319 -7 q 313 -74 319 -51 q 283 -103 306 -96 q 215 -111 261 -111 l 132 -111 m 324 326 q 353 294 324 294 q 381 326 381 294 l 381 507 q 353 539 381 539 q 324 507 324 539 l 324 326 z "},"q":{"ha":704,"x_min":28,"x_max":676,"o":"m 489 -111 q 421 -103 443 -111 q 392 -74 399 -96 q 385 -7 385 -51 l 385 3 q 372 42 385 28 q 324 56 360 56 l 285 56 q 92 114 156 56 q 28 319 28 172 l 28 515 q 54 673 28 615 q 137 754 81 731 q 285 778 193 778 l 572 778 q 640 770 618 778 q 669 740 663 763 q 676 674 676 718 l 676 -7 q 669 -74 676 -51 q 640 -103 663 -96 q 572 -111 618 -111 l 489 -111 m 324 326 q 351 294 324 294 q 381 326 381 294 l 381 508 q 351 540 381 540 q 324 508 324 540 l 324 326 z "},"r":{"ha":515,"x_min":28,"x_max":488,"o":"m 132 56 q 64 63 86 56 q 35 93 42 71 q 28 160 28 115 l 28 646 q 53 751 28 724 q 140 778 78 778 l 411 778 q 472 757 457 778 q 488 669 488 736 l 488 563 q 472 477 488 496 q 411 458 457 458 l 382 458 q 345 447 357 458 q 333 404 333 435 l 333 160 q 326 93 333 115 q 297 63 319 71 q 229 56 275 56 l 132 56 z "},"ŕ":{"ha":515,"x_min":28,"x_max":488,"o":"m 132 56 q 64 63 86 56 q 35 93 42 71 q 28 160 28 115 l 28 646 q 53 751 28 724 q 140 778 78 778 l 411 778 q 472 757 457 778 q 488 669 488 736 l 488 563 q 472 477 488 496 q 411 458 457 458 l 382 458 q 345 447 357 458 q 333 404 333 435 l 333 160 q 326 93 333 115 q 297 63 319 71 q 229 56 275 56 l 132 56 m 107 892 q 125 940 107 922 q 194 979 143 957 l 290 1019 q 374 1031 350 1044 q 397 974 397 1017 l 397 900 q 380 847 397 861 q 310 833 363 833 l 192 833 q 124 847 142 833 q 107 892 107 861 z "},"ř":{"ha":515,"x_min":8,"x_max":503,"o":"m 132 56 q 64 63 86 56 q 35 93 42 71 q 28 160 28 115 l 28 646 q 53 751 28 724 q 140 778 78 778 l 411 778 q 472 757 457 778 q 488 669 488 736 l 488 563 q 472 477 488 496 q 411 458 457 458 l 382 458 q 345 447 357 458 q 333 404 333 435 l 333 160 q 326 93 333 115 q 297 63 319 71 q 229 56 275 56 l 132 56 m 8 1038 q 14 1068 8 1061 q 35 1075 19 1075 l 144 1075 q 209 1058 190 1075 q 228 992 228 1042 q 256 953 228 953 q 283 992 283 953 q 302 1058 283 1042 q 367 1075 321 1075 l 476 1075 q 497 1068 492 1075 q 503 1038 503 1061 q 492 997 503 1010 l 356 857 q 301 833 332 833 l 210 833 q 157 858 181 833 l 22 996 q 8 1038 8 1011 z "},"ŗ":{"ha":515,"x_min":28,"x_max":488,"o":"m 132 56 q 64 63 86 56 q 35 93 42 71 q 28 160 28 115 l 28 646 q 53 751 28 724 q 140 778 78 778 l 411 778 q 472 757 457 778 q 488 669 488 736 l 488 563 q 472 477 488 496 q 411 458 457 458 l 382 458 q 345 447 357 458 q 333 404 333 435 l 333 160 q 326 93 333 115 q 297 63 319 71 q 229 56 275 56 l 132 56 m 86 -87 q 93 -21 78 -42 q 156 0 108 0 l 213 0 q 275 -21 261 0 q 282 -87 289 -42 l 271 -160 q 247 -217 265 -203 q 188 -231 228 -231 l 181 -231 q 124 -216 140 -231 q 100 -160 108 -201 l 86 -87 z "},"s":{"ha":625,"x_min":28,"x_max":597,"o":"m 132 56 q 64 63 86 56 q 35 93 42 71 q 28 160 28 115 l 28 200 q 33 269 28 247 q 57 297 38 290 q 118 303 76 303 l 254 303 q 285 331 285 303 q 254 358 285 358 l 118 358 q 57 365 76 358 q 33 393 38 371 q 28 463 28 415 l 28 529 q 93 719 28 661 q 285 778 158 778 l 493 778 q 561 770 539 778 q 590 740 583 763 q 597 674 597 718 l 597 649 q 592 579 597 601 q 569 551 588 557 q 507 544 550 544 l 371 544 q 340 517 340 544 q 371 489 340 489 l 507 489 q 569 483 550 489 q 592 455 588 476 q 597 385 597 433 l 597 304 q 531 111 597 167 q 326 56 464 56 l 132 56 z "},"ś":{"ha":625,"x_min":28,"x_max":597,"o":"m 132 56 q 64 63 86 56 q 35 93 42 71 q 28 160 28 115 l 28 200 q 33 269 28 247 q 57 297 38 290 q 118 303 76 303 l 254 303 q 285 331 285 303 q 254 358 285 358 l 118 358 q 57 365 76 358 q 33 393 38 371 q 28 463 28 415 l 28 529 q 93 719 28 661 q 285 778 158 778 l 493 778 q 561 770 539 778 q 590 740 583 763 q 597 674 597 718 l 597 649 q 592 579 597 601 q 569 551 588 557 q 507 544 550 544 l 371 544 q 340 517 340 544 q 371 489 340 489 l 507 489 q 569 483 550 489 q 592 455 588 476 q 597 385 597 433 l 597 304 q 531 111 597 167 q 326 56 464 56 l 132 56 m 161 892 q 179 940 161 922 q 249 979 197 957 l 344 1019 q 428 1031 404 1044 q 451 974 451 1017 l 451 900 q 434 847 451 861 q 364 833 417 833 l 246 833 q 178 847 196 833 q 161 892 161 861 z "},"š":{"ha":625,"x_min":28,"x_max":597,"o":"m 132 56 q 64 63 86 56 q 35 93 42 71 q 28 160 28 115 l 28 200 q 33 269 28 247 q 57 297 38 290 q 118 303 76 303 l 254 303 q 285 331 285 303 q 254 358 285 358 l 118 358 q 57 365 76 358 q 33 393 38 371 q 28 463 28 415 l 28 529 q 93 719 28 661 q 285 778 158 778 l 493 778 q 561 770 539 778 q 590 740 583 763 q 597 674 597 718 l 597 649 q 592 579 597 601 q 569 551 588 557 q 507 544 550 544 l 371 544 q 340 517 340 544 q 371 489 340 489 l 507 489 q 569 483 550 489 q 592 455 588 476 q 597 385 597 433 l 597 304 q 531 111 597 167 q 326 56 464 56 l 132 56 m 63 1038 q 68 1068 63 1061 q 89 1075 74 1075 l 199 1075 q 263 1058 244 1075 q 282 992 282 1042 q 310 953 282 953 q 338 992 338 953 q 356 1058 338 1042 q 421 1075 375 1075 l 531 1075 q 551 1068 546 1075 q 557 1038 557 1061 q 546 997 557 1010 l 410 857 q 356 833 386 833 l 264 833 q 211 858 235 833 l 76 996 q 63 1038 63 1011 z "},"ş":{"ha":625,"x_min":28,"x_max":597,"o":"m 153 -274 q 90 -260 104 -274 q 75 -215 75 -247 q 90 -159 75 -175 q 144 -143 106 -143 l 300 -143 q 333 -115 333 -143 q 300 -87 333 -87 l 181 -87 q 141 -74 150 -87 q 132 -17 132 -60 l 132 28 q 107 56 132 56 q 42 74 57 56 q 28 160 28 93 l 28 200 q 33 269 28 247 q 57 297 38 290 q 118 303 76 303 l 254 303 q 285 331 285 303 q 254 358 285 358 l 118 358 q 57 365 76 358 q 33 393 38 371 q 28 463 28 415 l 28 514 q 93 719 28 661 q 285 778 158 778 l 493 778 q 561 770 539 778 q 590 740 583 763 q 597 674 597 718 l 597 649 q 592 579 597 601 q 569 551 588 557 q 507 544 550 544 l 371 544 q 340 517 340 544 q 371 489 340 489 l 507 489 q 569 483 550 489 q 592 455 588 476 q 597 385 597 433 l 597 319 q 533 114 597 172 q 340 56 468 56 l 319 56 q 288 28 288 56 q 319 0 288 0 l 371 0 q 491 -28 456 0 q 526 -135 526 -57 q 481 -241 526 -208 q 317 -274 436 -274 l 153 -274 z "},"ș":{"ha":625,"x_min":28,"x_max":597,"o":"m 132 56 q 64 63 86 56 q 35 93 42 71 q 28 160 28 115 l 28 200 q 33 269 28 247 q 57 297 38 290 q 118 303 76 303 l 254 303 q 285 331 285 303 q 254 358 285 358 l 118 358 q 57 365 76 358 q 33 393 38 371 q 28 463 28 415 l 28 529 q 93 719 28 661 q 285 778 158 778 l 493 778 q 561 770 539 778 q 590 740 583 763 q 597 674 597 718 l 597 649 q 592 579 597 601 q 569 551 588 557 q 507 544 550 544 l 371 544 q 340 517 340 544 q 371 489 340 489 l 507 489 q 569 483 550 489 q 592 455 588 476 q 597 385 597 433 l 597 304 q 531 111 597 167 q 326 56 464 56 l 132 56 m 214 -87 q 221 -21 206 -42 q 283 0 236 0 l 340 0 q 403 -21 389 0 q 410 -87 417 -42 l 399 -160 q 374 -217 393 -203 q 315 -231 356 -231 l 308 -231 q 252 -216 268 -231 q 228 -160 236 -201 l 214 -87 z "},"ß":{"ha":811,"x_min":28,"x_max":783,"o":"m 215 56 q 283 63 261 56 q 313 93 306 71 q 319 160 319 115 l 319 564 q 344 676 319 646 q 439 706 368 706 l 461 706 q 493 678 493 706 q 461 650 493 650 l 439 650 q 396 644 410 650 q 378 620 382 639 q 375 560 375 601 l 375 490 q 380 431 375 450 q 404 406 385 411 q 465 400 424 400 l 521 400 q 549 372 549 400 q 521 344 549 344 l 465 344 q 404 339 424 344 q 380 315 385 333 q 375 254 375 296 l 375 160 q 382 93 375 115 q 411 63 389 71 q 479 56 433 56 l 554 56 q 683 77 632 56 q 758 151 733 99 q 783 296 783 203 l 783 454 q 778 524 783 503 q 754 552 772 546 q 696 558 736 558 l 640 558 q 610 586 610 558 q 640 614 610 614 l 696 614 q 754 620 736 614 q 778 649 772 626 q 783 718 783 671 l 783 729 q 727 902 783 846 q 554 958 671 958 l 243 958 q 76 913 125 958 q 28 757 28 868 l 28 160 q 35 93 28 115 q 64 63 42 71 q 132 56 86 56 l 215 56 z "},"t":{"ha":557,"x_min":28,"x_max":529,"o":"m 251 56 q 118 74 167 56 q 49 138 69 93 q 28 257 28 182 l 28 896 q 42 957 28 942 q 111 972 57 972 l 244 972 q 313 957 299 972 q 328 896 328 942 l 328 836 q 340 790 328 801 q 381 778 353 778 l 453 778 q 514 762 499 778 q 529 688 529 746 l 529 583 q 524 505 529 531 q 499 472 518 479 q 442 465 481 465 l 331 465 q 300 438 300 465 q 331 410 300 410 l 442 410 q 499 403 481 410 q 524 378 518 397 q 529 319 529 358 l 529 153 q 509 74 529 93 q 425 56 489 56 l 251 56 z "},"ť":{"ha":628,"x_min":28,"x_max":604,"o":"m 251 56 q 118 74 167 56 q 49 138 69 93 q 28 257 28 182 l 28 896 q 42 957 28 942 q 111 972 57 972 l 244 972 q 313 957 299 972 q 328 896 328 942 l 328 836 q 340 790 328 801 q 381 778 353 778 l 453 778 q 514 762 499 778 q 529 688 529 746 l 529 583 q 524 505 529 531 q 499 472 518 479 q 442 465 481 465 l 331 465 q 300 438 300 465 q 331 410 300 410 l 442 410 q 499 403 481 410 q 524 378 518 397 q 529 319 529 358 l 529 153 q 509 74 529 93 q 425 56 489 56 l 251 56 m 386 1046 q 395 1140 378 1118 q 476 1161 413 1161 l 506 1161 q 587 1140 569 1161 q 596 1046 604 1118 l 585 946 q 571 873 579 897 q 547 841 563 849 q 503 833 531 833 l 481 833 q 436 841 453 833 q 411 873 419 849 q 397 946 403 897 l 386 1046 z "},"ţ":{"ha":557,"x_min":28,"x_max":529,"o":"m 179 -274 q 116 -260 131 -274 q 101 -215 101 -247 q 117 -159 101 -175 q 171 -143 132 -143 l 326 -143 q 360 -115 360 -143 q 326 -87 360 -87 l 207 -87 q 167 -74 176 -87 q 158 -17 158 -60 l 158 22 q 136 56 158 56 q 53 76 78 56 q 28 160 28 96 l 28 896 q 46 957 28 942 q 132 972 64 972 l 224 972 q 310 957 293 972 q 328 896 328 942 l 328 836 q 340 790 328 801 q 381 778 353 778 l 453 778 q 514 759 499 778 q 529 674 529 740 l 529 625 q 524 517 529 551 q 499 474 518 483 q 439 465 479 465 l 344 465 q 314 438 314 465 q 344 410 314 410 l 439 410 q 499 403 479 410 q 524 376 518 396 q 529 313 529 356 l 529 160 q 510 77 529 99 q 425 56 490 56 l 346 56 q 314 28 314 56 q 346 0 314 0 l 397 0 q 503 -31 478 0 q 528 -135 528 -62 q 487 -239 528 -204 q 343 -274 446 -274 l 179 -274 z "},"ț":{"ha":557,"x_min":28,"x_max":529,"o":"m 251 56 q 118 74 167 56 q 49 138 69 93 q 28 257 28 182 l 28 896 q 42 957 28 942 q 111 972 57 972 l 244 972 q 313 957 299 972 q 328 896 328 942 l 328 836 q 340 790 328 801 q 381 778 353 778 l 453 778 q 514 762 499 778 q 529 688 529 746 l 529 583 q 524 505 529 531 q 499 472 518 479 q 442 465 481 465 l 331 465 q 300 438 300 465 q 331 410 300 410 l 442 410 q 499 403 481 410 q 524 378 518 397 q 529 319 529 358 l 529 153 q 509 74 529 93 q 425 56 489 56 l 251 56 m 178 -87 q 185 -21 169 -42 q 247 0 200 0 l 304 0 q 367 -21 353 0 q 374 -87 381 -42 l 363 -160 q 338 -217 357 -203 q 279 -231 319 -231 l 272 -231 q 216 -216 232 -231 q 192 -160 200 -201 l 178 -87 z "},"u":{"ha":694,"x_min":28,"x_max":667,"o":"m 160 56 q 58 88 88 56 q 28 207 28 119 l 28 674 q 35 740 28 718 q 64 770 42 763 q 132 778 86 778 l 215 778 q 283 770 261 778 q 313 740 306 763 q 319 674 319 718 l 319 378 q 347 343 319 343 q 375 378 375 343 l 375 674 q 382 740 375 718 q 411 770 389 763 q 479 778 433 778 l 563 778 q 631 770 608 778 q 660 740 653 763 q 667 674 667 718 l 667 207 q 634 87 667 118 q 524 56 601 56 l 160 56 z "},"ú":{"ha":694,"x_min":28,"x_max":667,"o":"m 160 56 q 58 88 88 56 q 28 207 28 119 l 28 674 q 35 740 28 718 q 64 770 42 763 q 132 778 86 778 l 215 778 q 283 770 261 778 q 313 740 306 763 q 319 674 319 718 l 319 378 q 347 343 319 343 q 375 378 375 343 l 375 674 q 382 740 375 718 q 411 770 389 763 q 479 778 433 778 l 563 778 q 631 770 608 778 q 660 740 653 763 q 667 674 667 718 l 667 207 q 634 87 667 118 q 524 56 601 56 l 160 56 m 196 892 q 214 940 196 922 q 283 979 232 957 l 379 1019 q 463 1031 439 1044 q 486 974 486 1017 l 486 900 q 469 847 486 861 q 399 833 451 833 l 281 833 q 213 847 231 833 q 196 892 196 861 z "},"û":{"ha":694,"x_min":28,"x_max":667,"o":"m 160 56 q 58 88 88 56 q 28 207 28 119 l 28 674 q 35 740 28 718 q 64 770 42 763 q 132 778 86 778 l 215 778 q 283 770 261 778 q 313 740 306 763 q 319 674 319 718 l 319 378 q 347 343 319 343 q 375 378 375 343 l 375 674 q 382 740 375 718 q 411 770 389 763 q 479 778 433 778 l 563 778 q 631 770 608 778 q 660 740 653 763 q 667 674 667 718 l 667 207 q 634 87 667 118 q 524 56 601 56 l 160 56 m 100 871 q 111 911 100 899 l 247 1051 q 301 1075 271 1075 l 393 1075 q 446 1050 422 1075 l 581 913 q 594 871 594 897 q 589 841 594 849 q 568 833 583 833 l 458 833 q 394 850 413 833 q 375 917 375 867 q 347 956 375 956 q 319 917 319 956 q 301 850 319 867 q 236 833 282 833 l 126 833 q 106 841 111 833 q 100 871 100 849 z "},"ü":{"ha":694,"x_min":28,"x_max":667,"o":"m 160 56 q 58 88 88 56 q 28 207 28 119 l 28 674 q 35 740 28 718 q 64 770 42 763 q 132 778 86 778 l 215 778 q 283 770 261 778 q 313 740 306 763 q 319 674 319 718 l 319 378 q 347 343 319 343 q 375 378 375 343 l 375 674 q 382 740 375 718 q 411 770 389 763 q 479 778 433 778 l 563 778 q 631 770 608 778 q 660 740 653 763 q 667 674 667 718 l 667 207 q 634 87 667 118 q 524 56 601 56 l 160 56 m 67 917 q 72 972 67 954 q 96 994 76 989 q 157 999 115 999 l 229 999 q 291 994 272 999 q 315 972 310 989 q 319 917 319 954 q 315 862 319 879 q 291 839 310 844 q 229 833 272 833 l 157 833 q 96 839 115 833 q 72 862 76 844 q 67 917 67 879 m 375 917 q 380 972 375 954 q 404 994 385 989 q 465 999 424 999 l 538 999 q 599 994 581 999 q 623 972 618 989 q 628 917 628 954 q 623 862 628 879 q 599 839 618 844 q 538 833 581 833 l 465 833 q 404 839 424 833 q 380 862 385 844 q 375 917 375 879 z "},"ù":{"ha":694,"x_min":28,"x_max":667,"o":"m 160 56 q 58 88 88 56 q 28 207 28 119 l 28 674 q 35 740 28 718 q 64 770 42 763 q 132 778 86 778 l 215 778 q 283 770 261 778 q 313 740 306 763 q 319 674 319 718 l 319 378 q 347 343 319 343 q 375 378 375 343 l 375 674 q 382 740 375 718 q 411 770 389 763 q 479 778 433 778 l 563 778 q 631 770 608 778 q 660 740 653 763 q 667 674 667 718 l 667 207 q 634 87 667 118 q 524 56 601 56 l 160 56 m 200 900 l 200 974 q 224 1031 200 1017 q 307 1019 247 1044 l 403 979 q 472 940 454 957 q 490 892 490 922 q 473 847 490 861 q 406 833 456 833 l 288 833 q 218 847 236 833 q 200 900 200 861 z "},"ű":{"ha":694,"x_min":28,"x_max":667,"o":"m 160 56 q 58 88 88 56 q 28 207 28 119 l 28 674 q 35 740 28 718 q 64 770 42 763 q 132 778 86 778 l 215 778 q 283 770 261 778 q 313 740 306 763 q 319 674 319 718 l 319 378 q 347 343 319 343 q 375 378 375 343 l 375 674 q 382 740 375 718 q 411 770 389 763 q 479 778 433 778 l 563 778 q 631 770 608 778 q 660 740 653 763 q 667 674 667 718 l 667 207 q 634 87 667 118 q 524 56 601 56 l 160 56 m 36 892 q 53 945 36 928 q 122 983 71 963 l 203 1015 q 290 1023 263 1039 q 318 958 318 1007 l 318 914 q 297 849 318 864 q 203 833 276 833 l 149 833 q 57 847 78 833 q 36 892 36 861 m 374 892 q 392 943 374 926 q 461 979 410 960 l 542 1011 q 629 1021 603 1035 q 656 958 656 1007 l 656 914 q 635 849 656 864 q 540 833 614 833 l 486 833 q 394 847 415 833 q 374 892 374 861 z "},"ū":{"ha":694,"x_min":28,"x_max":667,"o":"m 160 56 q 58 88 88 56 q 28 207 28 119 l 28 674 q 35 740 28 718 q 64 770 42 763 q 132 778 86 778 l 215 778 q 283 770 261 778 q 313 740 306 763 q 319 674 319 718 l 319 378 q 347 343 319 343 q 375 378 375 343 l 375 674 q 382 740 375 718 q 411 770 389 763 q 479 778 433 778 l 563 778 q 631 770 608 778 q 660 740 653 763 q 667 674 667 718 l 667 207 q 634 87 667 118 q 524 56 601 56 l 160 56 m 151 917 q 156 972 151 954 q 181 994 161 989 q 242 999 200 999 l 453 999 q 515 994 496 999 q 538 972 533 989 q 543 917 543 954 q 538 862 543 879 q 515 839 533 844 q 453 833 496 833 l 242 833 q 181 839 200 833 q 156 862 161 844 q 151 917 151 879 z "},"ų":{"ha":694,"x_min":28,"x_max":668,"o":"m 543 -171 q 431 -162 461 -183 q 400 -62 400 -140 l 400 13 q 364 56 400 56 l 154 56 q 55 84 82 56 q 28 197 28 113 l 28 674 q 35 740 28 718 q 64 770 42 763 q 132 778 86 778 l 215 778 q 283 770 261 778 q 313 740 306 763 q 319 674 319 718 l 319 406 q 347 371 319 371 q 375 406 375 371 l 375 674 q 382 740 375 718 q 411 770 389 763 q 479 778 433 778 l 563 778 q 631 770 608 778 q 660 740 653 763 q 667 674 667 718 l 667 197 q 638 82 667 108 q 550 56 608 56 l 546 56 q 513 28 513 56 q 550 0 513 0 l 626 0 q 658 -14 649 0 q 668 -79 668 -28 q 656 -139 668 -122 q 617 -160 644 -156 l 543 -171 z "},"ů":{"ha":694,"x_min":28,"x_max":667,"o":"m 160 56 q 58 88 88 56 q 28 207 28 119 l 28 674 q 35 740 28 718 q 64 770 42 763 q 132 778 86 778 l 215 778 q 283 770 261 778 q 313 740 306 763 q 319 674 319 718 l 319 378 q 347 343 319 343 q 375 378 375 343 l 375 674 q 382 740 375 718 q 411 770 389 763 q 479 778 433 778 l 563 778 q 631 770 608 778 q 660 740 653 763 q 667 674 667 718 l 667 207 q 634 87 667 118 q 524 56 601 56 l 160 56 m 114 972 q 128 1053 114 1024 q 180 1097 142 1083 q 288 1110 218 1110 l 401 1110 q 510 1097 472 1110 q 561 1053 547 1083 q 575 972 575 1024 q 561 890 575 921 q 510 847 547 860 q 401 833 472 833 l 288 833 q 180 847 218 833 q 128 890 142 860 q 114 972 114 921 m 285 971 q 317 943 285 943 l 372 943 q 404 971 404 943 q 372 1000 404 1000 l 317 1000 q 285 971 285 1000 z "},"v":{"ha":694,"x_min":28,"x_max":667,"o":"m 382 56 q 178 87 257 56 q 64 192 100 118 q 28 396 28 267 l 28 671 q 35 738 28 715 q 64 767 42 760 q 132 775 86 775 l 215 775 q 283 767 261 775 q 313 738 306 760 q 319 671 319 715 l 319 408 q 347 368 319 368 q 375 408 375 368 l 375 671 q 382 738 375 715 q 411 767 389 760 q 479 775 433 775 l 563 775 q 631 767 608 775 q 660 738 653 760 q 667 671 667 715 l 667 185 q 639 82 667 108 q 554 56 611 56 l 382 56 z "},"w":{"ha":1056,"x_min":28,"x_max":1028,"o":"m 147 56 q 79 66 106 56 q 40 107 53 76 q 28 197 28 138 l 28 674 q 35 740 28 718 q 64 770 42 763 q 132 778 86 778 l 229 778 q 297 770 275 778 q 326 740 319 763 q 333 674 333 718 l 333 408 q 361 371 333 371 q 389 408 389 371 l 389 674 q 397 742 389 719 q 427 771 404 764 q 493 778 450 778 l 563 778 q 631 770 608 778 q 660 740 653 763 q 667 674 667 718 l 667 406 q 694 371 667 371 q 722 406 722 371 l 722 674 q 729 740 722 718 q 758 770 736 763 q 826 778 781 778 l 924 778 q 992 770 969 778 q 1021 740 1014 763 q 1028 674 1028 718 l 1028 197 q 999 83 1028 111 q 908 56 971 56 l 663 56 q 594 63 617 56 q 565 92 572 71 q 558 156 558 114 l 558 201 q 531 236 558 236 q 503 201 503 236 l 503 156 q 496 90 503 111 q 467 62 489 68 q 399 56 444 56 l 147 56 z "},"ẃ":{"ha":1056,"x_min":28,"x_max":1028,"o":"m 147 56 q 79 66 106 56 q 40 107 53 76 q 28 197 28 138 l 28 674 q 35 740 28 718 q 64 770 42 763 q 132 778 86 778 l 229 778 q 297 770 275 778 q 326 740 319 763 q 333 674 333 718 l 333 408 q 361 371 333 371 q 389 408 389 371 l 389 674 q 397 742 389 719 q 427 771 404 764 q 493 778 450 778 l 563 778 q 631 770 608 778 q 660 740 653 763 q 667 674 667 718 l 667 406 q 694 371 667 371 q 722 406 722 371 l 722 674 q 729 740 722 718 q 758 770 736 763 q 826 778 781 778 l 924 778 q 992 770 969 778 q 1021 740 1014 763 q 1028 674 1028 718 l 1028 197 q 999 83 1028 111 q 908 56 971 56 l 663 56 q 594 63 617 56 q 565 92 572 71 q 558 156 558 114 l 558 201 q 531 236 558 236 q 503 201 503 236 l 503 156 q 496 90 503 111 q 467 62 489 68 q 399 56 444 56 l 147 56 m 376 892 q 394 940 376 922 q 464 979 413 957 l 560 1019 q 643 1031 619 1044 q 667 974 667 1017 l 667 900 q 649 847 667 861 q 579 833 632 833 l 461 833 q 394 847 411 833 q 376 892 376 861 z "},"ŵ":{"ha":1056,"x_min":28,"x_max":1028,"o":"m 147 56 q 79 66 106 56 q 40 107 53 76 q 28 197 28 138 l 28 674 q 35 740 28 718 q 64 770 42 763 q 132 778 86 778 l 229 778 q 297 770 275 778 q 326 740 319 763 q 333 674 333 718 l 333 408 q 361 371 333 371 q 389 408 389 371 l 389 674 q 397 742 389 719 q 427 771 404 764 q 493 778 450 778 l 563 778 q 631 770 608 778 q 660 740 653 763 q 667 674 667 718 l 667 406 q 694 371 667 371 q 722 406 722 371 l 722 674 q 729 740 722 718 q 758 770 736 763 q 826 778 781 778 l 924 778 q 992 770 969 778 q 1021 740 1014 763 q 1028 674 1028 718 l 1028 197 q 999 83 1028 111 q 908 56 971 56 l 663 56 q 594 63 617 56 q 565 92 572 71 q 558 156 558 114 l 558 201 q 531 236 558 236 q 503 201 503 236 l 503 156 q 496 90 503 111 q 467 62 489 68 q 399 56 444 56 l 147 56 m 281 871 q 292 911 281 899 l 428 1051 q 482 1075 451 1075 l 574 1075 q 626 1050 603 1075 l 761 913 q 775 871 775 897 q 769 841 775 849 q 749 833 764 833 l 639 833 q 574 850 593 833 q 556 917 556 867 q 528 956 556 956 q 500 917 500 956 q 481 850 500 867 q 417 833 463 833 l 307 833 q 286 841 292 833 q 281 871 281 849 z "},"ẅ":{"ha":1056,"x_min":28,"x_max":1028,"o":"m 147 56 q 79 66 106 56 q 40 107 53 76 q 28 197 28 138 l 28 674 q 35 740 28 718 q 64 770 42 763 q 132 778 86 778 l 229 778 q 297 770 275 778 q 326 740 319 763 q 333 674 333 718 l 333 408 q 361 371 333 371 q 389 408 389 371 l 389 674 q 397 742 389 719 q 427 771 404 764 q 493 778 450 778 l 563 778 q 631 770 608 778 q 660 740 653 763 q 667 674 667 718 l 667 406 q 694 371 667 371 q 722 406 722 371 l 722 674 q 729 740 722 718 q 758 770 736 763 q 826 778 781 778 l 924 778 q 992 770 969 778 q 1021 740 1014 763 q 1028 674 1028 718 l 1028 197 q 999 83 1028 111 q 908 56 971 56 l 663 56 q 594 63 617 56 q 565 92 572 71 q 558 156 558 114 l 558 201 q 531 236 558 236 q 503 201 503 236 l 503 156 q 496 90 503 111 q 467 62 489 68 q 399 56 444 56 l 147 56 m 247 917 q 252 972 247 954 q 276 994 257 989 q 338 999 296 999 l 410 999 q 472 994 453 999 q 495 972 490 989 q 500 917 500 954 q 495 862 500 879 q 472 839 490 844 q 410 833 453 833 l 338 833 q 276 839 296 833 q 252 862 257 844 q 247 917 247 879 m 556 917 q 560 972 556 954 q 585 994 565 989 q 646 999 604 999 l 718 999 q 780 994 761 999 q 803 972 799 989 q 808 917 808 954 q 803 862 808 879 q 780 839 799 844 q 718 833 761 833 l 646 833 q 585 839 604 833 q 560 862 565 844 q 556 917 556 879 z "},"ẁ":{"ha":1056,"x_min":28,"x_max":1028,"o":"m 147 56 q 79 66 106 56 q 40 107 53 76 q 28 197 28 138 l 28 674 q 35 740 28 718 q 64 770 42 763 q 132 778 86 778 l 229 778 q 297 770 275 778 q 326 740 319 763 q 333 674 333 718 l 333 408 q 361 371 333 371 q 389 408 389 371 l 389 674 q 397 742 389 719 q 427 771 404 764 q 493 778 450 778 l 563 778 q 631 770 608 778 q 660 740 653 763 q 667 674 667 718 l 667 406 q 694 371 667 371 q 722 406 722 371 l 722 674 q 729 740 722 718 q 758 770 736 763 q 826 778 781 778 l 924 778 q 992 770 969 778 q 1021 740 1014 763 q 1028 674 1028 718 l 1028 197 q 999 83 1028 111 q 908 56 971 56 l 663 56 q 594 63 617 56 q 565 92 572 71 q 558 156 558 114 l 558 201 q 531 236 558 236 q 503 201 503 236 l 503 156 q 496 90 503 111 q 467 62 489 68 q 399 56 444 56 l 147 56 m 381 900 l 381 974 q 404 1031 381 1017 q 488 1019 428 1044 l 583 979 q 653 940 635 957 q 671 892 671 922 q 653 847 671 861 q 586 833 636 833 l 468 833 q 399 847 417 833 q 381 900 381 861 z "},"x":{"ha":708,"x_min":28,"x_max":681,"o":"m 132 56 q 64 63 86 56 q 35 93 42 71 q 28 160 28 115 l 28 310 q 33 380 28 358 q 57 408 38 401 q 118 414 76 414 l 150 414 q 181 442 181 414 q 150 469 181 469 l 118 469 q 57 476 76 469 q 33 504 38 482 q 28 574 28 526 l 28 674 q 35 740 28 718 q 64 770 42 763 q 132 778 86 778 l 222 778 q 290 770 268 778 q 319 740 313 763 q 326 674 326 718 l 326 538 q 354 507 326 507 q 382 538 382 507 l 382 674 q 389 740 382 718 q 418 770 396 763 q 486 778 440 778 l 576 778 q 644 770 622 778 q 674 740 667 763 q 681 674 681 718 l 681 574 q 676 504 681 526 q 652 476 671 482 q 590 469 633 469 l 556 469 q 528 442 528 469 q 556 414 528 414 l 590 414 q 652 408 633 414 q 676 380 671 401 q 681 310 681 358 l 681 160 q 674 93 681 115 q 644 63 667 71 q 576 56 622 56 l 486 56 q 418 63 440 56 q 389 93 396 71 q 382 160 382 115 l 382 244 q 354 275 382 275 q 326 244 326 275 l 326 160 q 319 93 326 115 q 290 63 313 71 q 222 56 268 56 l 132 56 z "},"y":{"ha":700,"x_min":28,"x_max":672,"o":"m 132 -111 q 47 -90 67 -111 q 28 -7 28 -69 l 28 86 q 33 149 28 128 q 57 176 38 169 q 118 183 76 183 l 335 183 q 365 211 365 183 q 335 239 365 239 l 118 239 q 57 245 76 239 q 33 274 38 251 q 28 343 28 296 l 28 674 q 35 740 28 718 q 64 770 42 763 q 132 778 86 778 l 218 778 q 286 770 264 778 q 315 740 308 763 q 322 674 322 718 l 322 464 q 350 433 322 433 q 378 464 378 433 l 378 674 q 385 740 378 718 q 414 770 392 763 q 482 778 436 778 l 568 778 q 636 770 614 778 q 665 740 658 763 q 672 674 672 718 l 672 118 q 645 -22 672 28 q 564 -92 618 -72 q 429 -111 510 -111 l 132 -111 z "},"ý":{"ha":700,"x_min":28,"x_max":672,"o":"m 132 -111 q 47 -90 67 -111 q 28 -7 28 -69 l 28 86 q 33 149 28 128 q 57 176 38 169 q 118 183 76 183 l 335 183 q 365 211 365 183 q 335 239 365 239 l 118 239 q 57 245 76 239 q 33 274 38 251 q 28 343 28 296 l 28 674 q 35 740 28 718 q 64 770 42 763 q 132 778 86 778 l 218 778 q 286 770 264 778 q 315 740 308 763 q 322 674 322 718 l 322 464 q 350 433 322 433 q 378 464 378 433 l 378 674 q 385 740 378 718 q 414 770 392 763 q 482 778 436 778 l 568 778 q 636 770 614 778 q 665 740 658 763 q 672 674 672 718 l 672 118 q 645 -22 672 28 q 564 -92 618 -72 q 429 -111 510 -111 l 132 -111 m 201 892 q 219 940 201 922 q 289 979 238 957 l 385 1019 q 468 1031 444 1044 q 492 974 492 1017 l 492 900 q 474 847 492 861 q 404 833 457 833 l 286 833 q 219 847 236 833 q 201 892 201 861 z "},"ŷ":{"ha":700,"x_min":28,"x_max":672,"o":"m 132 -111 q 47 -90 67 -111 q 28 -7 28 -69 l 28 86 q 33 149 28 128 q 57 176 38 169 q 118 183 76 183 l 335 183 q 365 211 365 183 q 335 239 365 239 l 118 239 q 57 245 76 239 q 33 274 38 251 q 28 343 28 296 l 28 674 q 35 740 28 718 q 64 770 42 763 q 132 778 86 778 l 218 778 q 286 770 264 778 q 315 740 308 763 q 322 674 322 718 l 322 464 q 350 433 322 433 q 378 464 378 433 l 378 674 q 385 740 378 718 q 414 770 392 763 q 482 778 436 778 l 568 778 q 636 770 614 778 q 665 740 658 763 q 672 674 672 718 l 672 118 q 645 -22 672 28 q 564 -92 618 -72 q 429 -111 510 -111 l 132 -111 m 106 871 q 117 911 106 899 l 253 1051 q 307 1075 276 1075 l 399 1075 q 451 1050 428 1075 l 586 913 q 600 871 600 897 q 594 841 600 849 q 574 833 589 833 l 464 833 q 399 850 418 833 q 381 917 381 867 q 353 956 381 956 q 325 917 325 956 q 306 850 325 867 q 242 833 288 833 l 132 833 q 111 841 117 833 q 106 871 106 849 z "},"ÿ":{"ha":700,"x_min":28,"x_max":672,"o":"m 132 -111 q 47 -90 67 -111 q 28 -7 28 -69 l 28 86 q 33 149 28 128 q 57 176 38 169 q 118 183 76 183 l 335 183 q 365 211 365 183 q 335 239 365 239 l 118 239 q 57 245 76 239 q 33 274 38 251 q 28 343 28 296 l 28 674 q 35 740 28 718 q 64 770 42 763 q 132 778 86 778 l 218 778 q 286 770 264 778 q 315 740 308 763 q 322 674 322 718 l 322 464 q 350 433 322 433 q 378 464 378 433 l 378 674 q 385 740 378 718 q 414 770 392 763 q 482 778 436 778 l 568 778 q 636 770 614 778 q 665 740 658 763 q 672 674 672 718 l 672 118 q 645 -22 672 28 q 564 -92 618 -72 q 429 -111 510 -111 l 132 -111 m 72 917 q 77 972 72 954 q 101 994 82 989 q 163 999 121 999 l 235 999 q 297 994 278 999 q 320 972 315 989 q 325 917 325 954 q 320 862 325 879 q 297 839 315 844 q 235 833 278 833 l 163 833 q 101 839 121 833 q 77 862 82 844 q 72 917 72 879 m 381 917 q 385 972 381 954 q 410 994 390 989 q 471 999 429 999 l 543 999 q 605 994 586 999 q 628 972 624 989 q 633 917 633 954 q 628 862 633 879 q 605 839 624 844 q 543 833 586 833 l 471 833 q 410 839 429 833 q 385 862 390 844 q 381 917 381 879 z "},"ỳ":{"ha":700,"x_min":28,"x_max":672,"o":"m 132 -111 q 47 -90 67 -111 q 28 -7 28 -69 l 28 86 q 33 149 28 128 q 57 176 38 169 q 118 183 76 183 l 335 183 q 365 211 365 183 q 335 239 365 239 l 118 239 q 57 245 76 239 q 33 274 38 251 q 28 343 28 296 l 28 674 q 35 740 28 718 q 64 770 42 763 q 132 778 86 778 l 218 778 q 286 770 264 778 q 315 740 308 763 q 322 674 322 718 l 322 464 q 350 433 322 433 q 378 464 378 433 l 378 674 q 385 740 378 718 q 414 770 392 763 q 482 778 436 778 l 568 778 q 636 770 614 778 q 665 740 658 763 q 672 674 672 718 l 672 118 q 645 -22 672 28 q 564 -92 618 -72 q 429 -111 510 -111 l 132 -111 m 206 900 l 206 974 q 229 1031 206 1017 q 313 1019 253 1044 l 408 979 q 478 940 460 957 q 496 892 496 922 q 478 847 496 861 q 411 833 461 833 l 293 833 q 224 847 242 833 q 206 900 206 861 z "},"z":{"ha":625,"x_min":28,"x_max":597,"o":"m 132 56 q 64 63 86 56 q 35 93 42 71 q 28 160 28 115 l 28 385 q 33 455 28 433 q 57 483 38 476 q 118 489 76 489 l 268 489 q 299 517 299 489 q 268 544 299 544 l 118 544 q 57 551 76 544 q 33 579 38 557 q 28 649 28 601 l 28 674 q 35 740 28 718 q 64 770 42 763 q 132 778 86 778 l 493 778 q 561 770 539 778 q 590 740 583 763 q 597 674 597 718 l 597 471 q 592 401 597 424 q 567 373 586 379 q 507 367 549 367 l 357 367 q 326 339 326 367 q 357 311 326 311 l 507 311 q 569 305 550 311 q 592 277 588 299 q 597 207 597 256 l 597 160 q 590 93 597 115 q 561 63 583 71 q 493 56 539 56 l 132 56 z "},"ź":{"ha":625,"x_min":28,"x_max":597,"o":"m 132 56 q 64 63 86 56 q 35 93 42 71 q 28 160 28 115 l 28 385 q 33 455 28 433 q 57 483 38 476 q 118 489 76 489 l 268 489 q 299 517 299 489 q 268 544 299 544 l 118 544 q 57 551 76 544 q 33 579 38 557 q 28 649 28 601 l 28 674 q 35 740 28 718 q 64 770 42 763 q 132 778 86 778 l 493 778 q 561 770 539 778 q 590 740 583 763 q 597 674 597 718 l 597 471 q 592 401 597 424 q 567 373 586 379 q 507 367 549 367 l 357 367 q 326 339 326 367 q 357 311 326 311 l 507 311 q 569 305 550 311 q 592 277 588 299 q 597 207 597 256 l 597 160 q 590 93 597 115 q 561 63 583 71 q 493 56 539 56 l 132 56 m 161 892 q 179 940 161 922 q 249 979 197 957 l 344 1019 q 428 1031 404 1044 q 451 974 451 1017 l 451 900 q 434 847 451 861 q 364 833 417 833 l 246 833 q 178 847 196 833 q 161 892 161 861 z "},"ž":{"ha":625,"x_min":28,"x_max":597,"o":"m 132 56 q 64 63 86 56 q 35 93 42 71 q 28 160 28 115 l 28 385 q 33 455 28 433 q 57 483 38 476 q 118 489 76 489 l 268 489 q 299 517 299 489 q 268 544 299 544 l 118 544 q 57 551 76 544 q 33 579 38 557 q 28 649 28 601 l 28 674 q 35 740 28 718 q 64 770 42 763 q 132 778 86 778 l 493 778 q 561 770 539 778 q 590 740 583 763 q 597 674 597 718 l 597 471 q 592 401 597 424 q 567 373 586 379 q 507 367 549 367 l 357 367 q 326 339 326 367 q 357 311 326 311 l 507 311 q 569 305 550 311 q 592 277 588 299 q 597 207 597 256 l 597 160 q 590 93 597 115 q 561 63 583 71 q 493 56 539 56 l 132 56 m 63 1038 q 68 1068 63 1061 q 89 1075 74 1075 l 199 1075 q 263 1058 244 1075 q 282 992 282 1042 q 310 953 282 953 q 338 992 338 953 q 356 1058 338 1042 q 421 1075 375 1075 l 531 1075 q 551 1068 546 1075 q 557 1038 557 1061 q 546 997 557 1010 l 410 857 q 356 833 386 833 l 264 833 q 211 858 235 833 l 76 996 q 63 1038 63 1011 z "},"ż":{"ha":625,"x_min":28,"x_max":597,"o":"m 132 56 q 64 63 86 56 q 35 93 42 71 q 28 160 28 115 l 28 385 q 33 455 28 433 q 57 483 38 476 q 118 489 76 489 l 268 489 q 299 517 299 489 q 268 544 299 544 l 118 544 q 57 551 76 544 q 33 579 38 557 q 28 649 28 601 l 28 674 q 35 740 28 718 q 64 770 42 763 q 132 778 86 778 l 493 778 q 561 770 539 778 q 590 740 583 763 q 597 674 597 718 l 597 471 q 592 401 597 424 q 567 373 586 379 q 507 367 549 367 l 357 367 q 326 339 326 367 q 357 311 326 311 l 507 311 q 569 305 550 311 q 592 277 588 299 q 597 207 597 256 l 597 160 q 590 93 597 115 q 561 63 583 71 q 493 56 539 56 l 132 56 m 179 917 q 184 972 179 954 q 208 994 189 989 q 269 999 228 999 l 356 999 q 417 994 399 999 q 441 972 436 989 q 446 917 446 954 q 441 862 446 879 q 417 839 436 844 q 356 833 399 833 l 269 833 q 208 839 228 833 q 184 862 189 844 q 179 917 179 879 z "},"⁄":{"ha":671,"x_min":28,"x_max":649,"o":"m 88 56 q 39 72 50 56 q 50 131 28 88 l 404 819 q 444 883 426 863 q 482 910 461 903 q 531 917 503 917 l 594 917 q 640 899 631 917 q 617 819 649 881 l 263 131 q 214 72 240 88 q 147 56 188 56 l 88 56 z "},"½":{"ha":1122,"x_min":28,"x_max":1094,"o":"m 294 56 q 246 72 257 56 q 257 131 235 88 l 611 819 q 651 883 633 863 q 689 910 668 903 q 738 917 710 917 l 801 917 q 847 899 838 917 q 824 819 856 881 l 469 131 q 421 72 447 88 q 354 56 394 56 l 294 56 m 28 799 l 28 854 q 39 908 28 894 q 76 921 50 921 l 272 921 q 328 907 314 921 q 343 844 343 893 l 343 465 q 329 404 343 419 q 267 389 315 389 l 232 389 q 170 404 185 389 q 156 465 156 419 l 156 675 q 144 724 156 711 q 107 736 132 736 l 76 736 q 39 747 50 736 q 28 799 28 758 m 728 146 l 728 260 q 738 299 728 290 q 790 308 747 308 l 828 308 q 925 399 925 308 l 925 404 q 897 435 925 435 q 869 404 869 435 l 869 399 q 861 372 869 381 q 822 364 853 364 l 790 364 q 749 369 763 364 q 731 394 735 375 q 728 454 728 414 l 728 479 q 760 558 728 533 q 874 583 793 583 l 963 583 q 1065 553 1036 583 q 1094 446 1094 522 l 1094 365 q 1072 295 1094 315 q 1001 275 1049 275 l 976 275 q 946 247 946 275 q 976 219 946 219 l 1029 219 q 1081 201 1067 219 q 1094 143 1094 183 l 1094 132 q 1074 72 1094 88 q 990 56 1054 56 l 819 56 q 744 73 761 56 q 728 146 728 90 z "},"¼":{"ha":1197,"x_min":28,"x_max":1169,"o":"m 294 56 q 246 72 257 56 q 257 131 235 88 l 611 819 q 651 883 633 863 q 689 910 668 903 q 738 917 710 917 l 801 917 q 847 899 838 917 q 824 819 856 881 l 469 131 q 421 72 447 88 q 354 56 394 56 l 294 56 m 28 799 l 28 854 q 39 908 28 894 q 76 921 50 921 l 272 921 q 328 907 314 921 q 343 844 343 893 l 343 465 q 329 404 343 419 q 267 389 315 389 l 232 389 q 170 404 185 389 q 156 465 156 419 l 156 675 q 144 724 156 711 q 107 736 132 736 l 76 736 q 39 747 50 736 q 28 799 28 758 m 701 308 l 701 382 q 748 538 701 493 q 903 583 794 583 l 986 583 q 1049 568 1035 583 q 1063 507 1063 553 l 1063 424 q 1073 381 1063 393 q 1110 369 1083 369 l 1135 369 q 1163 357 1156 369 q 1169 307 1169 344 l 1169 283 q 1163 233 1169 246 q 1135 221 1156 221 l 1108 221 q 1072 211 1082 221 q 1063 174 1063 201 l 1063 118 q 1049 69 1063 83 q 986 56 1035 56 l 958 56 q 897 69 911 56 q 882 118 882 83 l 882 160 q 872 194 882 185 q 835 204 863 204 l 778 204 q 716 223 731 204 q 701 308 701 242 m 864 339 q 892 307 864 307 q 921 339 921 307 l 921 382 q 892 414 921 414 q 864 382 864 414 l 864 339 z "},"¾":{"ha":1206,"x_min":28,"x_max":1178,"o":"m 303 56 q 254 72 265 56 q 265 131 243 88 l 619 819 q 659 883 642 863 q 697 910 676 903 q 746 917 718 917 l 810 917 q 855 899 846 917 q 832 819 864 881 l 478 131 q 429 72 456 88 q 363 56 403 56 l 303 56 m 28 438 l 28 471 q 40 522 28 511 q 104 533 51 533 l 115 533 q 146 561 146 533 q 115 589 146 589 l 104 589 q 40 600 51 589 q 28 651 28 611 q 40 703 28 692 q 104 715 51 715 l 115 715 q 146 743 146 715 q 115 771 146 771 l 104 771 q 40 782 51 771 q 28 833 28 793 l 28 868 q 40 905 28 893 q 90 917 53 917 l 249 917 q 342 891 318 917 q 367 800 367 865 q 363 722 367 746 q 347 690 360 697 q 304 683 333 683 l 285 683 q 254 656 254 683 q 285 628 254 628 l 304 628 q 357 615 347 628 q 367 551 367 603 l 367 493 q 341 412 367 435 q 249 389 315 389 l 90 389 q 40 401 53 389 q 28 438 28 413 m 710 308 l 710 382 q 756 538 710 493 q 911 583 803 583 l 994 583 q 1057 568 1043 583 q 1071 507 1071 553 l 1071 424 q 1081 381 1071 393 q 1118 369 1092 369 l 1143 369 q 1171 357 1164 369 q 1178 307 1178 344 l 1178 283 q 1171 233 1178 246 q 1143 221 1164 221 l 1117 221 q 1081 211 1090 221 q 1071 174 1071 201 l 1071 118 q 1057 69 1071 83 q 994 56 1043 56 l 967 56 q 905 69 919 56 q 890 118 890 83 l 890 160 q 881 194 890 185 q 843 204 871 204 l 786 204 q 724 223 739 204 q 710 308 710 242 m 872 339 q 900 307 872 307 q 929 339 929 307 l 929 382 q 900 414 929 414 q 872 382 872 414 l 872 339 z "},"¹":{"ha":371,"x_min":28,"x_max":343,"o":"m 232 389 q 170 404 185 389 q 156 465 156 419 l 156 675 q 144 724 156 711 q 107 736 132 736 l 76 736 q 39 747 50 736 q 28 799 28 758 l 28 854 q 39 908 28 894 q 76 921 50 921 l 272 921 q 328 907 314 921 q 343 844 343 893 l 343 465 q 329 404 343 419 q 267 389 315 389 l 232 389 z "},"²":{"ha":422,"x_min":28,"x_max":394,"o":"m 119 389 q 44 406 61 389 q 28 479 28 424 l 28 593 q 38 633 28 624 q 90 642 47 642 l 128 642 q 225 732 225 642 l 225 738 q 197 768 225 768 q 169 738 169 768 l 169 732 q 161 706 169 714 q 122 697 153 697 l 90 697 q 49 703 63 697 q 31 728 35 708 q 28 788 28 747 l 28 813 q 60 892 28 867 q 174 917 93 917 l 263 917 q 365 886 336 917 q 394 779 394 856 l 394 699 q 372 628 394 649 q 301 608 349 608 l 276 608 q 246 581 246 608 q 276 553 246 553 l 329 553 q 381 535 367 553 q 394 476 394 517 l 394 465 q 374 405 394 421 q 290 389 354 389 l 119 389 z "},"³":{"ha":394,"x_min":28,"x_max":367,"o":"m 90 389 q 40 401 53 389 q 28 438 28 413 l 28 471 q 40 522 28 511 q 104 533 51 533 l 115 533 q 146 561 146 533 q 115 589 146 589 l 104 589 q 40 600 51 589 q 28 651 28 611 q 40 703 28 692 q 104 715 51 715 l 115 715 q 146 743 146 715 q 115 771 146 771 l 104 771 q 40 782 51 771 q 28 833 28 793 l 28 868 q 40 905 28 893 q 90 917 53 917 l 249 917 q 342 891 318 917 q 367 800 367 865 q 363 722 367 746 q 347 690 360 697 q 304 683 333 683 l 285 683 q 254 656 254 683 q 285 628 254 628 l 304 628 q 357 615 347 628 q 367 551 367 603 l 367 493 q 341 412 367 435 q 249 389 315 389 l 90 389 z "},"⁴":{"ha":524,"x_min":28,"x_max":496,"o":"m 285 389 q 223 403 238 389 q 208 451 208 417 l 208 493 q 199 528 208 518 q 161 538 189 538 l 104 538 q 42 556 57 538 q 28 642 28 575 l 28 715 q 74 872 28 826 q 229 917 121 917 l 313 917 q 375 901 361 917 q 389 840 389 886 l 389 757 q 399 715 389 726 q 436 703 410 703 l 461 703 q 489 690 482 703 q 496 640 496 678 l 496 617 q 489 567 496 579 q 461 554 482 554 l 435 554 q 399 544 408 554 q 389 507 389 535 l 389 451 q 375 403 389 417 q 313 389 361 389 l 285 389 m 190 672 q 218 640 190 640 q 247 672 247 640 l 247 715 q 218 747 247 747 q 190 715 190 747 l 190 672 z "}," ":{"ha":326,"x_min":0,"x_max":0,"o":""},".":{"ha":313,"x_min":28,"x_max":285,"o":"m 132 56 q 64 63 86 56 q 35 93 42 71 q 28 160 28 115 l 28 235 q 33 301 28 279 q 57 331 38 324 q 118 339 76 339 l 194 339 q 256 331 238 339 q 280 301 275 324 q 285 235 285 279 l 285 160 q 278 93 285 115 q 249 63 271 71 q 181 56 226 56 l 132 56 z "},",":{"ha":299,"x_min":28,"x_max":271,"o":"m 118 -122 q 57 -117 76 -122 q 33 -98 38 -112 q 28 -54 28 -83 q 40 2 28 -10 q 106 14 51 14 l 125 14 q 154 42 154 14 q 125 69 154 69 l 106 69 q 53 75 69 69 q 32 101 36 81 q 28 163 28 121 l 28 235 q 33 305 28 283 q 57 333 38 326 q 118 339 76 339 l 138 339 q 242 301 214 339 q 271 189 271 264 l 271 50 q 237 -82 271 -42 q 139 -122 203 -122 l 118 -122 z "},":":{"ha":313,"x_min":28,"x_max":285,"o":"m 132 394 q 64 402 86 394 q 35 432 42 410 q 28 499 28 454 l 28 574 q 33 640 28 618 q 57 670 38 663 q 118 678 76 678 l 194 678 q 256 670 238 678 q 280 640 275 663 q 285 574 285 618 l 285 499 q 278 432 285 454 q 249 402 271 410 q 181 394 226 394 l 132 394 m 28 160 l 28 235 q 33 301 28 279 q 57 331 38 324 q 118 339 76 339 l 194 339 q 256 331 238 339 q 280 301 275 324 q 285 235 285 279 l 285 160 q 278 93 285 115 q 249 63 271 71 q 181 56 226 56 l 132 56 q 64 63 86 56 q 35 93 42 71 q 28 160 28 115 z "},";":{"ha":313,"x_min":28,"x_max":285,"o":"m 118 -126 q 57 -122 76 -126 q 33 -101 38 -117 q 28 -56 28 -86 q 33 -17 28 -29 q 57 0 38 -4 q 118 4 76 4 l 138 4 q 167 32 167 4 q 138 60 167 60 l 118 60 q 57 66 76 60 q 33 94 38 72 q 28 163 28 115 l 28 235 q 33 305 28 283 q 57 333 38 326 q 118 339 76 339 l 142 339 q 237 301 203 339 q 271 189 271 264 l 271 50 q 237 -85 271 -44 q 139 -126 203 -126 l 118 -126 m 28 499 l 28 574 q 33 640 28 618 q 57 670 38 663 q 118 678 76 678 l 194 678 q 256 670 238 678 q 280 640 275 663 q 285 574 285 618 l 285 499 q 278 432 285 454 q 249 402 271 410 q 181 394 226 394 l 132 394 q 64 402 86 394 q 35 432 42 410 q 28 499 28 454 z "},"!":{"ha":313,"x_min":28,"x_max":285,"o":"m 132 388 q 64 395 86 388 q 35 425 42 403 q 28 492 28 447 l 28 813 q 33 883 28 861 q 57 910 38 904 q 118 917 76 917 l 194 917 q 256 910 238 917 q 280 883 275 904 q 285 813 285 861 l 285 492 q 278 425 285 447 q 249 395 271 403 q 181 388 226 388 l 132 388 m 28 160 l 28 228 q 33 298 28 276 q 57 326 38 319 q 118 332 76 332 l 194 332 q 256 326 238 332 q 280 298 275 319 q 285 228 285 276 l 285 160 q 278 93 285 115 q 249 63 271 71 q 181 56 226 56 l 132 56 q 64 63 86 56 q 35 93 42 71 q 28 160 28 115 z "},"¡":{"ha":313,"x_min":28,"x_max":285,"o":"m 181 586 q 249 578 226 586 q 278 549 271 571 q 285 482 285 526 l 285 161 q 280 92 285 114 q 256 63 275 69 q 194 57 238 57 l 118 57 q 57 63 76 57 q 33 92 38 69 q 28 161 28 114 l 28 482 q 35 549 28 526 q 64 578 42 571 q 132 586 86 586 l 181 586 m 28 746 l 28 814 q 35 881 28 858 q 64 910 42 903 q 132 918 86 918 l 181 918 q 249 910 226 918 q 278 881 271 903 q 285 814 285 858 l 285 746 q 280 676 285 699 q 256 648 275 654 q 194 642 238 642 l 118 642 q 57 648 76 642 q 33 676 38 654 q 28 746 28 699 z "},"?":{"ha":524,"x_min":28,"x_max":496,"o":"m 132 388 q 64 394 86 388 q 35 421 42 401 q 28 478 28 440 q 33 538 28 519 q 57 563 38 557 q 118 568 76 568 l 213 568 q 243 596 243 568 q 213 624 243 624 l 118 624 q 57 630 76 624 q 33 658 38 636 q 28 728 28 681 l 28 813 q 33 883 28 861 q 58 910 39 904 q 118 917 76 917 l 294 917 q 440 859 385 917 q 496 674 496 801 l 496 631 q 439 444 496 500 q 294 388 382 388 l 132 388 m 28 160 l 28 228 q 33 298 28 276 q 57 326 38 319 q 118 332 76 332 l 194 332 q 276 326 251 332 q 306 298 300 319 q 313 228 313 276 l 313 160 q 306 93 313 115 q 276 63 299 71 q 208 56 254 56 l 132 56 q 64 63 86 56 q 35 93 42 71 q 28 160 28 115 z "},"¿":{"ha":524,"x_min":28,"x_max":496,"o":"m 392 586 q 460 579 438 586 q 489 553 482 572 q 496 496 496 533 q 491 436 496 456 q 467 411 486 417 q 406 406 449 406 l 311 406 q 281 378 281 406 q 311 350 281 350 l 406 350 q 467 344 449 350 q 491 316 486 338 q 496 246 496 294 l 496 161 q 490 92 496 114 q 466 63 485 69 q 406 57 447 57 l 229 57 q 84 115 140 57 q 28 300 28 174 l 28 343 q 85 531 28 475 q 229 586 142 586 l 392 586 m 211 746 l 211 814 q 218 881 211 858 q 247 910 225 903 q 315 918 269 918 l 392 918 q 460 910 438 918 q 489 881 482 903 q 496 814 496 858 l 496 746 q 491 676 496 699 q 467 648 486 654 q 406 642 449 642 l 329 642 q 249 648 274 642 q 217 676 224 654 q 211 746 211 699 z "},"•":{"ha":618,"x_min":167,"x_max":451,"o":"m 271 333 q 203 341 225 333 q 174 371 181 349 q 167 438 167 393 l 167 513 q 172 579 167 557 q 196 609 176 601 q 257 617 215 617 l 361 617 q 423 609 404 617 q 447 579 442 601 q 451 513 451 557 l 451 438 q 444 371 451 393 q 415 341 438 349 q 347 333 393 333 l 271 333 z "},"*":{"ha":611,"x_min":28,"x_max":583,"o":"m 132 292 q 64 299 86 292 q 35 329 42 307 q 28 396 28 351 l 28 413 q 33 483 28 461 q 57 510 38 504 q 118 517 76 517 l 129 517 q 160 544 160 517 q 129 572 160 572 l 118 572 q 57 578 76 572 q 33 603 38 583 q 28 663 28 622 l 28 675 q 35 732 28 713 q 64 758 42 751 q 132 765 86 765 l 158 765 q 192 775 183 765 q 201 808 201 785 l 201 833 q 217 901 201 885 q 292 917 232 917 l 319 917 q 395 901 381 917 q 410 833 410 885 l 410 808 q 419 775 410 785 q 453 765 428 765 l 479 765 q 547 758 525 765 q 576 732 569 751 q 583 675 583 713 l 583 663 q 578 603 583 622 q 555 578 574 583 q 493 572 536 572 l 482 572 q 451 544 451 572 q 482 517 451 517 l 493 517 q 555 510 536 517 q 578 483 574 504 q 583 413 583 461 l 583 396 q 576 329 583 351 q 547 299 569 307 q 479 292 525 292 l 438 292 q 369 299 392 292 q 340 325 347 306 q 333 382 333 344 l 333 385 q 326 419 333 410 q 306 428 319 428 q 285 419 292 428 q 278 385 278 410 l 278 382 q 271 325 278 344 q 242 299 264 306 q 174 292 219 292 l 132 292 z "},"#":{"ha":851,"x_min":26,"x_max":825,"o":"m 211 83 q 163 97 172 83 q 154 151 153 111 l 157 200 q 128 231 160 231 l 79 231 q 37 243 47 231 q 29 290 26 256 l 33 344 q 47 398 36 388 q 93 408 58 408 l 143 408 q 171 435 169 408 l 175 533 q 146 564 176 564 l 97 564 q 54 576 64 564 q 46 624 44 589 l 49 679 q 63 731 51 719 q 110 742 74 742 l 160 742 q 188 767 186 742 l 192 817 q 207 877 196 865 q 257 889 218 889 l 354 889 q 400 878 390 889 q 408 821 410 868 l 407 774 q 435 744 407 744 q 454 751 446 744 q 463 771 463 757 l 464 818 q 476 878 465 867 q 529 889 486 889 l 640 889 q 692 879 685 889 q 697 821 700 869 l 694 772 q 724 742 693 742 l 772 742 q 817 732 808 742 q 822 682 825 722 l 819 626 q 807 574 818 585 q 760 564 796 564 l 710 564 q 682 538 683 564 l 678 439 q 707 408 676 408 l 756 408 q 800 399 792 408 q 806 349 808 389 l 803 293 q 791 241 801 251 q 742 231 781 231 l 692 231 q 664 204 665 231 l 661 154 q 645 100 660 117 q 596 83 631 83 l 485 83 q 438 98 450 83 q 428 151 426 113 l 431 199 q 424 221 432 213 q 403 229 415 229 q 375 203 376 229 l 372 154 q 357 99 371 114 q 308 83 343 83 l 211 83 m 389 438 q 396 415 388 424 q 415 407 404 407 l 417 407 q 436 414 428 407 q 444 433 444 421 l 449 535 q 442 558 450 550 q 421 565 433 565 q 401 558 410 565 q 393 539 393 551 l 389 438 z "},"/":{"ha":419,"x_min":28,"x_max":393,"o":"m 118 -69 q 46 -44 64 -69 q 33 28 28 -19 l 125 903 q 148 979 132 958 q 218 1000 164 1000 l 301 1000 q 374 979 356 1000 q 386 903 393 958 l 294 28 q 267 -44 289 -19 q 201 -69 246 -69 l 118 -69 z "},"\\":{"ha":419,"x_min":28,"x_max":392,"o":"m 218 -69 q 153 -44 175 -69 q 125 28 131 -19 l 33 903 q 46 979 28 958 q 118 1000 64 1000 l 201 1000 q 272 979 256 1000 q 294 903 289 958 l 386 28 q 374 -44 392 -19 q 301 -69 356 -69 l 218 -69 z "},"-":{"ha":438,"x_min":28,"x_max":410,"o":"m 132 385 q 64 392 86 385 q 35 418 42 399 q 28 475 28 438 l 28 494 q 33 556 28 536 q 57 583 38 576 q 118 589 76 589 l 319 589 q 381 583 363 589 q 405 556 400 576 q 410 494 410 536 l 410 475 q 403 418 410 438 q 374 392 396 399 q 306 385 351 385 l 132 385 z "},"–":{"ha":590,"x_min":28,"x_max":563,"o":"m 132 385 q 64 392 86 385 q 35 418 42 399 q 28 475 28 438 l 28 494 q 33 556 28 536 q 57 583 38 576 q 118 589 76 589 l 472 589 q 534 583 515 589 q 558 556 553 576 q 563 494 563 536 l 563 475 q 556 418 563 438 q 526 392 549 399 q 458 385 504 385 l 132 385 z "},"—":{"ha":889,"x_min":28,"x_max":861,"o":"m 132 385 q 64 392 86 385 q 35 418 42 399 q 28 475 28 438 l 28 494 q 33 556 28 536 q 57 583 38 576 q 118 589 76 589 l 771 589 q 833 583 814 589 q 856 556 851 576 q 861 494 861 536 l 861 475 q 854 418 861 438 q 825 392 847 399 q 757 385 803 385 l 132 385 z "},"_":{"ha":604,"x_min":28,"x_max":576,"o":"m 132 56 q 64 63 86 56 q 35 89 42 69 q 28 146 28 108 l 28 165 q 33 227 28 207 q 57 253 38 247 q 118 260 76 260 l 486 260 q 548 253 529 260 q 572 227 567 247 q 576 165 576 207 l 576 146 q 569 89 576 108 q 540 63 563 69 q 472 56 518 56 l 132 56 z "},"(":{"ha":319,"x_min":28,"x_max":289,"o":"m 219 -139 q 126 -97 169 -139 q 55 41 82 -54 q 28 296 28 136 l 28 632 q 55 888 28 793 q 126 1025 82 983 q 219 1067 169 1067 q 272 1047 256 1067 q 289 979 289 1028 l 289 -51 q 272 -119 289 -99 q 219 -139 256 -139 z "},")":{"ha":319,"x_min":31,"x_max":292,"o":"m 100 -139 q 47 -119 64 -139 q 31 -51 31 -99 l 31 979 q 47 1047 31 1028 q 100 1067 64 1067 q 194 1025 150 1067 q 265 888 238 983 q 292 632 292 793 l 292 296 q 265 41 292 136 q 194 -97 238 -54 q 100 -139 150 -139 z "},"{":{"ha":457,"x_min":28,"x_max":429,"o":"m 357 -139 q 256 -101 300 -139 q 188 5 213 -62 q 163 157 163 72 l 163 243 q 151 291 163 278 q 114 304 139 304 l 76 304 q 40 319 51 304 q 28 381 28 333 l 28 507 q 40 569 28 556 q 76 583 51 583 l 114 583 q 151 597 139 583 q 163 644 163 610 l 163 750 q 212 984 163 899 q 346 1069 261 1069 q 410 1047 390 1069 q 429 969 429 1025 l 429 -49 q 411 -120 429 -101 q 357 -139 393 -139 z "},"}":{"ha":457,"x_min":28,"x_max":429,"o":"m 100 -139 q 46 -120 64 -139 q 28 -49 28 -101 l 28 969 q 48 1047 28 1025 q 111 1069 68 1069 q 246 984 197 1069 q 294 750 294 899 l 294 644 q 306 597 294 610 q 343 583 318 583 l 381 583 q 417 569 406 583 q 429 507 429 556 l 429 381 q 417 319 429 333 q 381 304 406 304 l 343 304 q 306 291 318 304 q 294 243 294 278 l 294 157 q 269 5 294 72 q 201 -101 244 -62 q 100 -139 157 -139 z "},"[":{"ha":438,"x_min":28,"x_max":410,"o":"m 254 -142 q 84 -89 140 -142 q 28 101 28 -36 l 28 826 q 84 1017 28 964 q 254 1069 140 1069 l 333 1069 q 394 1050 379 1069 q 410 965 410 1031 l 410 939 q 398 853 410 871 q 363 835 386 835 l 342 835 q 301 822 313 835 q 289 774 289 810 l 289 147 q 302 105 289 117 q 342 93 315 93 l 363 93 q 398 76 386 93 q 410 -11 410 58 l 410 -37 q 394 -124 410 -106 q 333 -142 378 -142 l 254 -142 z "},"]":{"ha":438,"x_min":28,"x_max":410,"o":"m 104 -142 q 44 -124 60 -142 q 28 -37 28 -106 l 28 -11 q 40 76 28 58 q 75 93 51 93 l 96 93 q 136 105 124 93 q 149 147 149 117 l 149 774 q 137 822 149 810 q 96 835 125 835 l 75 835 q 40 853 51 835 q 28 939 28 871 l 28 965 q 43 1050 28 1031 q 104 1069 58 1069 l 183 1069 q 353 1017 297 1069 q 410 826 410 964 l 410 101 q 353 -89 410 -36 q 183 -142 297 -142 l 104 -142 z "},"“":{"ha":599,"x_min":28,"x_max":571,"o":"m 153 493 q 61 524 94 493 q 28 629 28 554 l 28 754 q 63 879 28 840 q 164 918 97 918 l 181 918 q 242 914 224 918 q 266 896 261 910 q 271 854 271 882 q 266 820 271 832 q 242 804 261 808 q 181 800 224 800 l 161 800 q 132 772 132 800 q 161 744 132 744 l 181 744 q 242 738 224 744 q 266 710 261 732 q 271 642 271 689 l 271 597 q 265 528 271 550 q 241 499 260 506 q 181 493 222 493 l 153 493 m 328 629 l 328 754 q 363 879 328 840 q 464 918 397 918 l 481 918 q 542 914 524 918 q 566 896 561 910 q 571 854 571 882 q 566 820 571 832 q 542 804 561 808 q 481 800 524 800 l 461 800 q 432 772 432 800 q 461 744 432 744 l 481 744 q 542 738 524 744 q 566 710 561 732 q 571 642 571 689 l 571 597 q 565 528 571 550 q 541 499 560 506 q 481 493 522 493 l 453 493 q 361 524 394 493 q 328 629 328 554 z "},"”":{"ha":597,"x_min":28,"x_max":569,"o":"m 118 493 q 57 497 76 493 q 33 515 38 501 q 28 557 28 529 q 33 592 28 581 q 57 607 38 603 q 118 611 76 611 l 138 611 q 167 639 167 611 q 138 667 167 667 l 118 667 q 57 673 76 667 q 33 701 38 679 q 28 769 28 722 l 28 814 q 33 884 28 863 q 57 912 38 906 q 118 918 76 918 l 146 918 q 238 888 204 918 q 271 782 271 857 l 271 657 q 236 533 271 572 q 135 493 201 493 l 118 493 m 326 557 q 331 592 326 581 q 356 607 336 603 q 417 611 375 611 l 436 611 q 465 639 465 611 q 436 667 465 667 l 417 667 q 356 673 375 667 q 331 701 336 679 q 326 769 326 722 l 326 814 q 331 884 326 863 q 356 912 336 906 q 417 918 375 918 l 444 918 q 536 888 503 918 q 569 782 569 857 l 569 657 q 535 533 569 572 q 433 493 500 493 l 417 493 q 356 497 375 493 q 331 515 336 501 q 326 557 326 529 z "},"‘":{"ha":299,"x_min":28,"x_max":271,"o":"m 153 493 q 61 524 94 493 q 28 629 28 554 l 28 754 q 63 879 28 840 q 164 918 97 918 l 181 918 q 242 914 224 918 q 266 896 261 910 q 271 854 271 882 q 266 820 271 832 q 242 804 261 808 q 181 800 224 800 l 161 800 q 132 772 132 800 q 161 744 132 744 l 181 744 q 242 738 224 744 q 266 710 261 732 q 271 642 271 689 l 271 597 q 265 528 271 550 q 241 499 260 506 q 181 493 222 493 l 153 493 z "},"’":{"ha":299,"x_min":28,"x_max":271,"o":"m 118 493 q 57 497 76 493 q 33 515 38 501 q 28 557 28 529 q 33 592 28 581 q 57 607 38 603 q 118 611 76 611 l 138 611 q 167 639 167 611 q 138 667 167 667 l 118 667 q 57 673 76 667 q 33 701 38 679 q 28 769 28 722 l 28 814 q 33 884 28 863 q 57 912 38 906 q 118 918 76 918 l 146 918 q 238 888 204 918 q 271 782 271 857 l 271 657 q 236 533 271 572 q 135 493 201 493 l 118 493 z "},"\"":{"ha":563,"x_min":28,"x_max":538,"o":"m 132 492 q 78 500 96 492 q 52 533 60 508 q 42 604 44 557 l 31 801 q 33 874 28 850 q 59 908 39 899 q 121 917 79 917 l 164 917 q 226 908 206 917 q 251 874 246 899 q 254 801 257 850 l 243 604 q 233 533 240 557 q 208 500 226 508 q 153 492 190 492 l 132 492 m 311 801 q 314 874 308 850 q 340 908 319 899 q 401 917 360 917 l 444 917 q 506 908 486 917 q 532 874 526 899 q 535 801 538 850 l 524 604 q 514 533 521 557 q 489 500 507 508 q 433 492 471 492 l 413 492 q 358 500 376 492 q 333 533 340 508 q 322 604 325 557 l 311 801 z "},"'":{"ha":285,"x_min":28,"x_max":257,"o":"m 132 492 q 78 500 96 492 q 52 533 60 508 q 42 604 44 557 l 31 801 q 33 874 28 850 q 59 908 39 899 q 121 917 79 917 l 164 917 q 226 908 206 917 q 251 874 246 899 q 254 801 257 850 l 243 604 q 233 533 240 557 q 208 500 226 508 q 153 492 190 492 l 132 492 z "}}}
